<svg id="_ëîé_1" data-name="‘ëîé_1" xmlns="http://www.w3.org/2000/svg" viewBox="0 0 3200 2000"><defs><style>.cls-1{fill:#fff;}.cls-2{fill:#ebf3fa;}.cls-3{fill:#d5e5fb;}.cls-4{fill:#e2eefd;}.cls-5{fill:#f8fcff;}.cls-6{fill:#aec3ff;}.cls-7{fill:#9db0f4;}.cls-8{fill:#f99746;}.cls-9{fill:#1d2949;}.cls-10{fill:#739af0;}.cls-11{fill:#2c3a64;}.cls-12{fill:#afcdfb;}.cls-13{fill:#a9453d;}.cls-14{fill:#6390e0;}.cls-15{fill:#f9ddbf;}.cls-16{fill:#ed823a;}.cls-17{fill:#e58339;}.cls-18{fill:#7a231f;}.cls-19{fill:#d9935c;}.cls-20{fill:#ffb27d;}.cls-21{fill:#ed975d;}.cls-22{fill:#233862;}.cls-23{fill:#2b478b;}.cls-24{fill:#ffa25c;}.cls-25{fill:#ef8c48;}.cls-26{fill:#2e3552;}</style></defs><rect class="cls-1" width="3200" height="2000"/><path class="cls-2" d="M3073.91,1074.81c0,9.86-.23,20.27-.72,31.14-.11,2-.2,4.09-.31,6.16q-.65,12.27-1.73,25.22c-.17,2-.33,3.92-.52,5.91-.2,2.38-.43,4.78-.67,7.19-1,10.15-2.16,20.55-3.53,31.12-.28,2.14-.56,4.27-.86,6.41-1.38,10.23-2.94,20.64-4.69,31.13-.36,2.14-.73,4.33-1.11,6.48q-2.67,15.48-5.85,31.13c-.44,2.19-.91,4.37-1.36,6.55q-2.59,12.33-5.51,24.66-1.56,6.49-3.17,12.94-3.93,15.68-8.41,31.13c-.62,2.15-1.25,4.28-1.89,6.43q-4.71,15.75-9.95,31.1c-.74,2.16-1.5,4.33-2.26,6.49q-4.63,13.08-9.68,25.73-2.76,6.93-5.65,13.68c-4.58,10.7-9.43,21.1-14.5,31.1-1.1,2.18-2.22,4.34-3.34,6.48-5.77,10.9-11.82,21.3-18.19,31.08-1.34,2.08-2.7,4.12-4.1,6.14a263.87,263.87,0,0,1-24.52,31q-4.16,4.51-8.46,8.66c-13.84,13.35-28.75,23.91-44.77,31-1.18.52-2.35,1-3.54,1.51l-.88.36c-2.33.92-4.67,1.76-7,2.55l-124.44.18-351.8.51-436.65-2.62-170.69-1-337.73-2-1020.13-6.12s-189.22-112-189.22-306.35c0-2.68,0-5.35.11-8.06,2.79-103.89,30.62-301.89,270-404.67q25.78-11.05,55-20.61,26.08-8.49,55-15.58,36.81-9,78.43-15.44c2.72-.43,5.47-.84,8.23-1.23q19.92-2.91,38.19-6.86c322-69.16,283.31-368.14,708-389,38.89-1.93,81.66-1.49,129,1.64,72.62,4.85,132.46,22.55,185.93,43.36,56.57,22,106,47.42,156,64.7l3.42,1.17c49,16.6,98.66,25.09,156.15,14.58,2.78-.5,5.6-1.06,8.44-1.66,63.65-13.53,123.11-23.48,178.61-30.2l3.45-.41c133.43-15.85,244.1-12.79,336.11,4.86,1.15.21,2.3.43,3.43.67a632.61,632.61,0,0,1,109,31.28q13.84,5.42,26.93,11.37c.26.12.54.23.8.36l4.35,2,4.18,2,.37.19q16.14,7.74,31.19,16.31,17.84,10.14,34.18,21.37c3.1,2.13,6.18,4.28,9.2,6.47a458.39,458.39,0,0,1,38.78,31.27q3.6,3.22,7.1,6.51,16,15,30.34,31.25,3.67,4.14,7.22,8.34,12.83,15.18,24.27,31.22c1.56,2.17,3.07,4.34,4.59,6.52q10.58,15.25,20,31.21c1.36,2.29,2.72,4.62,4.05,6.94q8.63,15,16.33,30.42c1.91,3.85,3.79,7.69,5.63,11.58q4.8,10.08,9.22,20.35,3.72,8.58,7.21,17.25,6.2,15.45,11.71,31.19c.76,2.16,1.52,4.34,2.25,6.5q3.72,10.89,7.14,21.9,1.44,4.62,2.83,9.28c.65,2.17,1.3,4.38,2,6.57.54,1.9,1.08,3.8,1.63,5.68q3.22,11.44,6.21,23c.22.83.43,1.67.65,2.52.55,2.16,1.09,4.33,1.64,6.49q3.86,15.52,7.26,31.16c.47,2.14.92,4.29,1.39,6.43q3.3,15.57,6.21,31.18.61,3.24,1.21,6.49c1.18,6.39,2.29,12.78,3.38,19.15.44,2.64.85,5.42,1.23,8.31.14,1.2.29,2.44.44,3.7.31,2.68.59,5.47.83,8.33.82,9.47,1.3,19.91,1.45,31.14C3073.89,1070.46,3073.91,1072.63,3073.91,1074.81Z"/><path class="cls-3" d="M3071.15,1025.15v112.18c-.17,2-.33,3.92-.52,5.91-.2,2.38-.43,4.78-.67,7.19-1,10.15-2.16,20.55-3.53,31.12-.28,2.14-.56,4.27-.86,6.41-1.38,10.23-2.94,20.64-4.69,31.13-.36,2.14-.73,4.33-1.11,6.48q-2.67,15.48-5.85,31.13c-.44,2.19-.91,4.37-1.36,6.55q-2.59,12.33-5.51,24.66-1.56,6.49-3.17,12.94-3.93,15.68-8.41,31.13c-.62,2.15-1.25,4.28-1.89,6.43q-4.71,15.75-9.95,31.1c-.74,2.16-1.5,4.33-2.26,6.49q-4.63,13.08-9.68,25.73-2.76,6.93-5.65,13.68c-4.58,10.7-9.43,21.1-14.5,31.1-1.1,2.18-2.22,4.34-3.34,6.48-5.77,10.9-11.82,21.3-18.19,31.08-1.34,2.08-2.7,4.12-4.1,6.14a263.87,263.87,0,0,1-24.52,31q-4.16,4.51-8.46,8.66c-13.84,13.35-28.75,23.91-44.77,31-1.18.52-2.35,1-3.54,1.51l-.88.36-919.92.62-170.69-1-337.73-2-1020.13-6.12s-189.22-112-189.22-306.35c0-2.68,0-5.35.11-8.06,2.79-103.89,30.62-301.89,270-404.67v93.54h55V814.5q26.08-8.49,55-15.58,36.81-9,78.43-15.44c2.72-.43,5.47-.84,8.23-1.23q19.92-2.91,38.19-6.86v139h60.72V881.88l71.62.29V829.58H897.7V819.16h1.9v10.42H966V819.16h1.91v10.43H981.2v104.6h85.26v38.49h47.38V950.32h44V861.58h21.9V820.17H1183v41.41h52.54V784h5.15v77.59h34.75v-1.07h-.06v-9.85h.06v-9.33h-.06V825.84h.06v-9.92h-.06v-15.5h.06v-9.9h-.06V775h.06v-10.7h-.06V748.8h.06V735.18h-.06V719.67h.06V709.39h10.35v-11.6h1.67v11.6h76.71v-11.6h1.65v11.6h14v81.13l9.86.06v-.06h-.08V775h.08v-10.7h-.08V748.8h.08V738.14h-.08V722.63h.08v0h93v0h16l2.48,1.24V812.4h68V928.65h54.93v-215h11.95v-15h2.15v15h43.38v-15h2.15v15h61.43v-15h2.15v15H1786v-15h2.15v15H1804V914.34h60.7V881.88l71.62.29V829.58h14.42V819.16h1.9v10.42H2019V819.16h1.91v10.43h13.34v104.6h85.27v38.49h47.39V950.32h43.95V861.58h21.91V820.17h3.31v41.41h52.54V784h5.15v77.59h34.75v-1.07h-.05v-9.85h.05v-9.33h-.05V825.84h.05v-9.92h-.05v-15.5h.05v-9.9h-.05V775h.05v-10.7h-.05V748.8h.05V735.18h-.05V719.67h.05V709.39h10.36v-11.6h1.66v11.6h76.7v-11.6h1.66v11.6h14v81.13l9.72.06h.14v-.06h-.08V775h.08v-10.7h-.08V748.8h.08V738.14h-.08V722.63h.08v0h93v0h16l2.48,1.24V812.4H2668.4V928.66h54.94v-215h11.94v-15h2.16v15h43.38v-15H2783v15h61.44v-15h2.14v15h56.69V914.35H2964V881.88l71.61.29V868.92q1.44,4.62,2.83,9.28c.65,2.17,1.3,4.38,2,6.57.54,1.9,1.08,3.8,1.63,5.68q3.22,11.44,6.21,23c.22.83.43,1.67.65,2.52.55,2.16,1.09,4.33,1.64,6.49q3.86,15.52,7.26,31.16c.47,2.14.92,4.29,1.39,6.43q3.3,15.57,6.21,31.18.61,3.24,1.21,6.49c1.18,6.39,2.29,12.78,3.38,19.15C3070.36,1019.48,3070.77,1022.26,3071.15,1025.15Z"/><rect class="cls-4" x="1666.8" y="713.66" width="137.25" height="34.02"/><rect class="cls-4" x="1666.8" y="766.02" width="137.25" height="34.02"/><rect class="cls-4" x="1666.8" y="819.47" width="137.25" height="34.02"/><rect class="cls-4" x="1666.8" y="873.77" width="137.25" height="34.02"/><rect class="cls-4" x="1666.8" y="926.17" width="137.25" height="34.02"/><rect class="cls-4" x="2328.72" y="709.4" width="64.04" height="20.66"/><rect class="cls-4" x="2328.72" y="741.2" width="64.04" height="20.66"/><rect class="cls-4" x="2328.72" y="773.66" width="64.04" height="20.66"/><rect class="cls-4" x="2328.72" y="806.64" width="64.04" height="20.66"/><rect class="cls-4" x="2328.72" y="838.46" width="64.04" height="20.66"/><rect class="cls-4" x="2328.72" y="873.48" width="64.04" height="20.66"/><rect class="cls-4" x="2328.72" y="905.28" width="64.04" height="20.66"/><rect class="cls-4" x="2328.72" y="937.74" width="64.04" height="20.66"/><rect class="cls-4" x="2328.72" y="970.72" width="64.04" height="20.66"/><rect class="cls-4" x="2328.72" y="1002.54" width="64.04" height="20.66"/><rect class="cls-4" x="2442.63" y="722.95" width="68.63" height="20.66"/><rect class="cls-4" x="2442.63" y="754.74" width="68.63" height="20.66"/><rect class="cls-4" x="2442.63" y="787.21" width="68.63" height="20.66"/><rect class="cls-4" x="2442.63" y="820.19" width="68.63" height="20.66"/><rect class="cls-4" x="2442.63" y="852.01" width="68.63" height="20.66"/><rect class="cls-4" x="2442.63" y="885.18" width="68.63" height="20.66"/><rect class="cls-4" x="2442.63" y="916.98" width="68.63" height="20.66"/><rect class="cls-4" x="2442.63" y="949.44" width="68.63" height="20.66"/><rect class="cls-4" x="2442.63" y="982.42" width="68.63" height="20.66"/><rect class="cls-4" x="2442.63" y="1014.24" width="68.63" height="20.66"/><rect class="cls-4" x="2442.63" y="1050.74" width="68.63" height="20.66"/><rect class="cls-4" x="2442.63" y="1082.54" width="68.63" height="20.66"/><rect class="cls-4" x="2442.63" y="1115" width="68.63" height="20.66"/><rect class="cls-4" x="2442.63" y="1147.98" width="68.63" height="20.66"/><rect class="cls-4" x="2442.63" y="1179.8" width="68.63" height="20.66"/><rect class="cls-4" x="2778.27" y="713.66" width="124.96" height="34.02"/><rect class="cls-4" x="2778.27" y="766.02" width="124.96" height="34.02"/><rect class="cls-4" x="2778.27" y="819.47" width="124.96" height="34.02"/><rect class="cls-4" x="2778.27" y="873.77" width="124.96" height="34.02"/><rect class="cls-4" x="2778.27" y="926.17" width="124.96" height="34.02"/><rect class="cls-4" x="1274.82" y="709.4" width="68.63" height="20.66"/><rect class="cls-4" x="1274.82" y="741.2" width="68.63" height="20.66"/><rect class="cls-4" x="1274.82" y="773.66" width="68.63" height="20.66"/><rect class="cls-4" x="1274.82" y="806.64" width="68.63" height="20.66"/><rect class="cls-4" x="1274.82" y="838.46" width="68.63" height="20.66"/><rect class="cls-4" x="1274.82" y="873.48" width="68.63" height="20.66"/><rect class="cls-4" x="1274.82" y="905.28" width="68.63" height="20.66"/><rect class="cls-4" x="1274.82" y="937.74" width="68.63" height="20.66"/><rect class="cls-4" x="1274.82" y="970.72" width="68.63" height="20.66"/><rect class="cls-4" x="1274.82" y="1002.54" width="68.63" height="20.66"/><rect class="cls-4" x="1391.03" y="722.95" width="78" height="20.66"/><rect class="cls-4" x="1391.03" y="754.74" width="78" height="20.66"/><rect class="cls-4" x="1391.03" y="787.21" width="78" height="20.66"/><rect class="cls-4" x="1391.03" y="820.19" width="78" height="20.66"/><rect class="cls-4" x="1391.03" y="852.01" width="78" height="20.66"/><rect class="cls-4" x="1391.03" y="885.18" width="78" height="20.66"/><rect class="cls-4" x="1391.03" y="916.98" width="78" height="20.66"/><rect class="cls-4" x="1391.03" y="949.44" width="78" height="20.66"/><rect class="cls-4" x="1391.03" y="982.42" width="78" height="20.66"/><rect class="cls-4" x="1391.03" y="1014.24" width="78" height="20.66"/><rect class="cls-4" x="1391.03" y="1050.74" width="78" height="20.66"/><rect class="cls-4" x="1391.03" y="1082.54" width="78" height="20.66"/><rect class="cls-4" x="1391.03" y="1115" width="78" height="20.66"/><rect class="cls-4" x="1391.03" y="1147.98" width="78" height="20.66"/><rect class="cls-4" x="1391.03" y="1179.8" width="78" height="20.66"/><path class="cls-5" d="M1306.46,593.55S1329,556.28,1383,560.42c0,0,78.35-62.11,161.89-8.28,0,0,88.81-13.34,154.58,11.55,43.85,16.59,58.34,34,58.34,34Z"/><path class="cls-5" d="M1789.29,698.43s14.62-25.35,49.58-22.53c0,0,50.77-42.25,104.9-5.64,0,0,57.54-9.07,100.16,7.86,28.41,11.29,37.79,23.13,37.79,23.13Z"/><path class="cls-5" d="M2202,586.53s13.31-24.65,45.16-21.92c0,0,46.22-41.09,95.52-5.47,0,0,52.4-8.83,91.2,7.64,25.88,11,34.42,22.49,34.42,22.49Z"/><rect class="cls-6" x="1060.68" y="617.5" width="20.25" height="922.11"/><path class="cls-7" d="M1099.52,1554.63s-7.57,6.71-28.71,6.71c-19.86,0-28.72-6.71-28.72-6.71V1338a27.12,27.12,0,0,1,27.12-27.11h1.86a28.46,28.46,0,0,1,28.45,28.46Z"/><rect class="cls-6" x="1022.03" y="530.19" width="97.56" height="286.09" rx="13.95"/><circle class="cls-7" cx="1071.33" cy="670.7" r="37.44" transform="translate(-127.87 271.32) rotate(-13.63)"/><circle class="cls-7" cx="1071.33" cy="755.44" r="37.44" transform="translate(142.22 1680.22) rotate(-80.06)"/><circle class="cls-8" cx="1071.33" cy="585.01" r="37.44" transform="translate(319.97 1547) rotate(-80.65)"/><path class="cls-9" d="M1857.81,1493.28h841.9L2984,1467.66s-50.88-126.76-64.75-128.67-1034.82,0-1034.82,0Z"/><path class="cls-10" d="M3105.51,1480.79c-21,8.58-147.6,10.49-147.6,10.49s2.86-155.22-127.6-137.13-107.65,146.92-107.65,146.92l-627.18,11.19s10.18-163.63-128.3-146.42c-115,14.3-85.48,145.81-85.48,145.81-59.37,3.06-91.18-5.89-108.06-15.23h0c-12.64-17.82-5.27-28.25-4.54-30.08s-1.83-32.16-2.19-36.54c-.21-2.47,5.13-8.75,9.85-13.78a11.37,11.37,0,0,0,.57-14.94l-6.27-7.74a30.43,30.43,0,0,1-4.25-31.33l12.47-28.53h0c40.64-69.82,359.32-88.88,359.32-88.88,48.39-27.82,88.52-48.49,119.91-63.51,50.08-24,107.17-47.33,162.42-52.79,149.58-14.79,272.58,2,302.73,6.86,35.23,5.71,212.35,82.84,225.69,89.51s122.05,15.7,136,17.4,13.55,15.66,13.55,15.66l1.92,12.38,7.3,47.19,1.78,11.53c10.16,5.07,10.17,19.62,10.17,19.62S3126.45,1472.22,3105.51,1480.79Z"/><circle class="cls-11" cx="1985.73" cy="1467.66" r="96.58" transform="translate(-456.19 1833.99) rotate(-45)"/><path class="cls-12" d="M1985.73,1543.19a75.53,75.53,0,1,1,75.53-75.53A75.61,75.61,0,0,1,1985.73,1543.19Zm0-144.07a68.55,68.55,0,1,0,68.55,68.54A68.62,68.62,0,0,0,1985.73,1399.12Z"/><polygon class="cls-12" points="1998.63 1539.78 1971.56 1539.78 1980.25 1465.61 1970.32 1395.16 2001.25 1397.07 1990.94 1465.61 1998.63 1539.78"/><polygon class="cls-12" points="1929.58 1514.73 1916.05 1491.3 1984.63 1461.74 2040.68 1417.93 2054.49 1445.67 1989.97 1471 1929.58 1514.73"/><polygon class="cls-12" points="1918.73 1439.71 1933.6 1417.1 1990.8 1465.11 2055.11 1495.52 2036.53 1520.31 1984.92 1474.04 1918.73 1439.71"/><path class="cls-12" d="M1960.38,1467.53a25.2,25.2,0,1,1,25.2,25.2A25.2,25.2,0,0,1,1960.38,1467.53Z"/><circle class="cls-11" cx="2842.1" cy="1467.66" r="96.58" transform="translate(760.72 3896.54) rotate(-76.72)"/><path class="cls-12" d="M2842.1,1543.19a75.53,75.53,0,1,1,75.53-75.53A75.61,75.61,0,0,1,2842.1,1543.19Zm0-144.07a68.55,68.55,0,1,0,68.55,68.54A68.62,68.62,0,0,0,2842.1,1399.12Z"/><polygon class="cls-12" points="2854.99 1539.78 2827.93 1539.78 2836.62 1465.61 2826.69 1395.16 2857.62 1397.07 2847.31 1465.61 2854.99 1539.78"/><polygon class="cls-12" points="2785.95 1514.73 2772.42 1491.3 2841 1461.74 2897.05 1417.93 2910.85 1445.67 2846.34 1471 2785.95 1514.73"/><polygon class="cls-12" points="2775.1 1439.71 2789.97 1417.1 2847.17 1465.11 2911.48 1495.52 2892.9 1520.31 2841.29 1474.04 2775.1 1439.71"/><path class="cls-12" d="M2816.75,1467.53a25.2,25.2,0,1,1,25.2,25.2A25.2,25.2,0,0,1,2816.75,1467.53Z"/><path class="cls-12" d="M1892.44,1342.39l-24.79,26.88a18.83,18.83,0,0,1-13.82,6h-76a5.88,5.88,0,0,1-5.13-8.74l2.17-3.88a57.47,57.47,0,0,1,9.81-12.9h0a57.72,57.72,0,0,1,40.55-16.64h63.17A5.5,5.5,0,0,1,1892.44,1342.39Z"/><path class="cls-9" d="M1811.67,1467.66H1790.1a19.7,19.7,0,0,0-17.19,10.09l-.74,1.32a2,2,0,0,0,1.75,3h25.95a6.43,6.43,0,0,0,4.72-2.07l8.46-9.17A1.88,1.88,0,0,0,1811.67,1467.66Z"/><path class="cls-12" d="M2856,1235.44l-322.39,7.65a11.25,11.25,0,0,1-11.52-11.25v-74.27a10.48,10.48,0,0,1,10.62-10.48c137.48,1.91,184.6,5.74,212.85,15.49,24.92,8.6,83.2,44,113.32,61.89A5.9,5.9,0,0,1,2856,1235.44Z"/><path class="cls-12" d="M2494,1146.61l15.36.18v96.88l-311,7.38a4.06,4.06,0,0,1-2.37-7.42C2232.3,1219.14,2354,1145,2494,1146.61Z"/><path class="cls-12" d="M2854.86,1235.46h-.17V1222l3.21,1.92A6.21,6.21,0,0,1,2854.86,1235.46Z"/><polygon class="cls-10" points="2522.05 1247.58 2483.96 1244.56 2486.5 1140.95 2522.05 1140.95 2522.05 1247.58"/><polygon class="cls-10" points="2763.3 1247.58 2745.52 1247.58 2745.52 1154.54 2763.3 1165.21 2763.3 1247.58"/><path class="cls-11" d="M2237.14,1218.49l9.48,31.42-51.88,1.23a3.08,3.08,0,0,1-1.87-5.58C2204.58,1237.14,2226.29,1222.13,2237.14,1218.49Z"/><path class="cls-9" d="M2192.49,1253.73a4.88,4.88,0,0,1-2.79-8.89l1.08-.74c1.12-.78,2.38-1.64,3.76-2.57l3.66-2.44,2-1.29,4.74-3.06,3.7-2.34.21-.13.55-.34,3.38-2.1.26-.16,1.17-.71,1.8-1.1,2.61-1.57c2.49-1.5,5.17-3.08,8-4.69.86-.51,1.74-1,2.63-1.52,1.76-1,3.57-2,5.43-3.07h0l1.3-.74c3.75-2.08,7.55-4.14,11.29-6.13l1.23-.65,1.71-.91c7.14-3.73,14.46-7.4,21.8-10.9l2.27-1.08c2.29-1.08,4.61-2.15,7-3.23l2.38-1.08c1.57-.72,3.17-1.43,4.79-2.15l2.43-1.07c2.43-1.07,5-2.18,7.89-3.39,1.49-.63,3-1.25,4.5-1.87,10.17-4.19,20.53-8.13,30.8-11.71l2.25-.78,2.55-.87,3.2-1.07,2.6-.86.1,0,2.73-.88c1.65-.53,3.31-1.06,5-1.57,1.13-.36,2.28-.71,3.44-1.06l5.3-1.58,2.95-.85c1.86-.53,3.73-1.06,5.6-1.57,3.71-1,7.5-2,11.24-2.94l.23-.06,1-.25c1.59-.4,3.22-.79,4.86-1.18l2.94-.68.74-.17,2.2-.5c1-.23,2-.44,2.95-.66l3-.64,3-.62c1-.21,2-.41,3-.6l.16,0,2.85-.55,2.84-.54,3.21-.58,2.06-.37,1-.17c2-.35,4.05-.68,6.08-1,1-.17,2-.32,3.07-.48l.15,0,5.4-.78c3.36-.46,6.73-.89,10-1.27l.21,0,2.78-.31,2-.21c.65-.08,1.38-.15,2.1-.21l2.35-.23,3.16-.29,3-.25,2.36-.18,4.52-.31,2.67-.16.39,0c1-.06,2-.11,3-.15l2.39-.11h.08l2.14-.08,1.77-.07,2.11-.06a10.14,10.14,0,0,1,10.4,10.11v80.29a12.47,12.47,0,0,1-12.1,12.39l-284.33,6.75Zm47-33.61-1.75,1q-3.08,1.71-6,3.38l-2.61,1.51c-2.77,1.6-5.43,3.16-7.9,4.65l-2.59,1.56-1.79,1.09-1.14.7-.27.17-3.38,2.09-.72.45c-1.26.79-2.49,1.57-3.67,2.33q-2.48,1.58-4.68,3l-1.95,1.29-3.62,2.41c-1.36.92-2.6,1.76-3.71,2.54l-.52.35,53.41-1.26,230.26-5.47a7.36,7.36,0,0,0,7.14-7.31V1154.3a5.06,5.06,0,0,0-5.19-5l-2.07.06-1.77.06-2.1.09h-.08l-2.36.11c-1,0-2,.09-2.93.15l-.4,0-2.61.16-4.48.3-2.29.18-3,.25-3.12.28-2.32.23c-.72.06-1.39.13-2.06.21l-2,.21-2.75.31-.21,0c-3.26.38-6.6.81-9.92,1.26q-2.68.38-5.33.78l-.15,0-3,.47q-3,.48-6,1l-1,.16-2,.36-3.18.58-2.81.54-2.82.55-.16,0-2.95.59-3,.62-2.93.63-2.93.65-2.17.49-.75.18c-1,.22-1.93.44-2.89.68-1.64.38-3.24.77-4.84,1.17l-.94.23-.24.06c-3.71.93-7.46,1.91-11.14,2.92-1.86.51-3.7,1-5.54,1.55l-2.93.84-5.25,1.57-3.4,1-5,1.57c-.9.28-1.79.57-2.68.87l-.11,0-2.57.85-3.19,1.06-2.51.86-2.23.77c-10.19,3.55-20.46,7.46-30.54,11.61l-4.47,1.86c-2.86,1.2-5.41,2.3-7.81,3.36l-2.43,1.07c-1.6.71-3.18,1.41-4.75,2.13-.8.35-1.58.7-2.35,1.06-2.35,1.07-4.65,2.14-6.92,3.22l-2.27,1.07c-7.26,3.47-14.53,7.1-21.59,10.8l-1.72.91-1.22.64C2246.22,1216.41,2242.81,1218.25,2239.44,1220.12Z"/><path class="cls-9" d="M2768.61,1240.16a7.28,7.28,0,0,1-5.1-2.11,8.33,8.33,0,0,1-2.46-6v-54.21c0-3.09.45-7,2.95-8.58,2.26-1.41,6.07-.38,8.45.78,2.65,1.31,4.5,2.24,5.5,2.78l.4.21,1.08.59c13.51,7.38,32.74,19,57.17,34.53,1,.65,2.07,1.31,3.1,2l7.16,4.59,8.57,5.53,4.28,2.78.61.39.19.12a7.88,7.88,0,0,1,3.15,8.82,7.22,7.22,0,0,1-6.76,5.47l-.93,0-87.17,2.27Zm.48-66.36a3.25,3.25,0,0,0-1.68.49,4.17,4.17,0,0,0-1.87,3.6v54.21a3.84,3.84,0,0,0,1.11,2.73,2.86,2.86,0,0,0,2,.83l88.11-2.29a2.8,2.8,0,0,0,2.54-2.19,3.39,3.39,0,0,0-1.27-3.83l-.19-.12-.59-.38-4.29-2.79-8.55-5.52-7.16-4.58-3.09-2c-24.35-15.48-43.49-27-56.91-34.38l-1.1-.59-.33-.18c-1-.53-2.82-1.46-5.38-2.72A3.15,3.15,0,0,0,2769.09,1173.8Z"/><path class="cls-11" d="M2237.14,1218.49l9.48,31.42-51.88,1.23a3.08,3.08,0,0,1-1.87-5.58C2204.58,1237.14,2226.29,1222.13,2237.14,1218.49Z"/><path class="cls-9" d="M2533.28,1245.63a13.79,13.79,0,0,1-13.77-13.78v-74.29a12.92,12.92,0,0,1,3.87-9.26,13.09,13.09,0,0,1,9.33-3.75c141.9,2,185.84,5.2,213.71,15.66l1.64.62v79.71l-214.43,5.09Zm-.76-96a8,8,0,0,0-7.94,7.93v74.29a8.71,8.71,0,0,0,8.92,8.7l209.48-5v-71.22c-27.11-9.62-73.62-12.83-210.34-14.73Z"/><path class="cls-13" d="M3108.14,1317.29h-60.7a29.46,29.46,0,0,1-23.15-11.24l-23-29.17a4.2,4.2,0,0,1,3.3-6.79h96.21Z"/><rect class="cls-9" x="2343.53" y="1307.2" width="325.29" height="2.54" transform="translate(1168.87 3799.38) rotate(-89.34)"/><rect class="cls-9" x="2094.18" y="1472.58" width="627.62" height="2.54" transform="translate(-29 48.46) rotate(-1.15)"/><path class="cls-11" d="M2469.42,1311.06c0,3.44-15.35,6.23-34.29,6.23s-34.28-2.79-34.28-6.23,15.35-6.23,34.28-6.23S2469.42,1307.62,2469.42,1311.06Z"/><path class="cls-11" d="M2788.69,1311.06c0,3.44-15.35,6.23-34.28,6.23s-34.28-2.79-34.28-6.23,15.35-6.23,34.28-6.23S2788.69,1307.62,2788.69,1311.06Z"/><path class="cls-9" d="M2697.26,1467.73l-2.53-.14c1.75-32.33,11.34-59.59,28.48-81,13.73-17.13,32.28-30.56,55.15-39.92,34.78-14.24,69.24-14.61,76.33-14.51v-96.72h2.54v99.34l-1.32,0c-.38,0-38.33-1.4-76.67,14.32-22.44,9.2-40.64,22.37-54.07,39.16C2708.38,1409.2,2699,1436,2697.26,1467.73Z"/><path class="cls-9" d="M2170.72,1478.52c-1-83.9,3.69-141.94,7.78-175.87,4.44-36.8,9.19-54,9.24-54.18l2.44.69c-.18.67-18.8,69.17-16.92,229.33Z"/><rect class="cls-9" x="2483" y="1145.82" width="49.67" height="2.54"/><path class="cls-11" d="M1822.08,1375.32H1777.8a5.88,5.88,0,0,1-5.13-8.74l2.17-3.88a57.47,57.47,0,0,1,9.81-12.9h0l26.81,4.44-10.59,11.6,12.66,2.56Z"/><path class="cls-10" d="M1807.83,1303.7a3.28,3.28,0,0,1-1.91-6c.21-.16,5.41-3.84,22.13-14,17.54-10.68,34.28-12.9,45.35-13.63,6.81-.46,13.53-10.32,17.54-16.22a46.72,46.72,0,0,1,3.65-5c1.59-1.72,3.23-3.5,124.52-5.82,59.27-1.13,132.45-1.8,119.45-1.8h13.55c1.8,0,1.86,4.3,2.19,6.08,4,21.88-19.75,11-21.56,11-90.54,1-221.5-7.11-233.78-4.46-.68.87-1.61,2.23-2.58,3.65-5,7.34-12.53,18.41-22.55,19.08-10.37.69-26.06,2.76-42.36,12.69s-21.68,13.72-21.73,13.75A3.31,3.31,0,0,1,1807.83,1303.7Z"/><rect class="cls-14" x="2229.99" y="1226.04" width="66.61" height="37.28" rx="13.16"/><path class="cls-9" d="M257.48,1488.83h841.89l284.34-25.61s-50.88-126.77-64.75-128.68-1034.82,0-1034.82,0Z"/><path class="cls-8" d="M1516.32,1362.51c-3,10.31-8.53,12.54-8.52,34.76,0,8.73,2,19.73-2.43,29.42-1.91,4.19-13.71,11.19-10.42,25.21,0,0-19.46,15.08-20.28,17s-2.19,12.61-2.19,12.61c-21,8.57-114.9,5.31-114.9,5.31s2.85-155.2-127.6-137.11-107.66,146.92-107.66,146.92l-627.18,11.18s10.18-163.62-128.28-146.42c-115,14.3-85.5,145.81-85.5,145.81-114.7,5.93-126.55-33-126.55-33v-16.07H162v-42.33h-7.19v-31.53L178.94,1329c10.16-17.46,37.69-31.74,73.3-43.35,106.76-34.82,286-45.53,286-45.53,48.41-27.83,88.53-48.51,119.93-63.53,50.07-23.95,107.15-47.32,162.4-52.78,149.58-14.78,272.59,2,302.74,6.87,35.23,5.71,212.35,82.83,225.68,89.5s122.06,15.71,136,17.4,13.54,15.65,13.54,15.65l1.92,12.4-2.26,7.26-10.43-3.63,4.4,15.69-1.37,6.58,14,2.23,3,19.06,1.79,11.52C1519.74,1329.44,1517.86,1357.19,1516.32,1362.51Z"/><circle class="cls-11" cx="385.4" cy="1463.22" r="96.58" transform="translate(-1123.66 1574.06) rotate(-79.45)"/><path class="cls-12" d="M385.4,1538.75a75.53,75.53,0,1,1,75.53-75.53A75.62,75.62,0,0,1,385.4,1538.75Zm0-144.08a68.55,68.55,0,1,0,68.54,68.55A68.63,68.63,0,0,0,385.4,1394.67Z"/><polygon class="cls-12" points="398.29 1535.33 371.23 1535.33 379.92 1461.16 369.99 1390.72 400.92 1392.63 390.61 1461.16 398.29 1535.33"/><polygon class="cls-12" points="329.25 1510.29 315.72 1486.85 384.3 1457.3 440.35 1413.49 454.15 1441.23 389.64 1466.56 329.25 1510.29"/><polygon class="cls-12" points="318.4 1435.27 333.27 1412.66 390.47 1460.66 454.78 1491.07 436.19 1515.86 384.59 1469.6 318.4 1435.27"/><path class="cls-12" d="M360.05,1463.08a25.2,25.2,0,1,1,25.2,25.2A25.2,25.2,0,0,1,360.05,1463.08Z"/><circle class="cls-11" cx="1241.77" cy="1463.22" r="96.58" transform="translate(-518.51 2227.69) rotate(-73.15)"/><path class="cls-12" d="M1241.77,1538.75a75.53,75.53,0,1,1,75.53-75.53A75.62,75.62,0,0,1,1241.77,1538.75Zm0-144.08a68.55,68.55,0,1,0,68.54,68.55A68.63,68.63,0,0,0,1241.77,1394.67Z"/><polygon class="cls-12" points="1254.66 1535.33 1227.6 1535.33 1236.29 1461.16 1226.36 1390.72 1257.29 1392.63 1246.98 1461.16 1254.66 1535.33"/><polygon class="cls-12" points="1185.62 1510.29 1172.09 1486.85 1240.67 1457.3 1296.71 1413.49 1310.52 1441.23 1246.01 1466.56 1185.62 1510.29"/><polygon class="cls-12" points="1174.77 1435.27 1189.64 1412.66 1246.84 1460.66 1311.15 1491.07 1292.56 1515.86 1240.96 1469.6 1174.77 1435.27"/><path class="cls-12" d="M1216.42,1463.08a25.2,25.2,0,1,1,25.2,25.2A25.2,25.2,0,0,1,1216.42,1463.08Z"/><path class="cls-15" d="M288.06,1328.7H224.88a57.71,57.71,0,0,0-50.38,29.56l-2.16,3.87a5.87,5.87,0,0,0,5.12,8.74h76a18.77,18.77,0,0,0,13.81-6l24.8-26.88A5.51,5.51,0,0,0,288.06,1328.7Z"/><path class="cls-9" d="M211.33,1463.22H189.77a19.71,19.71,0,0,0-17.19,10.08l-.74,1.33a2,2,0,0,0,1.75,3h25.95a6.39,6.39,0,0,0,4.71-2.07l8.47-9.17A1.88,1.88,0,0,0,211.33,1463.22Z"/><path class="cls-12" d="M1255.63,1231l-322.39,7.66a11.25,11.25,0,0,1-11.53-11.25v-74.28a10.46,10.46,0,0,1,10.63-10.47c137.48,1.91,184.59,5.74,212.85,15.49,24.92,8.59,83.2,43.95,113.32,61.89A5.9,5.9,0,0,1,1255.63,1231Z"/><path class="cls-12" d="M893.66,1142.16l15.36.19v96.88l-311,7.38a4.06,4.06,0,0,1-2.37-7.42C632,1214.7,753.69,1140.58,893.66,1142.16Z"/><path class="cls-12" d="M1254.53,1231h-.17v-13.46l3.2,1.91A6.21,6.21,0,0,1,1254.53,1231Z"/><polygon class="cls-8" points="921.71 1243.13 883.62 1240.12 886.16 1136.51 921.71 1136.51 921.71 1243.13"/><polygon class="cls-8" points="1162.96 1243.13 1145.19 1243.13 1145.19 1150.1 1162.96 1160.76 1162.96 1243.13"/><path class="cls-11" d="M636.81,1214.05l9.48,31.41-51.88,1.23a3.07,3.07,0,0,1-1.87-5.57C604.25,1232.69,626,1217.68,636.81,1214.05Z"/><path class="cls-9" d="M592.16,1249.28a4.88,4.88,0,0,1-2.8-8.88l1.08-.75,3.77-2.57,3.65-2.43,2-1.29c1.49-1,3.06-2,4.74-3.06l3.7-2.35.21-.13.55-.34,3.38-2.1.26-.15,1.17-.72c.57-.36,1.18-.73,1.8-1.1l2.61-1.57c2.49-1.5,5.17-3.08,8-4.69l2.63-1.52q2.64-1.52,5.43-3.07h0l1.3-.73c3.75-2.08,7.55-4.15,11.29-6.14l1.23-.65,1.71-.9c7.13-3.74,14.46-7.4,21.79-10.9l2.28-1.08q3.43-1.62,7-3.24l2.38-1.08c1.56-.71,3.17-1.43,4.79-2.14l2.43-1.07c2.42-1.07,5-2.18,7.89-3.4l4.5-1.87c10.17-4.19,20.53-8.13,30.8-11.71l2.25-.78,2.55-.86,3.2-1.08,2.6-.85.1,0,2.73-.88,5-1.57c1.13-.36,2.28-.71,3.44-1.06,1.76-.53,3.52-1.06,5.3-1.58l3-.85c1.86-.53,3.72-1,5.6-1.56,3.71-1,7.5-2,11.24-3l.22-.06c.34-.08.66-.17,1-.24,1.59-.4,3.22-.8,4.86-1.18,1-.23,2-.47,2.94-.69l.73-.17,2.21-.5,3-.66,3-.63,3-.62,3-.61.16,0,2.85-.56,2.83-.54,3.21-.58,2.07-.36,1-.17c2-.35,4.05-.69,6.08-1l3.06-.48.16,0,5.4-.78c3.35-.47,6.73-.9,10-1.28l.22,0c.93-.11,1.85-.22,2.78-.31.64-.08,1.33-.15,2-.21s1.38-.16,2.11-.22l2.34-.23,3.16-.29,3-.25,2.36-.18,4.51-.31,2.68-.16.39,0,3-.15,2.39-.11h.07l2.15-.09,1.76-.06,2.11-.06a10,10,0,0,1,7.34,2.86,10.06,10.06,0,0,1,3.06,7.25v80.28a12.46,12.46,0,0,1-12.1,12.39l-284.32,6.75Zm47-33.61-1.76,1c-2.05,1.15-4,2.27-6,3.39l-2.62,1.5c-2.76,1.6-5.42,3.17-7.89,4.66-.89.53-1.75,1-2.59,1.56-.61.36-1.2.72-1.79,1.09l-1.14.7-.27.16c-1.17.71-2.29,1.41-3.38,2.1l-.72.44-3.67,2.33q-2.49,1.58-4.68,3l-2,1.28-3.61,2.41-3.72,2.54-.51.36,53.41-1.27,230.25-5.46a7.37,7.37,0,0,0,7.14-7.32v-80.28a5,5,0,0,0-5.18-5l-2.08.07-1.76.06-2.1.08h-.08l-2.36.1-2.94.15-.39,0-2.62.15-4.48.31-2.28.17-3.05.25-3.13.29-2.32.22-2.05.22c-.7.06-1.35.13-2,.21-.94.09-1.84.2-2.75.3l-.21,0c-3.27.37-6.61.8-9.93,1.26-1.78.25-3.56.5-5.33.77l-.14,0c-1,.16-2,.31-3,.48-2,.31-4,.65-6,1l-1,.17c-.68.12-1.36.23-2,.36l-3.18.57-2.81.54-2.83.55-.16,0-2.94.6-3,.61-2.94.64c-1,.21-1.95.42-2.93.65l-2.17.49-.75.17-2.89.68c-1.63.38-3.23.77-4.83,1.17l-.94.24-.24.06c-3.72.92-7.46,1.9-11.14,2.92-1.86.5-3.71,1-5.54,1.54l-2.94.85-5.24,1.56c-1.14.35-2.28.69-3.41,1-1.66.51-3.3,1-4.95,1.56l-2.68.87-.11,0c-.85.28-1.71.55-2.56.84l-3.19,1.07-2.51.85-2.24.78c-10.18,3.55-20.45,7.45-30.53,11.61l-4.48,1.86c-2.85,1.2-5.41,2.3-7.81,3.36l-2.42,1.06c-1.6.71-3.19,1.42-4.75,2.13l-2.35,1.07c-2.35,1.07-4.65,2.14-6.92,3.21l-2.27,1.08c-7.26,3.46-14.54,7.1-21.6,10.8l-1.72.91-1.21.64C645.88,1212,642.48,1213.81,639.11,1215.67Z"/><path class="cls-9" d="M1168.28,1235.71a7.28,7.28,0,0,1-5.11-2.11,8.34,8.34,0,0,1-2.46-5.95v-54.21c0-3.08.46-7,3-8.58,2.26-1.41,6.06-.38,8.45.79,2.65,1.3,4.5,2.24,5.5,2.77l.4.22,1.08.59c13.51,7.38,32.74,19,57.17,34.52l3.1,2,7.16,4.59,8.57,5.53,4.28,2.78.61.4.18.12a7.85,7.85,0,0,1,3.15,8.82,7.19,7.19,0,0,1-6.75,5.46l-.93,0-87.17,2.26Zm.47-66.36a3.18,3.18,0,0,0-1.67.5,4.15,4.15,0,0,0-1.87,3.59v54.21a3.81,3.81,0,0,0,1.1,2.73,2.78,2.78,0,0,0,2,.83l88.1-2.28a2.83,2.83,0,0,0,2.55-2.2,3.38,3.38,0,0,0-1.28-3.82l-.18-.12-.59-.38-4.3-2.79-8.55-5.52c-2.3-1.48-4.69-3-7.15-4.58l-3.09-2c-24.35-15.48-43.5-27-56.92-34.37l-1.09-.6-.33-.18c-1-.52-2.82-1.45-5.39-2.71A3,3,0,0,0,1168.75,1169.35Z"/><path class="cls-11" d="M636.81,1214.05l9.48,31.41-51.88,1.23a3.07,3.07,0,0,1-1.87-5.57C604.25,1232.69,626,1217.68,636.81,1214.05Z"/><path class="cls-9" d="M933,1241.19a13.79,13.79,0,0,1-13.78-13.79v-74.28a13,13,0,0,1,13.21-13c141.89,2,185.83,5.19,213.7,15.65l1.65.62v79.72l-214.44,5.08Zm-.76-96a7.92,7.92,0,0,0-7.94,7.93v74.28a8.73,8.73,0,0,0,8.92,8.71l209.48-5v-71.22c-27.12-9.63-73.62-12.83-210.35-14.73Z"/><path class="cls-13" d="M1507.8,1312.84h-60.7a29.45,29.45,0,0,1-23.14-11.23l-23-29.18a4.19,4.19,0,0,1,3.3-6.78h96.2l-2.26,7.26-10.43-3.63,4.4,15.69-1.37,6.58,14,2.23Z"/><rect class="cls-9" x="743.2" y="1302.76" width="325.29" height="2.54" transform="translate(-408.9 2194.24) rotate(-89.32)"/><rect class="cls-9" x="493.85" y="1468.14" width="627.62" height="2.54" transform="matrix(1, -0.02, 0.02, 1, -28.95, 16.29)"/><path class="cls-16" d="M869.08,1306.61c0,3.44-15.35,6.23-34.28,6.23s-34.28-2.79-34.28-6.23,15.35-6.22,34.28-6.22S869.08,1303.17,869.08,1306.61Z"/><path class="cls-16" d="M1188.36,1306.61c0,3.44-15.35,6.23-34.28,6.23s-34.28-2.79-34.28-6.23,15.34-6.22,34.28-6.22S1188.36,1303.17,1188.36,1306.61Z"/><path class="cls-9" d="M1096.93,1463.29l-2.53-.14c1.75-32.34,11.33-59.59,28.48-81,13.72-17.13,32.27-30.56,55.14-39.92,34.79-14.24,69.24-14.61,76.34-14.5V1231h2.54v99.35l-1.32-.06c-.38,0-38.33-1.39-76.67,14.32-22.45,9.2-40.64,22.38-54.08,39.17C1108,1404.75,1098.65,1431.51,1096.93,1463.29Z"/><path class="cls-9" d="M570.39,1474.08c-1-83.9,3.69-141.95,7.78-175.87,4.44-36.81,9.19-54,9.24-54.18l2.44.68c-.19.68-18.8,69.17-16.92,229.34Z"/><rect class="cls-9" x="882.67" y="1141.38" width="49.67" height="2.54"/><path class="cls-17" d="M1495,1451.9s-9.68-4.2-15.53-5.29-39.84,3.29-39.84,3.29,14.62-9.87,22.29-13.16,43.5-10,43.5-10C1503.46,1430.88,1491.66,1437.88,1495,1451.9Z"/><polygon class="cls-17" points="1507.8 1383.92 1477.41 1371.32 1459.32 1347.14 1499.89 1362 1516.32 1362.51 1507.8 1383.92"/><path class="cls-17" d="M1479.05,1402.56s-29-3.28-35.63,0-23,20.29-20.83,24.13,31.25-13,42.21-12.8,43.41-5.3,43.41-5.3Z"/><path class="cls-8" d="M1403.4,1559.71s31.25-10.77,38.92-13,25-2.66,25-2.66-3.76,9.61-2.06,10.34,9.37,5.38,9.37,5.38Z"/><path class="cls-8" d="M1520.72,1559.71s20.46-9.68,25.58-9.68,26,4.84,26,4.84l-2.19,4.93Z"/><polygon class="cls-18" points="1507.8 1312.84 1474.67 1312.84 1473.3 1308 1485.63 1300.32 1465.9 1294.84 1460.96 1285.8 1478.23 1277.3 1471.93 1265.65 1500.5 1265.65 1498.24 1272.91 1487.82 1269.28 1492.21 1284.97 1490.84 1291.55 1504.85 1293.78 1507.8 1312.84"/><polygon class="cls-13" points="1488.65 1559.71 1489.74 1554.91 1500.71 1553.6 1504 1559.8 1488.65 1559.71"/><rect class="cls-16" x="629.37" y="1223.05" width="80.59" height="42.27" rx="13.16"/><path class="cls-19" d="M1563.77,1027.48s-.83-13.48-.73-19.31,14.51-22.58,19.41-22.58,3.26,15.43,2.45,20.23,1.63,9.15-1.09,13-8.07,11.87-8.07,11.87Z"/><path class="cls-20" d="M1649.77,1049.69l-23.13,22.18a70.82,70.82,0,0,1-13.21-14.86c-.54-.79-1.06-1.58-1.55-2.37a112,112,0,0,1-7-13.18c-.27-.58-.52-1.13-.75-1.66-1.28-2.79,12.85-11.72,20.82-17.39a30.69,30.69,0,0,0,5-4.15,22.62,22.62,0,0,0,0,6.29,25.89,25.89,0,0,0,7,13.07C1645,1046.48,1649.77,1049.69,1649.77,1049.69Z"/><path class="cls-21" d="M1632.27,1025.09s-4.58,24.37-18.84,31.92c-.54-.79-1.06-1.58-1.55-2.37a112,112,0,0,1-7-13.18c1.73-3.61,13.62-11.2,20.69-16.21C1629.56,1025.17,1632.27,1025.09,1632.27,1025.09Z"/><path class="cls-20" d="M1603.92,1052.15s34.63-11.56,27.1-33-8.14-37.39-30.56-30.92-23.83,16.16-23.06,23.93S1594.72,1054.61,1603.92,1052.15Z"/><path class="cls-22" d="M1633.68,1025.62s-3.53-2.34,4.22-14.58c4-6.31,7.56-12.25,1.9-22.51S1634.5,970,1618.9,970s-17.17-7.23-25.12-4.71-15,14.2-21.81,16.39-12,37.84,3.61,36.86c0,0,5.85-2.92,8.47-7.63s15.89-15.43,20.11-11.94S1625.3,1025.78,1633.68,1025.62Z"/><path class="cls-16" d="M1655.46,1105.31s-68.3,30.56-109.81,37.58c0,0-13-.88-13.44-16.88-.28-10.15,68.15-60,93.16-58.49S1664.1,1094.59,1655.46,1105.31Z"/><path class="cls-16" d="M1577.25,1029.43l-5.66,77.14L1532.21,1126a219,219,0,0,1,11.78-60.7c12.09-34.51,18.51-40.14,18.51-40.14S1573.37,1022.71,1577.25,1029.43Z"/><path class="cls-22" d="M1639.68,1552.91c-.31,3.41-1,6.3-2.59,7a5.31,5.31,0,0,1-1.31.34h-52l-2.18-.07s.13-6.43,9-7.67c7.14-1,18.69-4.41,24.37-11.81a16,16,0,0,0,2.91-6c2.86-11.61,21.59,4,21.59,4s.21,2,.34,4.83A69,69,0,0,1,1639.68,1552.91Z"/><path class="cls-22" d="M1688.43,1560.28h-57.78a13.21,13.21,0,0,1,9-7.37,14.41,14.41,0,0,1,1.85-.37c6.23-.88,15.81-3.58,21.92-9.16a17.15,17.15,0,0,0,5.36-8.61c2.86-11.61,21.59,4,21.59,4s.19,1.85.33,4.49C1691,1549,1691.11,1558.33,1688.43,1560.28Z"/><path class="cls-23" d="M1663.9,1245.72s-.05,2.1-.13,5.87c-.52,24.31-2.6,118.33-4.57,170.74-.08,1.91-.15,3.75-.22,5.55l-.12,2.84a566.61,566.61,0,0,1-8.09,70c-4.43,25.3-8.93,42.54-8.93,42.54-16.88,3.42-27.82-3-27.82-3s-4.55-39.28-6.28-63c-.57-7.71-3.35-34-6.84-66-2.7-24.75-5.83-52.92-8.7-78.54-.15-1.36-.29-2.73-.45-4.07-4.63-41.42-8.47-75.15-8.47-75.15l29.85-2.85Z"/><path class="cls-22" d="M1650.77,1500.72l-49.87-89.56c-2.7-24.75-5.83-52.92-8.7-78.54-.15-1.36-.29-2.73-.45-4.07-4.63-41.42-8.47-75.15-8.47-75.15l29.85-2.85,50.64,1Z"/><path class="cls-23" d="M1588.8,1253.62s27.9,137.92,50.64,204.49,23,85.06,23,85.06,20.86,4.53,30-.72c0,0,5.25-126.2-8.51-159.71-9.1-22.17-16.06-69.35-13.69-86.34s4.57-51.08,4.57-51.08Z"/><path class="cls-8" d="M1678.55,1241.74c-1.56,8.44-5.31,15.16-11.09,19.26-6.59,4.66-17,6.35-28.43,6.17a155.44,155.44,0,0,1-40-6.51,93.15,93.15,0,0,1-15.82-6.09c-17.68-9.21-15.17-21.48-14.75-67.39.43-46.85,29.27-107.41,34.47-117.55,9.24-18.05,48.46-12.12,48.46-12.12,8.6,7.89,16.13,19.34,21.26,37.64,2.07,7.41,3.29,17.78,4,29.42,2.12,35.56-.62,83,1.46,94.07A63.74,63.74,0,0,1,1678.55,1241.74Z"/><path class="cls-16" d="M1646.28,1039.62s6.41,15.19,5.12,17.89c0,0-35.24,3.33-49.58,13.54,0,0,4.72-14.75,10.45-18.41S1646.28,1039.62,1646.28,1039.62Z"/><path class="cls-16" d="M1678.55,1241.74c-73-27.78-31.31-130.48-31.31-130.48,10.21.72,20.22,5.68,29.4,13.31,2.12,35.56-.62,83,1.46,94.07A63.74,63.74,0,0,1,1678.55,1241.74Z"/><path class="cls-8" d="M1645.19,1064.35s62.55,41.91,89.71,74.08c0,0-1.65,12.82-10.42,17.93s-85.08-24.6-96.52-46.88S1631.56,1062.36,1645.19,1064.35Z"/><path class="cls-20" d="M1653.89,1199.77s-4,6.93-7.85,5.3-11.61-3.36-17.39.36-14.47,13.75-9,16.2,15.77-4.05,18.22-5.14,6.71,1.09,11.42-1.27a47.7,47.7,0,0,0,9.62-7.07Z"/><path class="cls-8" d="M1647.61,1201.64l51.32-70.18,36,7s-4.8,23.7-30.88,45.16c-26.88,22.12-41.71,26.51-41.71,26.51S1644.49,1213.17,1647.61,1201.64Z"/><g id="man"><path class="cls-20" d="M2012.62,1109.55c2.44,6.58,6.69,14.23,11.14,16.13a17.14,17.14,0,0,1,7.16,5.2l4.08-2.37,4.87-2.83s-.11-.54-.35-1.43-.6-2.09-1.1-3.45a4.7,4.7,0,0,1-.57-4.33,10.09,10.09,0,0,0-.83-8.41c-1.57-2.27-3.07-7.87-4-7.7-2.27.39,1.12,8.08.15,9.51a1.69,1.69,0,0,1-2.19.75l0,0c-6.39-2.81-14.14-17.95-17.57-15.91C2012.07,1095.45,2011.57,1106.74,2012.62,1109.55Z"/><path class="cls-23" d="M2034.72,1118.72l-8,5.62a1.26,1.26,0,0,1-1.75-.3l-20.51-29.18a1.26,1.26,0,0,1,.3-1.75l8-5.63a1.25,1.25,0,0,1,1.75.31L2035,1117A1.26,1.26,0,0,1,2034.72,1118.72Z"/><path class="cls-22" d="M2027.39,1123.87l-4.69,3.3a1,1,0,0,1-1.33-.23l-20.86-29.68a1,1,0,0,1,.24-1.33l4.69-3.3a1,1,0,0,1,1.33.23l20.86,29.68A1,1,0,0,1,2027.39,1123.87Z"/><path class="cls-22" d="M2149.58,1076.84s-40.74,71.06-55.52,84.13l-54.19-40.4a19.79,19.79,0,0,0-11.31,10.31s32.91,67,65.31,69.88,77.88-80.36,77.88-80.36Z"/><path class="cls-22" d="M2241.77,1560.12h23.54c3-1.61,5.6-5.29,6.44-10.78,1.15-7.59,9.65-11.72,11.48-17.92s-7.58-14.93-7.58-14.93l-1.57-2-1.64-2.11-15.63,3.68s-.38,3.72-.62,8.46c-.17,3.42-.26,7.37-.07,10.84.46,8.26-2.31,17.17-9.66,18.78C2241,1555.3,2241.27,1558.52,2241.77,1560.12Z"/><path class="cls-22" d="M2105.17,1560.12H2159c2.59-3.16,1.64-14.81,1.25-18.62-.08-.77-.14-1.21-.14-1.21s-18.38-14.71-20.91-3.45c-.07.35-.17.7-.27,1-3.18,10.53-17.45,15.32-25.69,16.65C2107.88,1555.4,2105.9,1558.18,2105.17,1560.12Z"/><path class="cls-24" d="M2115.42,1259.65s2.79,34.83,6.07,76.69c4.46,56.86,9.82,126.71,10.35,139.94.92,23,4.6,59.73,4.6,59.73s8.73,8.73,26.19,5c0,0,15.56-52.46,20-108,.07-.91.13-1.82.2-2.74,4.14-56.51,10.57-175.51,10.57-175.51Z"/><path class="cls-25" d="M2115.42,1259.65s2.79,34.83,6.07,76.69l61.15,96.74c.07-.91.13-1.82.2-2.74,4.14-56.51,10.57-175.51,10.57-175.51Z"/><path class="cls-24" d="M2128.17,1263.79s50.31,126.12,83.39,185.39S2255,1525,2255,1525s18.95-7.59,20.67-12.75c0,0-12.65-114.43-34.8-142.32-12.52-15.76-27.22-63.06-27.91-79.6s-4.48-49.28-4.48-49.28Z"/><path class="cls-20" d="M2140.69,1079.93c19.66,6.2,53.68-10.54,53.68-10.54s-18.13-13.6-17.18-41.89l-15.2,12.25-10.32,8.32a123.15,123.15,0,0,0,1.17,13.51c.29,2.26.66,4.78,1.13,7.53A47,47,0,0,0,2140.69,1079.93Z"/><path class="cls-21" d="M2151.67,1048.07a123.15,123.15,0,0,0,1.17,13.51c11.44-2,24.42-20.46,24.42-20.46a36.64,36.64,0,0,0-15.27-1.37Z"/><path class="cls-20" d="M2145.65,1047.61s32.48,5.39,35.52-14.88,9.3-33.23-11.31-37.54-25.8,2.83-28.47,9.35S2137.28,1045.68,2145.65,1047.61Z"/><path class="cls-23" d="M2113.25,1262.55a3.19,3.19,0,0,0,2.07.79c7.38-.1,28.91,4,47.13,2.13,15.35-1.47,28.94-6,43.54-12.57,1.94-.87,6.4-3.25,6.3-5.41-.06-2.38-.3-5.82-.6-10.15-1-15.07-2.83-41-1.07-70.88.31-5.56.48-11.09.5-16.52.15-40.52-7.89-76.16-24-88.22-1.38-1-9.85,3.15-17.63,7a32.18,32.18,0,0,1-21.16,2.57l-6.79,6c-8.27,7.68-17.33,18.11-21.27,34-3.35,13.49-5.31,37.81-6.4,63-.49,11.42-.88,22.94-1,33.87v.39c-.1,1.08-.1,2.27-.1,3.35C2112.36,1239.91,2112.76,1262.16,2113.25,1262.55Z"/><path class="cls-22" d="M2211.69,1237.34c-1-15.07-2.83-41-1.07-70.88.31-5.56.48-11.09.5-16.52-6.73-16.32-12.23-28.15-12.23-28.15h-16.95S2169.51,1206.68,2211.69,1237.34Z"/><path class="cls-20" d="M2243.55,1240.26s3.8,5.06,3.95,7.08c1,13.69-5.24,15.59,11,23.2,0,0,6.92,2.63,7-2.74s-4.8-5.45-3.9-13c1-8.67.93-8.76-4.76-13.29l-3.77-6.22Z"/><path class="cls-23" d="M2253.21,1244.13a55.7,55.7,0,0,1-12.73.71s-18.12-56-20.45-61.1-53.83-65.64-53.83-65.64l21.45-53.69s55.7,93,61.36,106.12c9.34,21.6,12.59,70,12.59,70A23.33,23.33,0,0,1,2253.21,1244.13Z"/><path class="cls-23" d="M2181.2,1030.78s-3.33-.56-2.79-5.15.53-10.59-3.2-9.47-3.92,4.1-5.46,2.36-1.56-9.1-12.66-9.61-15.62,3.35-20.78,1.08-5.44-10.08-5.44-10.08,1.47,2.79,3.69,3.68c0,0-8.62-11.79,1.36-19.87s20.14-2.79,25.91-2.44c12.72.77,20.94,1.54,25.09,9.89S2189.36,1022.73,2181.2,1030.78Z"/><path class="cls-20" d="M2249.54,1246.28s-3.66,3.81-3.89,5.4c-.74,5.09-2.44,7.29-1.59,7.84,1.77,1.15,4.12-2.62,5.24-6A15.43,15.43,0,0,0,2249.54,1246.28Z"/></g><path class="cls-26" d="M3080,1566.5V1568a3.51,3.51,0,0,1-3.44,3.57L859,1564.14l-680.16-2.28-38.09-.12a3.53,3.53,0,0,1-3.43-3.6v-1.48a3.53,3.53,0,0,1,3.44-3.58l38.07.13,2741.53,9.17,156.18.52A3.53,3.53,0,0,1,3080,1566.5Z"/></svg>