<svg id="Layer_1" data-name="Layer 1" xmlns="http://www.w3.org/2000/svg" viewBox="0 0 382.15 363.43"><defs><style>.cls-1{fill:#9a7c88;opacity:0.3;}.cls-2{fill:#23203a;}.cls-3{fill:#656c9a;}.cls-4{fill:#7d86b2;}.cls-5{fill:#ffad97;}.cls-6{fill:#ffc5b3;}.cls-7{fill:#bf9b90;}.cls-8{fill:#dfc4b7;}.cls-9{fill:#efd9d0;}.cls-10{fill:#ea6f53;}.cls-11{fill:#ceafa3;}.cls-12{fill:#34324c;}.cls-13{fill:#fff;}.cls-14{fill:#44435e;}.cls-15{fill:#4f4f68;}.cls-16{fill:#ff8f80;}.cls-17{fill:#bc9c91;}.cls-18{fill:#a6acc6;}.cls-19{fill:#bf9c91;}.cls-20{fill:#ad887f;}.cls-21{fill:#e05a44;}.cls-22{fill:#ce4638;}.cls-23{fill:#bc978b;}.cls-24{fill:#ff816c;}.cls-25{fill:#545470;}.cls-26{fill:#8c7988;}.cls-27{fill:#ce4132;}.cls-28{fill:#575770;}.cls-29{fill:#bf9e94;}.cls-30{fill:#d6543e;}.cls-31{fill:#7f0057;}</style></defs><path class="cls-1" d="M84.59,270.35c0,7.11-10.85,12.88-24.22,12.88s-24.22-5.77-24.22-12.88S47,257.47,60.37,257.47,84.59,263.23,84.59,270.35Z"/><path class="cls-1" d="M330.08,204.68c0,8.47-12.91,15.33-28.84,15.33s-28.83-6.86-28.83-15.33,12.91-15.34,28.83-15.34S330.08,196.21,330.08,204.68Z"/><ellipse class="cls-1" cx="278.52" cy="340.24" rx="17.2" ry="9.15"/><path class="cls-1" d="M374.37,175.82c0,6.68-10.18,12.09-22.73,12.09s-22.74-5.41-22.74-12.09,10.18-12.09,22.74-12.09S374.37,169.14,374.37,175.82Z"/><path class="cls-1" d="M196.57,59.08c0,6.68-10.18,12.1-22.73,12.1s-22.74-5.42-22.74-12.1S161.28,47,173.84,47,196.57,52.4,196.57,59.08Z"/><path class="cls-1" d="M219.28,36.48c0,6.68-10.18,12.09-22.74,12.09S173.8,43.16,173.8,36.48,184,24.39,196.54,24.39,219.28,29.8,219.28,36.48Z"/><polygon class="cls-1" points="115.15 101.69 61.11 132.78 32.57 116.33 86.66 85.35 115.15 101.69"/><path class="cls-1" d="M224.14,334.3a50.06,50.06,0,0,0-7.59.57c-.54-3-3.91-5.51-8.67-6.84l17.48-10-28.49-16.34-54.09,31,28.54,16.46,15.25-8.78c2.51,2.13,6.7,3.63,11.58,4a8.64,8.64,0,0,0-1.39,4.59c0,8.05,12.25,14.57,27.38,14.57s27.38-6.52,27.38-14.57S239.26,334.3,224.14,334.3Z"/><polygon class="cls-1" points="151.94 78.97 123.75 95.32 100.57 81.83 128.8 65.6 151.94 78.97"/><polygon class="cls-1" points="52.14 165.25 29.64 178.27 0 160.73 22.54 147.83 52.14 165.25"/><path class="cls-1" d="M375.05,247.81l-19,10.91a16.69,16.69,0,0,1-16.79-.11l-15.46-9.15a3.22,3.22,0,0,1,.05-5.57l27.39-15.59a4.78,4.78,0,0,1,4.77,0l19.12,11.26A4.75,4.75,0,0,1,375.05,247.81Z"/><path class="cls-1" d="M303.21,177.1c16-9.25,14-25.56-4.51-36.24l-21.59-13c-18.5-10.68-46.74-11.85-62.76-2.6L59.53,214.62c-16,9.25-14,25.56,4.51,36.24l14.75,8.62c18.5,10.68,53.58,16.25,69.6,7Z"/><path class="cls-1" d="M344.34,114.18c0,7.26-11.06,13.14-24.71,13.14s-24.7-5.88-24.7-13.14S306,101,319.63,101,344.34,106.92,344.34,114.18Z"/><path class="cls-2" d="M305.23,105.83s-1.35,1.48-3.16,3.24-2.2,2.11-3.75,3.63c-.91.88-.16,1.7,1.57,1.63a31.3,31.3,0,0,0,6.89-1.49,34.75,34.75,0,0,0,5.16-2.69,3.41,3.41,0,0,0,1.54-1.94v-2.73Z"/><path class="cls-2" d="M326.77,109.23s-.31,2.79-.5,6.3.3,6.61,1.37,7,4.13.34,5.87-4.53a19.47,19.47,0,0,0,.7-9.6Z"/><path class="cls-3" d="M330.79,60.46c.64-10-5.41-14.5-5.41-14.5.44-3.37-16.75-.14-16.75-.14s-1.79,19.6-3.2,29.14c-1.61,10.84-.91,30.19-.91,30.19s.21,2.36,4.24,2.34a13.71,13.71,0,0,0,5.49-1.55,2.1,2.1,0,0,0,1.16-2.58c-.43-1.15.62-2.14,0-4.16a22.31,22.31,0,0,1-1.16-6,74.39,74.39,0,0,1,.49-10.82l3.59-17.81s2,16.18,2.89,21.42c.82,5,1.18,8.4,2.19,12.68.42,1.83,1.5,2.37,1.91,4.71.27,1.57-.27,2.75-.36,5.55-.08,2.31,5.66,3.18,9.25,1.38s3.67-2.9,2.88-3.8-1.11-.55-.64-5-2.14-11.18-4.88-17.35C331.19,76.23,330.49,65.05,330.79,60.46Z"/><path class="cls-3" d="M304.85,45.56c1.88-3.12,3.43-5.73,3.43-5.73.45-.54.2-1.67.65-2.28,1.73-2,2.25-11.21,2.25-11.21l3.18-9.69s-3.56-2.56-6.69,2.5C304.69,24,301,38,301,38S303.46,46.08,304.85,45.56Z"/><path class="cls-4" d="M305.66,58.48c1.1,1.85,3.42,3.24,5.77,4.09a21.19,21.19,0,0,0,2.36-4.37A45.36,45.36,0,0,0,315.31,64a29.35,29.35,0,0,0,16.4-2.54c.57-4.13-1.4-15-1.52-17.07-.42-6.89.94-17.66.7-19.47-.4-3-7.27-6.3-7.27-6.3s-4.86-3.77-9.91-1.79c0,0-5.39,4.36-6,10.51-.31,3.06,0,12.39,0,19.14C307.66,47.39,305.79,57.08,305.66,58.48Z"/><path class="cls-3" d="M317.36,22.55s-2.06,3.08-1.95,4.62.22,10.19,0,13.09c-.12,1.55-.9,6.52-1,10.87a34.6,34.6,0,0,1-.65,7.07s-.26-3.62-.31-5.45.68-9.66.88-11.78.11-12.55,0-13.8,1.7-4.85,1.7-4.85Z"/><path class="cls-5" d="M315.64,16.68l-.26,3.77a4.35,4.35,0,0,0,.76,2.87c1.72-.53,7.09-3.83,7.09-3.83l-1.33-7.36Z"/><path class="cls-6" d="M322.64,4a6.24,6.24,0,0,0-10.25.76c-3.51,5.18-.2,13.66,2.87,13.17,1.72-.28,5.59-1.85,7.28-4.62C324.45,10.23,324,5.8,322.64,4Z"/><path class="cls-2" d="M311.07,6.52a5.2,5.2,0,0,0,4.68,2.62,11.52,11.52,0,0,0,4.18-.57l-.2,3.12a2.62,2.62,0,0,0,.86-.12c.31-1.19.82-1.46,1.39-1s.56,2.73.56,2.73A8,8,0,0,0,325,7.63c0-2.22-2-7-6-7.55s-7,1.62-8,3.8A2.87,2.87,0,0,0,311.07,6.52Z"/><path class="cls-6" d="M318.6,48.9a10.87,10.87,0,0,0-1.39,1.24,5.13,5.13,0,0,1-4,.93c-.85-.38-2.76-3.46-2.81-4.21s-.14-1.34,1.17-1.46c0-1.69,5.43-1,5.43-1S318.39,44.68,318.6,48.9Z"/><polygon class="cls-7" points="304.43 48.73 314.78 54.79 306 39.9 295.64 33.84 304.43 48.73"/><polygon class="cls-8" points="314.78 54.79 315.74 54.2 306.96 39.31 306 39.9 314.78 54.79"/><polygon class="cls-9" points="295.64 33.84 296.6 33.25 306.96 39.31 306 39.9 295.64 33.84"/><path class="cls-10" d="M311.41,45.42l1.83-7a.51.51,0,0,1,.63-.36.51.51,0,0,1,.36.62l-1.79,6.86A8.61,8.61,0,0,0,311.41,45.42Z"/><path class="cls-6" d="M299.7,40.52c1.95-.49,2.89,2.49,3.76,4.59.78,1.87-1.26,2.31-3.45.48S297.46,41.09,299.7,40.52Z"/><path class="cls-3" d="M336.13,36.23C334.62,29.38,333,23.72,328.92,22c-2.37-1-3.88,5.62-3.46,9.47.48,4.47,1.93,5.81,3.78,9a55.36,55.36,0,0,0-12.73,3.14c1.42,2,2.23,7,2.23,7s13.91-2.07,16.84-3.54C337.64,46,337.2,41.11,336.13,36.23Z"/><path class="cls-3" d="M322.65,16.29a5.22,5.22,0,0,1,1.74,1.44,12,12,0,0,1,1.07,1.91l-7,6.13-2.34-2.45Z"/><path class="cls-3" d="M315.41,18.71a18.32,18.32,0,0,0,.73,4.61l-2.67.7S312.83,20,315.41,18.71Z"/><polygon class="cls-11" points="105.89 65.19 123.49 75.31 123.49 92.33 105.89 82.24 105.89 65.19"/><polygon class="cls-8" points="146.89 62.01 123.49 75.31 123.49 92.33 146.89 79.06 146.89 62.01"/><polygon class="cls-12" points="125.83 79.2 144.16 68.78 144.16 77.31 125.83 87.71 125.83 79.2"/><polygon class="cls-13" points="127 84.4 143.08 75.26 143.08 76.64 127 85.76 127 84.4"/><polygon class="cls-2" points="105.89 65.27 118.37 72.33 123.49 75.31 123.49 77.94 105.89 67.92 105.89 65.27"/><polygon class="cls-12" points="146.89 62.09 123.49 75.38 123.49 77.94 146.89 64.67 146.89 62.09"/><polygon class="cls-14" points="146.89 62.09 134.03 54.81 111 68.11 123.49 75.38 146.89 62.09"/><polygon class="cls-12" points="140.64 56.98 117.24 70.27 117.24 71.82 140.64 58.55 140.64 56.98"/><polygon class="cls-12" points="137.69 63.1 127.74 68.87 127.74 70.42 137.69 64.68 137.69 63.1"/><polygon class="cls-15" points="140.64 56.98 128.91 50.33 105.89 63.63 117.24 70.28 123.73 66.59 127.74 68.91 137.74 63.11 133.82 60.86 140.64 56.98"/><path class="cls-11" d="M139.05,62.89c0,.44.68.81,1.52.81s1.52-.37,1.52-.81-.68-.81-1.52-.81S139.05,62.44,139.05,62.89Z"/><rect class="cls-11" x="139.05" y="62.51" width="3.03" height="0.38"/><path class="cls-8" d="M139.05,62.51c0,.45.68.81,1.52.81s1.52-.36,1.52-.81-.68-.8-1.52-.8S139.05,62.07,139.05,62.51Z"/><path class="cls-10" d="M139.35,62.44c0,.36.55.65,1.23.65s1.22-.29,1.22-.65-.55-.66-1.22-.66S139.35,62.07,139.35,62.44Z"/><polygon class="cls-10" points="141.8 62.44 141.52 59.97 139.63 59.97 139.35 62.44 141.8 62.44"/><path class="cls-16" d="M139.63,60c0,.27.42.5,1,.5s.94-.23.94-.5-.42-.5-.94-.5S139.63,59.69,139.63,60Z"/><path class="cls-11" d="M121.76,72.91c0,.44.68.81,1.51.81s1.52-.37,1.52-.81-.68-.81-1.52-.81S121.76,72.46,121.76,72.91Z"/><rect class="cls-11" x="121.76" y="72.53" width="3.03" height="0.38"/><path class="cls-8" d="M121.76,72.53c0,.45.68.81,1.51.81s1.52-.36,1.52-.81-.68-.8-1.52-.8S121.76,72.09,121.76,72.53Z"/><path class="cls-12" d="M122.05,72.45c0,.37.55.66,1.23.66s1.23-.29,1.23-.66-.55-.65-1.23-.65S122.05,72.09,122.05,72.45Z"/><polygon class="cls-12" points="124.51 72.45 124.22 69.99 122.33 69.99 122.05 72.45 124.51 72.45"/><path class="cls-15" d="M122.33,70c0,.27.43.5,1,.5s.94-.23.94-.5-.42-.51-.94-.51S122.33,69.71,122.33,70Z"/><polygon class="cls-2" points="117.24 70.27 117.24 72.25 105.89 65.53 105.89 63.63 117.24 70.27"/><polygon class="cls-2" points="123.73 66.59 123.73 68.14 127.74 70.42 127.74 68.91 123.73 66.59"/><polygon class="cls-13" points="128.01 67.94 136.21 63.17 132.99 61.32 124.79 66.08 128.01 67.94"/><polygon class="cls-16" points="108.48 64.22 113.34 61.39 112.39 60.86 107.53 63.69 108.48 64.22"/><polygon class="cls-16" points="110.39 65.31 115.24 62.49 114.29 61.96 109.43 64.79 110.39 65.31"/><polygon class="cls-12" points="111.75 67.04 134.75 53.66 133.79 53.1 110.79 66.48 111.75 67.04"/><path class="cls-11" d="M133,57.19c0,.52.78.94,1.75.94s1.76-.42,1.76-.94-.78-.93-1.76-.93S133,56.68,133,57.19Z"/><rect class="cls-11" x="132.99" y="56.44" width="3.51" height="0.75"/><path class="cls-9" d="M133,56.39c0,.51.78.93,1.75.93s1.76-.42,1.76-.93-.78-.94-1.76-.94S133,55.87,133,56.39Z"/><path class="cls-11" d="M134.74,55.78c-.74,0-1.35.3-1.43.69,0,0,0,0,0-.08,0-.43.65-.77,1.45-.77s1.45.34,1.45.77c0,0,0,0,0,.08C136.1,56.08,135.49,55.78,134.74,55.78Z"/><path class="cls-17" d="M134.74,57.16c-.74,0-1.35-.3-1.43-.69.08-.39.69-.69,1.43-.69s1.36.3,1.44.69C136.1,56.86,135.49,57.16,134.74,57.16Z"/><path class="cls-11" d="M128.94,59.53c0,.52.79.94,1.76.94s1.76-.42,1.76-.94-.79-.93-1.76-.93S128.94,59,128.94,59.53Z"/><rect class="cls-11" x="128.95" y="58.78" width="3.51" height="0.75"/><path class="cls-9" d="M128.94,58.73c0,.52.79.93,1.76.93s1.76-.41,1.76-.93-.79-.94-1.76-.94S128.94,58.21,128.94,58.73Z"/><path class="cls-11" d="M130.7,58.12c-.75,0-1.35.3-1.43.69a.24.24,0,0,1,0-.08c0-.43.65-.77,1.45-.77s1.45.34,1.45.77c0,0,0,.05,0,.08C132.06,58.42,131.45,58.12,130.7,58.12Z"/><path class="cls-17" d="M130.7,59.5c-.75,0-1.35-.3-1.43-.69.08-.39.68-.69,1.43-.69s1.36.3,1.44.69C132.06,59.2,131.45,59.5,130.7,59.5Z"/><path class="cls-11" d="M124.75,62c0,.52.79.94,1.76.94s1.76-.42,1.76-.94-.79-.94-1.76-.94S124.75,61.47,124.75,62Z"/><rect class="cls-11" x="124.75" y="61.24" width="3.51" height="0.75"/><ellipse class="cls-9" cx="126.51" cy="61.18" rx="1.76" ry="0.94"/><path class="cls-11" d="M126.51,60.58c-.75,0-1.36.3-1.44.69,0,0,0-.06,0-.09,0-.42.65-.77,1.45-.77s1.45.35,1.45.77a.29.29,0,0,1,0,.09C127.86,60.88,127.25,60.58,126.51,60.58Z"/><path class="cls-17" d="M126.51,62c-.75,0-1.36-.31-1.44-.69.08-.39.69-.69,1.44-.69s1.35.3,1.43.69C127.86,61.65,127.25,62,126.51,62Z"/><path class="cls-11" d="M120.71,64.33c0,.52.78.94,1.75.94s1.76-.42,1.76-.94-.78-.94-1.76-.94S120.71,63.81,120.71,64.33Z"/><rect class="cls-11" x="120.71" y="63.58" width="3.51" height="0.75"/><path class="cls-9" d="M120.71,63.52c0,.52.78.94,1.75.94s1.76-.42,1.76-.94-.78-.93-1.76-.93S120.71,63,120.71,63.52Z"/><path class="cls-11" d="M122.46,62.92c-.74,0-1.35.3-1.43.69a.29.29,0,0,1,0-.09c0-.42.65-.77,1.45-.77s1.45.35,1.45.77c0,0,0,.06,0,.09C123.82,63.22,123.21,62.92,122.46,62.92Z"/><path class="cls-17" d="M122.46,64.3c-.74,0-1.35-.31-1.43-.69.08-.39.69-.69,1.43-.69s1.36.3,1.44.69C123.82,64,123.21,64.3,122.46,64.3Z"/><path class="cls-11" d="M116.23,66.84c0,.51.78.93,1.76.93s1.75-.42,1.75-.93S119,65.9,118,65.9,116.23,66.32,116.23,66.84Z"/><rect class="cls-11" x="116.23" y="66.08" width="3.51" height="0.75"/><path class="cls-9" d="M116.23,66c0,.52.78.94,1.76.94s1.75-.42,1.75-.94S119,65.1,118,65.1,116.23,65.51,116.23,66Z"/><path class="cls-11" d="M118,65.42c-.75,0-1.36.31-1.44.69,0,0,0,0,0-.08,0-.42.64-.77,1.45-.77s1.45.35,1.45.77a.19.19,0,0,1,0,.08C119.34,65.73,118.73,65.42,118,65.42Z"/><path class="cls-17" d="M118,66.8c-.75,0-1.36-.3-1.44-.69.08-.38.69-.69,1.44-.69s1.35.31,1.43.69C119.34,66.5,118.73,66.8,118,66.8Z"/><path class="cls-12" d="M101.57,45.67l5.65-3.27a1.65,1.65,0,0,0,1-1.33c0-.65-.54-1.34-1.49-1.89l-9-5.21A8,8,0,0,0,93.81,33a5.84,5.84,0,0,0-2.88.65l-2.74,1.58-1.14-.69,3.3-1.9c2-1.18,5.58-1,7.91.3l9,5.21a3.57,3.57,0,0,1,2.08,2.9,2.75,2.75,0,0,1-1.56,2.34l-5.32,3.08Z"/><path class="cls-2" d="M58.81,122.46a6.28,6.28,0,0,0,2.62,5c1.44.83,2.61-.06,2.61-2a6.28,6.28,0,0,0-2.61-5C60,119.65,58.81,120.53,58.81,122.46Z"/><polygon class="cls-2" points="57.82 121.47 59.84 120.28 63.13 127.6 61.03 128.81 57.82 121.47"/><path class="cls-12" d="M56.7,123.68a6.28,6.28,0,0,0,2.61,5c1.45.83,2.62-.05,2.62-2a6.26,6.26,0,0,0-2.62-5C57.87,120.87,56.7,121.75,56.7,123.68Z"/><path class="cls-13" d="M57.82,124.43A3.16,3.16,0,0,0,59.14,127c.73.42,1.32,0,1.32-1a3.16,3.16,0,0,0-1.32-2.52C58.41,123,57.82,123.46,57.82,124.43Z"/><path class="cls-11" d="M62.19,120.67V125a16.08,16.08,0,0,1-2.2.91c-1.18.39-1.66-.69-1.29-2.14a44,44,0,0,1,1.44-4.26Z"/><polygon class="cls-8" points="62.19 120.67 64.32 119.47 64.32 123.77 62.19 124.98 62.19 120.67"/><polygon class="cls-9" points="63.85 119 62.19 119.95 60.53 118.98 60.15 119.49 62.19 120.67 64.32 119.47 63.85 119"/><path class="cls-2" d="M103.06,97a6.26,6.26,0,0,0,2.61,5c1.45.83,2.62,0,2.62-2a6.24,6.24,0,0,0-2.62-5C104.23,94.19,103.06,95.08,103.06,97Z"/><polygon class="cls-2" points="102.07 96.01 104.08 94.83 107.38 102.14 105.27 103.35 102.07 96.01"/><path class="cls-12" d="M100.94,98.22a6.25,6.25,0,0,0,2.62,5c1.44.83,2.61,0,2.61-2a6.26,6.26,0,0,0-2.61-5C102.11,95.41,100.94,96.3,100.94,98.22Z"/><path class="cls-13" d="M102.07,99a3.18,3.18,0,0,0,1.31,2.52c.73.42,1.32,0,1.32-1A3.14,3.14,0,0,0,103.38,98C102.66,97.56,102.07,98,102.07,99Z"/><path class="cls-11" d="M106.44,95.22v4.3a16.65,16.65,0,0,1-2.21.92c-1.18.39-1.66-.7-1.28-2.14A44.68,44.68,0,0,1,104.39,94Z"/><polygon class="cls-8" points="106.44 95.22 108.57 94.01 108.57 98.31 106.44 99.52 106.44 95.22"/><polygon class="cls-9" points="108.09 93.54 106.44 94.5 104.78 93.52 104.39 94.03 106.44 95.22 108.57 94.01 108.09 93.54"/><path class="cls-2" d="M38.78,110.72a6.27,6.27,0,0,0,2.62,5c1.44.84,2.62,0,2.62-2a6.27,6.27,0,0,0-2.62-5C40,107.91,38.78,108.8,38.78,110.72Z"/><polygon class="cls-2" points="37.8 109.73 39.81 108.55 43.1 115.86 41 117.08 37.8 109.73"/><path class="cls-12" d="M36.67,112a6.24,6.24,0,0,0,2.62,5c1.44.84,2.61,0,2.61-2a6.26,6.26,0,0,0-2.61-5C37.84,109.13,36.67,110,36.67,112Z"/><path class="cls-13" d="M37.79,112.7a3.14,3.14,0,0,0,1.32,2.51c.73.42,1.32,0,1.32-1a3.16,3.16,0,0,0-1.32-2.52C38.38,111.28,37.79,111.73,37.79,112.7Z"/><path class="cls-11" d="M42.16,108.94v4.31a17.69,17.69,0,0,1-2.2.91c-1.18.39-1.66-.69-1.28-2.14a44.68,44.68,0,0,1,1.44-4.27Z"/><polygon class="cls-8" points="42.16 108.94 44.3 107.73 44.3 112.03 42.16 113.25 42.16 108.94"/><polygon class="cls-9" points="43.82 107.26 42.16 108.22 40.51 107.24 40.12 107.75 42.16 108.94 44.3 107.73 43.82 107.26"/><polygon class="cls-3" points="40.61 54.56 62.73 67.32 62.73 120.19 40.61 107.47 40.61 54.56"/><polygon class="cls-4" points="107.8 41.34 62.73 67.32 62.73 120.19 107.8 94.28 107.8 41.34"/><polygon class="cls-13" points="63.79 68.18 106.79 43.5 106.79 48.63 63.79 73.24 63.79 68.18"/><polygon class="cls-3" points="62.73 75.21 107.8 49.23 107.8 50.59 62.73 76.51 62.73 75.21"/><polygon class="cls-12" points="76.92 61.81 96.25 50.66 96.25 52.4 76.92 63.52 76.92 61.81"/><polygon class="cls-13" points="63.79 77.49 106.79 52.81 106.79 57.93 63.79 82.55 63.79 77.49"/><polygon class="cls-3" points="62.73 84.52 107.8 58.53 107.8 59.9 62.73 85.82 62.73 84.52"/><polygon class="cls-12" points="76.92 71.12 96.25 59.97 96.25 61.71 76.92 72.82 76.92 71.12"/><polygon class="cls-13" points="63.79 86.69 106.79 62.01 106.79 67.14 63.79 91.75 63.79 86.69"/><polygon class="cls-3" points="62.73 93.72 107.8 67.74 107.8 69.1 62.73 95.02 62.73 93.72"/><polygon class="cls-12" points="76.92 80.32 96.25 69.18 96.25 70.91 76.92 82.03 76.92 80.32"/><polygon class="cls-13" points="63.79 96.1 106.79 71.42 106.79 80.08 63.79 104.69 63.79 96.1"/><polygon class="cls-12" points="76.92 89.73 96.25 78.59 96.25 80.32 76.92 91.44 76.92 89.73"/><polygon class="cls-3" points="62.73 107.36 107.8 81.38 107.8 82.75 62.73 108.67 62.73 107.36"/><polygon class="cls-13" points="63.79 109.62 106.79 84.94 106.79 93.59 63.79 118.21 63.79 109.62"/><polygon class="cls-12" points="76.92 103.25 96.25 92.1 96.25 93.84 76.92 104.95 76.92 103.25"/><polygon class="cls-18" points="107.8 41.34 62.73 67.32 40.61 54.56 85.71 28.67 107.8 41.34"/><polygon class="cls-8" points="62.73 120.2 108.57 93.8 108.57 95.17 62.73 121.58 62.73 120.2"/><polygon class="cls-9" points="62.73 119.34 107.8 93.36 108.57 93.8 62.73 120.23 62.73 119.34"/><polygon class="cls-11" points="62.73 120.2 39.84 107.02 39.84 108.39 62.73 121.58 62.73 120.2"/><polygon class="cls-8" points="41.74 58.53 61.08 69.67 61.08 71.92 41.74 60.78 41.74 58.53"/><polygon class="cls-9" points="62.73 119.34 40.61 106.58 39.84 107.02 62.73 120.23 62.73 119.34"/><path class="cls-12" d="M40.88,61.19,43,59.94,43.5,61l-2,1.2a1.65,1.65,0,0,0-1,1.33c0,.65.54,1.34,1.49,1.88l9,5.19a7.6,7.6,0,0,0,6.73.31l2-1.15.52,1-1.9,1.11a7,7,0,0,1-3.46.8,9.07,9.07,0,0,1-4.43-1.1l-9-5.19a3.55,3.55,0,0,1-2.07-2.89A2.71,2.71,0,0,1,40.88,61.19Z"/><path class="cls-12" d="M59.55,70a.92.92,0,0,0,.38.73c.21.12.38,0,.38-.29a.9.9,0,0,0-.38-.72C59.72,69.64,59.55,69.76,59.55,70Z"/><path class="cls-12" d="M42.89,60.24a.9.9,0,0,0,.38.72c.21.12.38,0,.38-.29a.9.9,0,0,0-.38-.72C43.06,59.83,42.89,60,42.89,60.24Z"/><path class="cls-19" d="M59.53,57.72a2.17,2.17,0,0,1,.24-.39,3.79,3.79,0,0,1,3.37-1.08,3.33,3.33,0,0,0,2.22-.4c1-.61,12.75-7.39,14.08-8.2l2.48,1.43c-2.13,1.21-14,8-14.09,8.12-.4.26-.3.68-.21,1a1.73,1.73,0,0,1-.86,2,3.87,3.87,0,0,1-3,.65.54.54,0,0,1,.09-.17l1-1.26c.2-.27-.48-.73-1.4-1-1.1-.34-1.63-.32-1.87-.12a10.72,10.72,0,0,0-1.25,1.31.76.76,0,0,1-.13.13V59Z"/><path class="cls-20" d="M59.53,57.72,60.19,59v.69A1.57,1.57,0,0,1,59.53,57.72Z"/><rect class="cls-20" x="59.37" y="57.71" width="0.88" height="0.67"/><path class="cls-19" d="M83.35,46.72a2,2,0,0,0-1.51-.82,3.77,3.77,0,0,0-1.79.51l2.93.52Z"/><path class="cls-19" d="M79.8,46.66a2.9,2.9,0,0,1,1.3-.34v.53h0l-.29.06v-.46l-.52.05v.69a.62.62,0,0,0-.15.22c.2,0,.34.11.35.19s-.14.16-.36.17a1,1,0,0,0,.28.38.65.65,0,0,1,.51,0c.11.07.1.19,0,.29a3,3,0,0,0,.61.15.26.26,0,0,1,.29-.22.37.37,0,0,1,.34.23,2.35,2.35,0,0,0,.4-.09c-.13-.1-.17-.21-.08-.27a.67.67,0,0,1,.51,0,.69.69,0,0,0,.17-.26c-.22,0-.39-.11-.4-.2s.16-.16.39-.17a.85.85,0,0,0-.27-.35v-.66a3,3,0,0,1,.36.18c1,.58,1.12,1.46.24,2a3.76,3.76,0,0,1-3.4-.14C79,48,78.93,47.16,79.8,46.66Z"/><path class="cls-19" d="M82.26,47a2.45,2.45,0,0,0-.55-.13v-.5a4.08,4.08,0,0,1,1,.23l-.21.26Z"/><path class="cls-20" d="M82.7,46.57l-.44-.07v.67a.13.13,0,0,0,.08.12.65.65,0,0,0,.51,0v-.69Z"/><path class="cls-20" d="M80.75,47.21a.61.61,0,0,1-.47,0v-.69l.52-.05v.7S80.78,47.19,80.75,47.21Z"/><path class="cls-20" d="M81.1,46.32v-.17h.61v.19A4.15,4.15,0,0,0,81.1,46.32Z"/><path class="cls-20" d="M81.43,47.05a.41.41,0,0,1-.33-.2v-.53a4.15,4.15,0,0,1,.61,0v.5A.26.26,0,0,1,81.43,47.05Z"/><rect class="cls-19" x="81.48" y="48.21" width="1.29" height="0.52"/><path class="cls-20" d="M80.48,46.92v.61s-.3,0-.38-.19A1.06,1.06,0,0,1,80,47Z"/><rect class="cls-19" x="83.4" y="47.21" width="0.65" height="0.63"/><polygon class="cls-20" points="80.99 47.54 80.99 47.85 80.78 47.74 80.99 47.54"/><rect class="cls-19" x="66.94" y="58" width="0.74" height="0.65"/><polygon class="cls-20" points="82.73 47.11 82.73 47.67 83.08 47.78 83.28 47.34 82.73 47.11"/><polygon class="cls-20" points="82.4 47.61 82.4 48.17 82.75 48.28 82.95 47.84 82.4 47.61"/><path class="cls-19" d="M63.77,60.13v.69a1.75,1.75,0,0,0,.92-.14,2,2,0,0,0,.45-.66Z"/><path class="cls-8" d="M65.36,55.16c1-.61,12.75-7.39,14.08-8.2l2.48,1.43c-2.13,1.2-14,8-14.09,8.11-.4.27-.3.68-.21,1a1.74,1.74,0,0,1-.86,2,3.91,3.91,0,0,1-3,.65.54.54,0,0,1,.09-.17,2.81,2.81,0,0,0,1.85-.25c1-.55,1.57-1.2,1.38-1.9-.23-.85-1.11-1.57-2.72-1.87-1.1-.21-2.8-.35-3.64.27-1.14.83-1.38,1.71-.41,2.67l-.13.13a1.55,1.55,0,0,1-.42-2.37c.79-1,2.18-1.14,3.37-1.08A3.39,3.39,0,0,0,65.36,55.16Z"/><path class="cls-9" d="M60.73,56.21c.84-.62,2.54-.48,3.64-.27,1.61.3,2.49,1,2.72,1.87.19.7-.4,1.35-1.38,1.9a2.81,2.81,0,0,1-1.85.25c.21-.27.72-.92,1-1.27s-.48-.73-1.4-1c-1.1-.33-1.63-.31-1.87-.12a11.44,11.44,0,0,0-1.25,1.32C59.35,57.92,59.59,57,60.73,56.21Z"/><path class="cls-9" d="M78.24,49a1.56,1.56,0,0,0-1.41,0l-9.55,5.62c-.36.21-.31.58.12.82h0a1.56,1.56,0,0,0,1.41,0l9.55-5.62c.35-.21.3-.58-.12-.82Z"/><path class="cls-8" d="M80.05,47.93c-1-.58-1.12-1.46-.25-2a3.81,3.81,0,0,1,3.41.14c1,.59,1.12,1.47.24,2A3.79,3.79,0,0,1,80.05,47.93Zm2.8-1.34a.65.65,0,0,1-.51,0c-.12-.07-.1-.19,0-.29a2.45,2.45,0,0,0-.66-.16.27.27,0,0,1-.28.21.46.46,0,0,1-.34-.21,1.76,1.76,0,0,0-.41.1c.13.1.16.21.07.27a.66.66,0,0,1-.47,0,.62.62,0,0,0-.15.22c.2,0,.34.11.35.19s-.14.15-.36.17a.87.87,0,0,0,.28.37.69.69,0,0,1,.51,0c.11.07.1.18,0,.28a2.49,2.49,0,0,0,.61.16.26.26,0,0,1,.29-.23.4.4,0,0,1,.34.24,2.35,2.35,0,0,0,.4-.09c-.13-.11-.17-.22-.08-.27a.67.67,0,0,1,.51,0,.69.69,0,0,0,.17-.26c-.22,0-.39-.11-.4-.2s.16-.16.39-.17A.85.85,0,0,0,82.85,46.59Z"/><polygon class="cls-20" points="81.92 48.39 81.92 49.08 67.83 57.2 67.83 56.51 81.92 48.39"/><path class="cls-11" d="M78.14,38.2c0,1.51,2.18,2.74,4.87,2.74s4.86-1.23,4.86-2.74S85.69,35.47,83,35.47,78.14,36.69,78.14,38.2Z"/><path class="cls-11" d="M87.35,39.43a4.33,4.33,0,0,0,1.34-2.92c0-1.31-5.17.4-5.17.4Z"/><path class="cls-11" d="M78.64,39.43a4.33,4.33,0,0,1-1.34-2.92c0-1.31,5.16.4,5.16.4Z"/><rect class="cls-8" x="77.3" y="16.21" width="11.41" height="20.01"/><path class="cls-8" d="M77.3,36.22c0,1.77,2.55,3.21,5.71,3.21s5.7-1.44,5.7-3.21S86.16,33,83,33,77.3,34.45,77.3,36.22Z"/><path class="cls-11" d="M77.3,16.21c0,1.77,2.55,3.21,5.71,3.21s5.7-1.44,5.7-3.21S86.16,13,83,13,77.3,14.44,77.3,16.21Z"/><path class="cls-12" d="M81.22,22.91a9.82,9.82,0,0,0,1.76.17c3.15,0,5.71-1.44,5.71-3.22v14C88.69,35.59,86.13,37,83,37a9.84,9.84,0,0,1-1.76-.16Z"/><path class="cls-11" d="M83.12,10.06l2.49-.18a22.68,22.68,0,0,1,3,5.64c.62,2.2-2.4,2.19-5.46,1.66Z"/><path class="cls-11" d="M83.78,10.06l-3.43-.18a23,23,0,0,0-3,5.64c-.62,2.2,3.34,2.19,6.4,1.66Z"/><path class="cls-8" d="M80.24,10.26c0,.85,1.22,1.54,2.73,1.54s2.73-.69,2.73-1.54S84.48,8.73,83,8.73,80.24,9.42,80.24,10.26Z"/><rect class="cls-8" x="80.24" y="8.13" width="5.46" height="2.13"/><path class="cls-9" d="M80.24,8.13c0,.85,1.22,1.54,2.73,1.54S85.7,9,85.7,8.13,84.48,6.59,83,6.59,80.24,7.28,80.24,8.13Z"/><path class="cls-11" d="M81.22,8c0,.54.77,1,1.72,1s1.72-.43,1.72-1-.77-1-1.72-1S81.22,7.46,81.22,8Z"/><rect class="cls-3" x="81.22" y="6.39" width="3.44" height="1.6"/><path class="cls-13" d="M82,24.27a8.92,8.92,0,0,0,1.58.15c2.83,0,5.13-1.29,5.13-2.88v.74c0,1.59-2.3,2.88-5.13,2.88A8.07,8.07,0,0,1,82,25Z"/><path class="cls-13" d="M86.45,27.13s2,3.4,0,4.61S86.45,27.13,86.45,27.13Z"/><path class="cls-12" d="M83.92,4.19V8.51a5.08,5.08,0,0,1-1,.1V4.19Z"/><path class="cls-12" d="M82.63,4.19v4.4a5.08,5.08,0,0,1-.82-.11V4.19Z"/><path class="cls-12" d="M85.05,4.19V8.07a3.08,3.08,0,0,1-.82.36V4.19Z"/><path class="cls-12" d="M81.49,4.19V8.38a2.85,2.85,0,0,1-.8-.4V4.19Z"/><path class="cls-12" d="M80.1,4.19h.28v3.5A1,1,0,0,1,80.1,7Z"/><path class="cls-12" d="M85.78,4.19V7a1.16,1.16,0,0,1-.41.82V4.19Z"/><path class="cls-2" d="M85.37,4.19V7.83a1.91,1.91,0,0,1-.32.24V4.19Z"/><path class="cls-2" d="M84.23,4.19V8.43l-.31.08V4.19Z"/><path class="cls-2" d="M82.94,4.19V8.61h0l-.31,0V4.19Z"/><path class="cls-2" d="M81.81,4.19V8.48l-.32-.1V4.19Z"/><path class="cls-2" d="M80.69,4.19V8a1.74,1.74,0,0,1-.31-.29V4.19Z"/><path class="cls-14" d="M80.1,4.19c0,.88,1.27,1.6,2.84,1.6s2.84-.72,2.84-1.6-1.27-1.6-2.84-1.6S80.1,3.31,80.1,4.19Z"/><path class="cls-12" d="M80.69,4.19c0,.69,1,1.24,2.21,1.24s2.2-.55,2.2-1.24S84.12,3,82.9,3,80.69,3.51,80.69,4.19Z"/><path class="cls-6" d="M288.16,236.37s3.28.15,6,7.45,2.5,8.07,2.13,10.43c-.56,3.52-3.81,8.31-6.25,11a30.54,30.54,0,0,1-4.84,4.28l-3.41-4.75Z"/><path class="cls-6" d="M282.81,335.88c-2-1-3.85-2.19-3.25-3.32a2,2,0,0,1,1.51-.83c1.81.6,2.72,1,2.72,1s.16-12.82-.59-22.86a85.67,85.67,0,0,0-2.2-13c-.25-1.44,8.09-3.25,8.09-3.25-2.17,1,1.57,7.5,1.87,14.69.38,9.24-1.24,20.28-1.5,23.31a15.78,15.78,0,0,0,.07,3.87l-2.15,1C286.39,336.87,284.78,336.87,282.81,335.88Z"/><path class="cls-2" d="M289.62,338.34c-.66,1.56-2.18,1.42-5.25.31a26.54,26.54,0,0,1-6.92-3.52c-1.93-1.43-1.95-1.62-2.21-2.59-.36-1.36,1.62-2.12,4.92-1.1l.91.29a2,2,0,0,0-1.51.83c-.6,1.13,1.27,2.33,3.25,3.32s3.58,1,4.57.54l2.15-1C289.73,336.78,290,337.39,289.62,338.34Z"/><path class="cls-6" d="M272,342.1c-2-1-3.84-2.19-3.24-3.31a2,2,0,0,1,1.5-.84c1.82.6,2.73,1,2.73,1s-1.42-35.58-2.2-39.95c-.26-1.44,8.69,0,8.69,0a33.1,33.1,0,0,0-.69,6.77c1,4,.8,8.45.22,14.87a127.13,127.13,0,0,0-.28,21c-.47.2-1.44.62-2.16.95C275.56,343.09,273.94,343.09,272,342.1Z"/><path class="cls-2" d="M278.78,344.56c-.66,1.57-2.18,1.42-5.25.31a26.63,26.63,0,0,1-6.91-3.52c-1.94-1.43-2-1.62-2.21-2.59-.36-1.36,1.62-2.12,4.92-1.1l.9.29a2,2,0,0,0-1.5.84c-.6,1.12,1.27,2.33,3.24,3.31s3.59,1,4.57.54c.72-.33,1.69-.75,2.16-.95C278.9,343,279.18,343.61,278.78,344.56Z"/><path class="cls-6" d="M279.52,218c-.76.53-3.6,1.18-4.4,7.44-.7,5.54.52,7,1.65,7.46a12.82,12.82,0,0,0,2.83.25l-.08,4.68a7.92,7.92,0,0,0,5.38,0l2.63-1.08a9.25,9.25,0,0,1-.85-4.85c.21-3.81,1.56-9.23.6-11.24A5.43,5.43,0,0,0,279.52,218Z"/><path class="cls-10" d="M271.9,267.8c1-4.37,1.25-13.69,1.25-13.69s-2.13-6.48-.1-10.54,4.2-5,6.14-5.71,8.29-2.41,8.29-2.41,5.3,6.5,3.92,12.58c-2.3,10.13-6,11.89-5.31,16.66,0,0,4.14,8.47,4.72,10.86.75,3.1,2.84,24.76,2.84,24.76s-8.1,6.29-14.89,5.47c-5.55-.67-10.15-5.47-10.15-5.47S270.94,272.18,271.9,267.8Z"/><path class="cls-6" d="M275.53,241.59c-1.17.12-2.92,2.2-4.21,6.74-1.22,4.29-1.29,12-2,15.17-.5,1.44-2.79,12.19-3.41,15.9a16.2,16.2,0,0,0-2.13,8c-.1,5.61,2.5,6,3.91,4.28,1.16-1.4,1.68-7.75,1.83-10a41.36,41.36,0,0,1,3.16-8.38,37.86,37.86,0,0,0,2.92-7c1.06-5,3-14.6,3.14-18.09C278.91,244.45,277.19,241.44,275.53,241.59Z"/><path class="cls-6" d="M276.77,226.38s1.64-2.82,2.35,0a2.85,2.85,0,0,1-1.63,3.49Z"/><path class="cls-2" d="M278.76,215.84c1.65-.76,3.63-2.72,7.29-.3s5.83,8.26,5.58,10.93-2.33,5.74,1.6,7.92,4.42,3.44,3.31,6.51-2.79,4.45-.51,6c3.14,2.1,2.94,6.08,1.75,7.4-2.11,2.35-3.69,1.72-3.43,3.3.46,2.74,2.4,5.7-.91,7.13-3.52,1.52-5.38-.7-5.38-.7s3.57.23,3.57-2.48-2-.79-6.88-1.25c-5.51-.51-5.53-3.09-5.77-7.57s-6.46-4.92-4.06-8.27,5.36-4.3,1.85-5.44c-1.85-.59-2-4.57-1.38-6.07,1-2.32,4.22-3.38,2-5.42-1.23-1.12-4.87-2-3.45-8.09C274.29,217.77,276.85,216.72,278.76,215.84Z"/><path class="cls-21" d="M293.52,299s1.36,5.05,1.16,6.84-1.65,1.28-3.72,2.43.52,3.93-2.8,3.93c-2.35,0,.08,4-4.66,2.94-4-.93-1,1.93-2.69,2.71a11.64,11.64,0,0,1-5.61.87c-2.87-.16-2.15,2.45-5.58,1.92-1.2-.19-3.14-2.11-3.52-3.51S269.78,287,269.78,287s1.47,11.54,9.67,12A111.34,111.34,0,0,0,293.52,299Z"/><path class="cls-8" d="M293.41,297.93l.3,3a19.59,19.59,0,0,1-14.73.87,16.52,16.52,0,0,1-10.15-9.8l1.06-5.65s3.54,8.73,11.24,11.08C288.27,299.64,293.41,297.93,293.41,297.93Z"/><path class="cls-22" d="M178,224.07l-26.47-15.5s4.64-9,16-5.87,17.75,7.08,17.75,7.08Z"/><path class="cls-2" d="M167.36,220c0,10.57-6.45,22.84-14.38,27.4s-14.34-.29-14.33-10.86,6.44-22.83,14.37-27.4S167.37,209.43,167.36,220Z"/><polygon class="cls-2" points="144.03 248.36 153.32 253.74 170.74 213.31 161.08 207.79 144.03 248.36"/><path class="cls-12" d="M176.67,225.38c0,10.57-6.45,22.83-14.38,27.4S148,252.49,148,241.92s6.44-22.83,14.37-27.4S176.68,214.82,176.67,225.38Z"/><path class="cls-13" d="M172.63,227.71c0,7.59-4.63,16.41-10.33,19.69S152,247.19,152,239.6s4.64-16.42,10.34-19.7S172.64,220.11,172.63,227.71Z"/><path class="cls-12" d="M168.11,230.61c0,3.88-2.37,8.39-5.28,10.06s-5.26-.1-5.26-4,2.37-8.39,5.28-10.06S168.11,226.73,168.11,230.61Z"/><path class="cls-23" d="M167.23,231.12c0,3.23-2,7-4.4,8.38s-4.38-.09-4.38-3.32,2-7,4.4-8.38S167.23,227.89,167.23,231.12Z"/><path class="cls-22" d="M287.92,160.62l-26.47-15.5s4.63-9,15.95-5.87,17.75,7.08,17.75,7.08Z"/><path class="cls-24" d="M309.9,105.2S278.16,79.55,253,73.89c-10.47-2.35-21.74,2.84-30.47,3.58l-9.39,9.14,67.57,41.54,27.67-14.74C311,111.91,312.47,106.71,309.9,105.2Z"/><path class="cls-4" d="M97.62,154.56c3,3.63,9,9.16,20.84,17.49,28.66,20.12,49,18.62,49,18.62l15.88-27.94c-16.6-7.68-41.6-18.73-52.23-20.74S106.37,148.31,97.62,154.56Z"/><path class="cls-18" d="M121.88,116.65l-26.6,31.46s-1.87,1.32,2.34,6.45c8.75-6.25,22.84-14.59,33.48-12.57s35.63,13.06,52.23,20.74l4.35-7.65Z"/><path class="cls-16" d="M121.88,116.65s2.9,4.24,20.27,16.31c16.18,11.25,45.53,22.12,45.53,22.12s21-15.89,37.63-25.13S271,108.57,271,108.57l-48.48-31.1s-12.81-12.6-34.77-1.14c-8.24,4.3-23.14,13.46-44.05,26.17C135.9,107.25,128.08,112.42,121.88,116.65Z"/><path class="cls-10" d="M123.92,120.19s14.56-8.87,35.3-20.68S207,72.12,207,72.12l2.52.79s-11.21,6.73-21.74,12.54c-8.54,4.72-62.83,36.48-62.83,36.48Z"/><path class="cls-10" d="M175.4,150.22s14.55-8.87,35.29-20.69,47.75-27.39,47.75-27.39l2.51.79s-11.21,6.74-21.73,12.55C230.68,120.2,176.38,152,176.38,152Z"/><path class="cls-16" d="M264.24,105.15l14,2.44,14.14,7.77s-27.61-3.61-30.39-4.76S264.24,105.15,264.24,105.15Z"/><path class="cls-2" d="M277.32,156.54c0,10.57-6.45,22.84-14.37,27.4s-14.35-.29-14.34-10.86,6.45-22.83,14.37-27.4S277.33,146,277.32,156.54Z"/><polygon class="cls-2" points="253.99 184.91 263.28 190.29 280.71 149.86 271.05 144.34 253.99 184.91"/><path class="cls-12" d="M286.63,161.93c0,10.57-6.44,22.83-14.37,27.4s-14.35-.29-14.34-10.86,6.45-22.83,14.38-27.4S286.64,151.37,286.63,161.93Z"/><path class="cls-13" d="M282.6,164.26c0,7.59-4.64,16.41-10.34,19.69s-10.31-.21-10.3-7.8,4.63-16.42,10.33-19.7S282.6,156.66,282.6,164.26Z"/><path class="cls-12" d="M278.07,167.16c0,3.88-2.36,8.39-5.27,10.06s-5.27-.1-5.27-4,2.37-8.39,5.28-10.06S278.08,163.29,278.07,167.16Z"/><path class="cls-23" d="M277.2,167.67c0,3.23-2,7-4.4,8.38s-4.39-.09-4.39-3.32,2-7,4.4-8.38S277.2,164.44,277.2,167.67Z"/><path class="cls-10" d="M309.9,105.2c-6.26,1.14-11.93,10.28-23.22,8.19-3.15-.58-12.8-4.25-20.72-3.69-8.44.6-13.11,3.74-20.7,8.23-6,3.57-27.45,15.67-43.84,26.21-9.18,5.91-15.53,9.41-17.92,13.37-1.66,2.75-7.5,16.4-13.2,27.05a27.53,27.53,0,0,1-4.23,5.85l-104-19.23s-5.85,6.06-9.61,17c-1.43,4.15-5.77,14.58-3.73,24,1.86,8.57,7.91,17.52,18.92,23.9,38,22,59.47,17,75.29,8.15.06-14,8.59-30.23,19.09-36.28s19,.35,19,14.27l73.78-42.59c.46-3.69,2.44-15.61,4.48-19.1,4.09-7,14.41-16.7,19-16.25,14.65,1.45,8.59,16.84,11.13,15.38L295,156.5c11.51-6.62,17.36-19.77,19.25-28.07C315.31,123.85,315,108.55,309.9,105.2Z"/><path class="cls-24" d="M291.12,156.3c-.06-15.52-9.53-22.65-21.23-15.91-5.13,3-9.84,8.09-13.52,14.25-2,1.21-4,2.49-6.13,3.85-11.08,7.12-58.82,34.37-76.43,44.39-3.7-2-8.47-1.82-13.7,1.19-11.72,6.75-21.22,24.84-21.29,40.46.55-.3,1.09-.61,1.62-.92l2.35-1.36c0-.15,2.38-1.05,2.38-1.2,0-12.93,7.14-27.1,16.84-32.69a14.77,14.77,0,0,1,5.72-2l-.48.27,6.18,1.3c2.86,2.34,4.48,7.08,4.47,13.66,0,.14,0,.28,0,.41l3.45-2c0-5.59-1.28-10.07-3.41-13.22l47.33-26.45c6.5-3.63,25.29-12.26,25.29-12.26-1,2.39-1.63,6.66-2,12.8l1.63-.93,2.34-1.35c0-.16,2.38-1,2.38-1.21A42.1,42.1,0,0,1,258.07,162l.75-.42,6-8.7,8.05-7.63c1.3-.84-1.2.43-5.79,3a25.37,25.37,0,0,1,4.75-3.61c9.7-5.59,16.9.1,16.88,13,0,.13-1,.44-1,.58Z"/><path class="cls-21" d="M162,208c-10.5,6-19,22.28-19.09,36.28l1.46-.83,2.1-1.21c0-.14,0-.27,0-.4,0-11.6,7.07-25.06,15.77-30.07s15.75.33,15.74,11.92c0,.12,0,.24,0,.36l3.09-1.78C181,208.37,172.5,202,162,208Z"/><path class="cls-16" d="M228.8,81.42s9.88-6.65,21.3-4S274.27,89.1,274.27,89.1l-19.91,8Z"/><path class="cls-21" d="M272,144.57c-10.5,6.05-19,22.28-19.08,36.28.49-.27,1-.55,1.45-.83l2.1-1.21c0-.14,0-.27,0-.4,0-11.6,7.07-25.06,15.77-30.07s15.74.33,15.73,11.92c0,.12,0,.24,0,.36l3.09-1.78C291,144.92,282.46,138.53,272,144.57Z"/><path class="cls-12" d="M95.28,148.11s-13,9.22-31.13,21.34c-8.91,6-11.3,21.75,9.67,35.47,24.5,16,42.34,15.38,57.91,6.31,16.73-9.75,35.72-20.56,35.72-20.56s-12.87-.07-38.56-15.3A145.89,145.89,0,0,1,95.28,148.11Z"/><path class="cls-12" d="M178.89,188.77a2.43,2.43,0,0,1-3.45-3.06c4.31-10.12,12.49-28.5,16-30.78,4.57-3,20.46-12.44,39.84-23.93,14.34-8.49,27-15.88,33-14.21,2.33.65,8.69,5,13.33,8.3a4.23,4.23,0,0,1-.36,7.12Z"/><path class="cls-14" d="M206.06,71.53s19.43,10.64,28.2,16.41c13,8.56,30.51,18.13,30.51,18.13l19.83,5.12c-5.39-3.28,0,0-10.44-5.87C259.29,97,243.06,86.63,240.41,85c-3.63-2.25-10.65-5.93-14.42-7.86C218.33,73.21,208.45,71.22,206.06,71.53Z"/><path class="cls-13" d="M97.86,230.2c2.08-4,5.75-6.95,10.2-6.44,3.37.4,3.82-.14,9.31-.68a38.07,38.07,0,0,0,14.68-5c3.86-2.29,4.2,1.64,3.78,3.13a17.31,17.31,0,0,1-11.66,11.56C110.75,237.15,97.86,230.2,97.86,230.2Z"/><path class="cls-12" d="M91.86,216.68c3.63.77,7.35,1.66,9.81,2.2l.64-.73S85,214.26,73.05,206A42.61,42.61,0,0,1,61.54,194.5l-.42,1.55a48.18,48.18,0,0,0,4.39,6.43C70.36,208.59,85.88,215.42,91.86,216.68Z"/><path class="cls-12" d="M90.75,219.88c2.89.61,6,1.32,8.4,1.87l1.46-1.66c-2.68-.56-6.29-1.37-9.75-2.27-6.64-1.74-16.16-6.79-22.42-11a24.49,24.49,0,0,1-7.75-9.2L60,200a40.1,40.1,0,0,0,4.36,5.66C69.63,211.46,84.77,218.61,90.75,219.88Z"/><path class="cls-12" d="M66,213.7a23.65,23.65,0,0,1-7.2-8.13,8.31,8.31,0,0,0,2.75,6.28,53.25,53.25,0,0,0,10.1,7.2A150,150,0,0,0,88.42,227a7.11,7.11,0,0,0,6.39-.7c-2-.45-4.23-1-6.39-1.54C81.79,223,72.26,217.94,66,213.7Z"/><path class="cls-12" d="M67.33,210a29.07,29.07,0,0,1-7.75-8.31l-.48,1.74c0,.08,0,.16-.05.24a56.21,56.21,0,0,0,4,5.73c4.85,6.11,20.37,12.94,26.34,14.2,2.26.48,4.67,1,6.78,1.49a.81.81,0,0,0,.1-.09l1.77-2c-2.47-.53-5.45-1.21-8.32-2C83.11,219.28,73.59,214.22,67.33,210Z"/><path class="cls-14" d="M63.08,209.39a56.21,56.21,0,0,1-4-5.73,8.84,8.84,0,0,0-.24,1.91A23.65,23.65,0,0,0,66,213.7c6.25,4.24,15.78,9.29,22.41,11,2.16.56,4.37,1.09,6.39,1.54a7.43,7.43,0,0,0,1.39-1.19c-2.11-.47-4.52-1-6.78-1.49C83.45,222.33,67.93,215.5,63.08,209.39Z"/><path class="cls-14" d="M90.75,219.88c-6-1.27-21.12-8.42-26.35-14.21A40.1,40.1,0,0,1,60,200l-.46,1.67A29.07,29.07,0,0,0,67.33,210c6.26,4.23,15.78,9.29,22.42,11,2.87.76,5.85,1.44,8.32,2l1.08-1.23C96.73,221.2,93.64,220.49,90.75,219.88Z"/><path class="cls-14" d="M68.44,206.8c6.26,4.23,15.78,9.28,22.42,11,3.46.9,7.07,1.71,9.75,2.27l1.06-1.21c-2.46-.54-6.18-1.43-9.81-2.2-6-1.26-21.5-8.09-26.35-14.2a48.18,48.18,0,0,1-4.39-6.43l-.43,1.55A24.49,24.49,0,0,0,68.44,206.8Z"/><path class="cls-13" d="M56.21,179.26s-.43,5.42-.44,11.32c0,4.4-1.88,10.4-1.88,10.4s-2.2-8.32-1.89-11.32A21.36,21.36,0,0,1,56.21,179.26Z"/><path class="cls-12" d="M56.17,222.55s0-10.85,6.79-6.15A116.61,116.61,0,0,0,78.86,226c5,2.37,8.64,4.09,10.06,6.71s1.5,9.65,1.5,9.65-4.77-.25-21-9.41C57.28,226.11,56.17,222.55,56.17,222.55Z"/><path class="cls-13" d="M61.25,218.07v6.49s5,3.53,9,6.13c2.61,1.7,12.59,6.27,12.59,6.27v-6.25s-7.08-3.2-12.6-6.39A66.76,66.76,0,0,1,61.25,218.07Z"/><path class="cls-21" d="M48.2,208.15s-.93,9.37,3.73,16.16,16.48,18.93,37.46,24.95c23.49,6.74,38.48,4.6,47.17.7s9.69-3.62,9.92-7.7-3.56-1.3-3.56-1.3-3.82,6.44-22,7.55c-9.66.59-22.1-1.17-32.47-4.26-9.2-2.74-18.26-8.35-27.16-14.84C48.7,220.27,48.2,208.15,48.2,208.15Z"/><path class="cls-12" d="M103.62,239.09a1.34,1.34,0,0,0-1.13,2,12.58,12.58,0,0,0,2.34,3.18c3,2.78,16.74,3,18.28,1.55s.51-5.9-3.15-5.78C114.9,240.21,108,239,103.62,239.09Z"/><path class="cls-12" d="M49.09,199.11s1,4.69,1.71,6.52-2.6,2.52-2.6,2.52A47.19,47.19,0,0,1,49.09,199.11Z"/><path class="cls-13" d="M78.39,215.42c-.4,1.28-2.78,1.38-5.31.22s-4.24-3.12-3.83-4.4,2.79-1.37,5.31-.22S78.8,214.15,78.39,215.42Z"/><path class="cls-12" d="M92.61,150s1.64,3.78,10.72,10.9c8.78,6.88,27.87,20.37,40.4,25.39s20.56,8.17,23.72,4.39,19.17-36.21,19.17-36.21l-1.83-.75s-17,33.17-19.14,35-18-4.19-46.14-22.54c-10.69-7-24.23-18-24.23-18Z"/><path class="cls-12" d="M121.88,116.65l-1.26,1.49A144.46,144.46,0,0,0,143,135.05c12.49,7.48,42.38,21.07,42.38,21.07l1.21-1.66s-27.79-11.75-42.73-21.67S121.88,116.65,121.88,116.65Z"/><polygon class="cls-21" points="255.22 175.22 179.65 218.81 179.65 223.06 180.76 222.41 256.16 178.93 255.22 175.22"/><path class="cls-4" d="M219.94,140.25l0,21.91-32.27,18.63s-.07-8.32,0-11.71a19.74,19.74,0,0,1,2-7.58,18.88,18.88,0,0,1,6.73-7.13C205.05,149.07,219.94,140.25,219.94,140.25Z"/><path class="cls-4" d="M224.16,138.3l0,22,34.06-20s0-8.36-.41-10.87l-1.57-8.82Z"/><path class="cls-4" d="M259.34,119.69s1.25,6.21,1.59,8.44.52,10.44.52,10.44,7.74-4.66,9.52-5.57,3.22-3.52-1.47-7A108.12,108.12,0,0,0,259.34,119.69Z"/><path class="cls-12" d="M313.06,112l-.44.29a4.48,4.48,0,0,0-2,3.76v5a71.42,71.42,0,0,1-.71,9l4.65-2.9a18.87,18.87,0,0,0,1.28-10.54A6.74,6.74,0,0,0,313.06,112Z"/><path class="cls-24" d="M286.65,143s14.38-6.48,24.43-13.83a37.28,37.28,0,0,0,4.19-4.09s1.25,1.87-3.25,8c-1.52,2.09-17.34,13.53-22.18,15.17C287.6,143.05,286.65,143,286.65,143Z"/><path class="cls-8" d="M81.37,188.62a1.24,1.24,0,0,1-.5-.1c-.5-.22-4.89-2.2-5.13-5.33-.13-1.66.86-3.16,3-4.47,6.32-4,22.44-10.95,23.12-11.25a1.28,1.28,0,0,1,1.67.67,1.26,1.26,0,0,1-.66,1.66c-.17.07-16.63,7.2-22.78,11.07-.69.43-1.84,1.28-1.77,2.12.09,1.28,2.47,2.71,3.61,3.2a1.27,1.27,0,0,1,.65,1.67A1.25,1.25,0,0,1,81.37,188.62Z"/><path class="cls-8" d="M89.65,183.78a1.27,1.27,0,0,1-.62-.16c-1.46-.83-8.75-5.16-8.69-9.16a3.72,3.72,0,0,1,2.31-3.29c6-3.17,16.62-8.06,16.73-8.11a1.27,1.27,0,1,1,1.06,2.3c-.11,0-10.69,4.91-16.6,8-1,.51-1,.94-1,1.09,0,1.83,4.41,5.21,7.41,6.91a1.27,1.27,0,0,1-.63,2.37Z"/><path class="cls-23" d="M101.67,181a216.51,216.51,0,0,0-23,13.44l-.09-.84-7.22-.37a30.81,30.81,0,0,0-1.43,8.93c0,.45,5.9,4.5,12.56,7.91,6.28,3.21,10.73,4.92,13.92,5.69a5.47,5.47,0,0,0,2.4-1.1,133.34,133.34,0,0,1,14.77-10.27c12.35-7.34,22-12.24,23.36-12.72C135.41,190.7,111.63,176.05,101.67,181Z"/><path class="cls-25" d="M136.92,191.64l.07.05C137.14,191.59,137.1,191.58,136.92,191.64Z"/><path class="cls-8" d="M72.5,196.6a2.71,2.71,0,0,1-.23-4.57,228.19,228.19,0,0,1,29.4-17.81C112,169.13,137,184.93,137,184.93c1.18-.85-9.4,4.34-23.43,12.67a133.34,133.34,0,0,0-14.77,10.27,5.38,5.38,0,0,1-6.08.46Z"/><path class="cls-11" d="M101.85,176.24s-10.6,6.79-15.78,9.57-9.93,7-10,9.33,1.67,1.57,6.61-2.17,24.58-14.58,24.58-14.58Z"/><path class="cls-11" d="M108.24,180.58s-10.61,6.78-15.79,9.57-9.92,7-10,9.32,1.67,1.58,6.62-2.16,24.58-14.59,24.58-14.59Z"/><path class="cls-11" d="M116.18,184.39s-10.6,6.78-15.78,9.57-9.93,7-10,9.32,1.67,1.58,6.61-2.16,24.59-14.59,24.59-14.59Z"/><path class="cls-8" d="M116.79,208.74c-4.42,0-8.25-3-8.46-3.13a1.27,1.27,0,0,1,1.57-2c.06,0,5.63,4.33,10.08,1.75,5.28-3.05,27.05-15.43,27.05-15.43l1.25,2.21s-21.75,12.36-27,15.41A8.73,8.73,0,0,1,116.79,208.74Z"/><path class="cls-8" d="M130.35,206.5c-5.7,0-12.2-6.32-13-7.17a1.27,1.27,0,1,1,1.79-1.79c2.38,2.37,9.37,8.06,13.17,6,5.4-3,19.92-12.14,20.06-12.23a1.27,1.27,0,1,1,1.36,2.14c-.6.38-14.73,9.31-20.19,12.31A6.47,6.47,0,0,1,130.35,206.5Z"/><path class="cls-6" d="M86.38,209.21s3.63-.56,5.44-1.05c2-.54.89.84.4,1.05a4.68,4.68,0,0,0-1.66,1.47c.23.73,1.15,2.33,1.61,3.47,1.22,3-.9,4.34-3,3.09a47.68,47.68,0,0,1-5.61-3.93Z"/><path class="cls-6" d="M74.91,170.91c-.23-.07-2.86,2.94-4.41,6.19S64.33,175,64.33,175l3.12-8.28Z"/><path class="cls-6" d="M72.56,158.38c5.87-2,7.71,10.85,4.77,15.25-2.7,4.05-10.21-.07-12-3.42S65.47,160.77,72.56,158.38Z"/><path class="cls-12" d="M68,269.38s6.26-2.79,9.35-2.93,3.4,3.51,0,6.33-6,3.2-8.77,4.34c-2.51,1-3.41,1.11-5.41-.19-2.67-1.73-.53-6.3-.53-6.3Z"/><path class="cls-12" d="M46.59,263s5-2.07,8.07-2.21,4.21,2.55.82,5.37-5.53,3.44-8.31,4.58c-2.5,1-3.39,1.09-5.4-.18-2.74-1.74-.6-6.31-.53-6.31Z"/><path class="cls-3" d="M65.53,173.76s-5.7-6.1-11.87-1.18c-5.68,4.52-11.14,13-9.68,17.21s6.23,6.87,6.23,6.87Z"/><path class="cls-3" d="M66.6,213.42s5.18,20.46,6.49,27.5c.85,4.57-.67,15.2-1,21.9-.2,3.63,1.54,4.12.55,6.4-.68,1.57-3,3.32-5.54,4-4.33,1.17-5.95.6-6.4-1.06-.34-1.22-1.45-3.24-.94-5.72.88-4.33,0-5.64,0-9.42a77,77,0,0,1,1.42-12.36S54.5,229.08,53.9,228c.92,5.94-.08,10.61-.43,14.53-.38,4.22-.13,8.5-1,14.21-.25,1.7-1.13,2-1.49,4.38-.22,1.41,1.49,3,.17,3.9-2.22,1.59-10,5-11.76,1.88-1.43-2.59.9-2.51.56-5.08-.16-1.3-1.26-2.29-1.21-4.37.09-3.67,1.58-12.17,1.63-15.13.06-3.6.79-11.9.95-17.6.22-8.11,1.74-15.09,4.67-17.45C50.31,203.76,66.6,213.42,66.6,213.42Z"/><path class="cls-4" d="M47.2,183.82c2.45-4.75,7.7-11.17,11.83-12,4.46-.93,11.57,3.2,16.39,8s-3.29,12-3.29,12a53,53,0,0,1-1.36,7.37c-.73,2.59-1.7,7.12-2.1,8.89-1.85,8.23-.33,12.41-.33,12.41s-9.57,5.19-14.44,3.71-13-7.49-13.52-9C40.82,210.52,42.32,193.27,47.2,183.82Z"/><path class="cls-3" d="M72.61,177.27s.53-1.93,0-2.82c-1.18-2-4.53-2.72-6.16-3.45-3.44-1.54-4.64.77-4.55.79S72.61,177.27,72.61,177.27Z"/><path class="cls-3" d="M67.9,213.89A24.55,24.55,0,0,1,64,216c-1.82.71-4.08,1.78-4.08,1.78v-2.5L68,211.58Z"/><path class="cls-3" d="M74.91,179.28c2.63,1.43,4.37,4.2,3.8,8.35A89.17,89.17,0,0,0,78.23,198s7.7,8.5,9.5,10.21c2.27,6.12-3.53,7.25-3.53,7.25s-9.49-5.39-11.59-7.25S68,205.79,68,200C68,196.85,69.1,176.11,74.91,179.28Z"/><path class="cls-2" d="M75.32,158.17c-2.06-1.13-4.86-2.68-8.59-.9-3.32,1.59-4.25,6.55-4.85,8a5.79,5.79,0,0,1-2.11,2.19,3.45,3.45,0,0,0,2.59-.74,12.37,12.37,0,0,0,.08,4.1c.08.65.67,3.24.67,3.24a8.8,8.8,0,0,1,2.15-1.86,17.88,17.88,0,0,0-.49,3.84,40.85,40.85,0,0,1,4.15-3.2,5.56,5.56,0,0,0,.84,2.95c.9-1.94,4.18-2.54,7.18-7.45C78.51,165.81,82,161.87,75.32,158.17Z"/><path class="cls-10" d="M93.51,150.88s-22.27-3-32-1.95c-6.72.7,13.8,10.43,22.89,17.68,10.83,8.64,23,21.45,41.34,24,5.45.77,36.62,2.95,36.62,2.95l2.15-1.23A173.72,173.72,0,0,1,138,181.87C120.87,173.37,101.08,160.44,93.51,150.88Z"/><path class="cls-26" d="M60.4,148.71s-.48.94,0,1.54,2.18-.3,2.18-.3Z"/><path class="cls-24" d="M93.51,149.36s-22.09-2.26-31.8-1.25c-6.72.7,13.61,9.73,22.7,17,10.83,8.64,23,21.44,41.34,24,5.45.77,38.77,3.24,38.77,3.24S111.65,172.29,93.51,149.36Z"/><path class="cls-16" d="M115,182.51s3.3,3.08,12.81,4,25.19.81,25.19.81L143.26,183Z"/><path class="cls-16" d="M72.92,154s-2.42-3.76,4.59-3.52S95.78,152,95.78,152l4.13,4.17Z"/><path class="cls-6" d="M286.51,153c-.15.74.39,1.08,1.15,1.84.21.22-2,.73-2,.73l.69,4.12,5-1.59,2-2.84s-2.79,0-3.37-.7a7.37,7.37,0,0,0-2.26-1C287.1,153.34,286.58,152.7,286.51,153Z"/><path class="cls-2" d="M315.78,194.2a26.49,26.49,0,0,1,5.17.61c1.15.34,3.17,1.06,3,2.79a59.18,59.18,0,0,0-.58,8.49c0,1,.14,2.27-2.73,3.25a6.07,6.07,0,0,1-6-1.24c-.85-.77-2.09-2.72,1.8-3.34-.09-.88.12-2.83-2.69-3.66C312.53,200.73,313.77,194.22,315.78,194.2Z"/><path class="cls-2" d="M301.46,202.72a26.67,26.67,0,0,1,5.18.61c1.14.34,3.17,1.06,3,2.79a59,59,0,0,0-.59,8.5c0,1,.15,2.27-2.72,3.24a6.12,6.12,0,0,1-6-1.23c-.84-.78-2.09-2.73,1.8-3.35-.08-.88.13-2.83-2.68-3.66C298.21,209.25,299.45,202.74,301.46,202.72Z"/><path class="cls-3" d="M300.28,199.06c5,.95,14.5,3.66,14.5,3.66a20.24,20.24,0,0,1,1.09-5.88,7,7,0,0,1,2.58-2.71l-16-6.69-9.36,6.25S295.89,198.21,300.28,199.06Z"/><path class="cls-3" d="M316.6,177.39l-21.29,3S289,185.32,283,190.49c-2.9,2.53-4.68,6-5.95,8.89-1.49,3.34,2.77,6.06,7.31,7.62,4.15,1.43,15.33,4.35,15.33,4.35s0-3.78,1.53-5.8a19.84,19.84,0,0,1,3.07-3.22l-4.65-1.9c6.88-1.69,14.48-3.46,16.93-8.36C318.79,187.71,316.6,177.39,316.6,177.39Z"/><path class="cls-3" d="M305.26,147.48s5.3,0,6.65,4.3a15.9,15.9,0,0,1,.44,7.91l-6.59-3.43Z"/><path class="cls-6" d="M299.61,132.37a5.27,5.27,0,0,1,7.51,2.57c.93,1.95-.38,7.2-.58,10.89a8.88,8.88,0,0,0,.83,4.68l-2.55,1.05a7.64,7.64,0,0,1-5.21,0l.08-4.53s-2.74-.41-3.22-.85c-1.16-1.06-1.77-4.21-1.23-8.28C296,131.85,298.87,132.88,299.61,132.37Z"/><path class="cls-4" d="M289.69,184.79c.27.25,4.52,8.94,15,9.4,4.55.2,9.73-4.12,12.73-5.71.38-4.32-.2-8-.06-11.44.48-11.44-1.82-18.49-3.64-22.08-2.26-4.46-4.83-6-4.83-6l-9.3,1.38a11.7,11.7,0,0,0-5,3.62c-1.41,1.82-5,6-3.48,9.25C292.85,167,291.48,180.19,289.69,184.79Z"/><path class="cls-3" d="M299,149.8c1.55-.16,4.28.22,6.6-1.31s3.35.52,3.35.52a7.1,7.1,0,0,1-3.81,3.11c-2.59.83-6.27,1.45-8.82.19C296.26,150.63,297.87,149.91,299,149.8Z"/><path class="cls-2" d="M293.69,131.5a4.66,4.66,0,0,0,3.16-.63c-.57-.17-1.1-1-1.46-1.7,3.25-1.17,9.71-.42,11.11.32,2.59,1.36,5.25,3.49,3.85,10-1.13,5.27-2.65,6.54-4.24,7.78-4.36-1.61-5-4.85-5-4.85s1.39-2.75.31-3.73-2.32.61-2.59,1.29C297,138.63,293.69,135.77,293.69,131.5Z"/><path class="cls-3" d="M292.6,177.92a45.35,45.35,0,0,0,4,5.28,9.93,9.93,0,0,0,2.37,2L297.23,187a22.14,22.14,0,0,1-2.75-3.09c-1.25-1.78-2.15-3.37-2.15-3.37Z"/><path class="cls-6" d="M265,167.17a6.22,6.22,0,0,1-2.42-2.08c-.55-1.16-.87-1.82-1.41-1.82s-.64.73-.46,1.18,1.05,2.48.64,2.68a12.17,12.17,0,0,1-3,.53,31.54,31.54,0,0,0-1.44,5.8,9.7,9.7,0,0,0,2.05.16c2.28-.1,7.26,0,7.26,0Z"/><path class="cls-3" d="M298.93,158.92c-.09-1.85-.8-6.57-2.83-6.58-6.13,0-9.35,9.51-14.76,11.9S265,166.36,265,166.36s-2,2.09-2.31,3.78a8.23,8.23,0,0,0,.58,4.72s15.66,2.16,21.07,0S299.46,170.07,298.93,158.92Z"/><path class="cls-2" d="M124.77,327.34c-3.52,0-7.6-1.15-12.5-4.18-4.32-2.66-6.62-5.83-6.85-9.44-.53-8.41,10.56-17.33,15.88-21.62,3.43-2.75,5.16-5.3,5.45-8,.42-4-2.3-8.28-6.52-13.51-6.68-8.26-6.17-16.88-5.64-26,.1-1.55.19-3.12.25-4.71.09-2.43.26-4.82.42-7.13.35-4.87.65-9.07.09-12-.4-2-2.74-3.6-4.3-4.65l-.37-.25c-4.36-3-8.63-6.31-8.67-6.35a.5.5,0,0,1,.61-.79s4.29,3.34,8.63,6.31l.36.25c1.69,1.14,4.25,2.87,4.72,5.29.59,3,.28,7.28-.07,12.22-.16,2.31-.34,4.69-.42,7.1-.06,1.59-.16,3.17-.25,4.73-.52,8.91-1,17.34,5.42,25.31,4.37,5.42,7.19,9.91,6.73,14.24-.32,3-2.17,5.74-5.81,8.67-5.2,4.18-16,12.88-15.51,20.77.2,3.27,2.35,6.18,6.37,8.66,12.8,7.89,19.44,2.67,25.87-2.38,1.29-1,2.63-2.07,4-3,7.79-5.21,13-8.11,13.08-8.14a.5.5,0,1,1,.49.87c-.06,0-5.26,2.92-13,8.1-1.32.88-2.59,1.88-3.93,2.93C135.23,323.9,130.84,327.34,124.77,327.34Z"/><path class="cls-10" d="M5,161l-.08,0Z"/><path class="cls-24" d="M19.73,122.07,6.38,129.78a4.93,4.93,0,0,0-2,3.93v24.13L11.22,152l6,2.66,2.48-1.43a4.94,4.94,0,0,0,2.06-3.93V123.63C21.79,122.12,20.86,121.42,19.73,122.07Z"/><path class="cls-27" d="M5,161l9.67,5.54,5.58-10.55-3-1.33L6.38,160.88A1.27,1.27,0,0,1,5,161Z"/><path class="cls-27" d="M4.33,157.84v1.49a1.92,1.92,0,0,0,.59,1.58L5,161a1.27,1.27,0,0,0,1.38-.07l10.87-6.27-6-2.66Z"/><polygon class="cls-10" points="29.15 123.42 19.78 118.03 18.84 118.72 27.99 123.91 29.15 123.42"/><polygon class="cls-24" points="20.98 121.93 30.81 127.54 25.16 136.23 15.67 130.06 20.98 121.93"/><path class="cls-21" d="M29.36,158.69,16,166.39c-1.13.65-2.05,0-2.05-1.56V139.22A5,5,0,0,1,16,135.28l13.35-7.7c1.13-.65,2.06,0,2.06,1.56v25.61A5,5,0,0,1,29.36,158.69Z"/><path class="cls-21" d="M31.2,128l-1.52-4a1.06,1.06,0,0,0-1.69-.51l-1.86,1.1-.56,6.64Z"/><path class="cls-21" d="M14,138.54A25.62,25.62,0,0,1,15.29,133a5.76,5.76,0,0,1,2.36-3.44l2.79-1.59.51,6S14,140.63,14,138.54Z"/><path class="cls-10" d="M21.65,122.52l-1.52-4a1.06,1.06,0,0,0-1.69-.51l-1.86,1.09L16,125.76Z"/><path class="cls-24" d="M4.35,133.26a26.77,26.77,0,0,1,1.39-5.82A5.7,5.7,0,0,1,8.1,124l2.79-1.59L14,127.92S4.35,135.34,4.35,133.26Z"/><polygon class="cls-16" points="26.13 124.64 16.58 119.12 18.44 118.03 27.99 123.54 26.13 124.64"/><polygon class="cls-10" points="16.58 119.12 16.16 124.14 25.7 129.69 26.13 124.64 16.58 119.12"/><polygon class="cls-16" points="20.44 127.92 10.89 122.41 8.1 124 17.65 129.51 20.44 127.92"/><polygon class="cls-10" points="13.96 139.22 4.33 133.71 4.33 159.33 13.96 164.83 13.96 139.22"/><polygon class="cls-27" points="21.69 125.88 19.3 127.26 15.24 124.92 19.86 122.24 21.69 125.88"/><path class="cls-27" d="M19.36,123.5a2.82,2.82,0,0,0,1.46,2.44c.78.31,1.39-.27,1.36-1.3a2.84,2.84,0,0,0-1.46-2.45C19.94,121.88,19.33,122.46,19.36,123.5Z"/><path class="cls-27" d="M29.47,134.16c-.41-.07-.94.42-1.18,1.1L23.15,150l2.36-2.2,4.27-12.28C30,134.86,29.87,134.24,29.47,134.16Z"/><path class="cls-27" d="M17.06,141.28c.41-.55.94-.66,1.18-.25l5.07,8.91-2.35.5L16.74,143A1.84,1.84,0,0,1,17.06,141.28Z"/><path class="cls-27" d="M29.41,154.26c-.41.55-.94.66-1.17.25l-5.07-8.91,2.34-.5,4.22,7.41A1.81,1.81,0,0,1,29.41,154.26Z"/><path class="cls-27" d="M17,161.38c.41.07.94-.42,1.17-1.1l5.14-14.77L21,147.71,16.69,160C16.46,160.68,16.6,161.3,17,161.38Z"/><path class="cls-27" d="M25.8,149.07l-4.92,2.82c-.56.32-1,0-1-.76v-3.44a2.38,2.38,0,0,1,1-1.91L25.82,143c.55-.32,1,0,1,.76v3.45A2.42,2.42,0,0,1,25.8,149.07Z"/><path class="cls-21" d="M25.14,148.39l-3.6,2.07c-.35.2-.63,0-.63-.47v-2.35a1.48,1.48,0,0,1,.63-1.19l3.61-2.07c.34-.2.62,0,.62.48v2.34A1.48,1.48,0,0,1,25.14,148.39Z"/><polygon class="cls-27" points="26.59 137.36 20.02 141.15 20.02 140.02 26.59 136.23 26.59 137.36"/><polygon class="cls-27" points="26.59 156.51 20.02 160.31 20.02 159.17 26.59 155.38 26.59 156.51"/><polygon class="cls-27" points="26.59 154.24 20.02 158.03 20.02 156.9 26.59 153.11 26.59 154.24"/><polygon class="cls-27" points="26.59 134.9 20.02 138.69 20.02 137.56 26.59 133.77 26.59 134.9"/><polygon class="cls-12" points="12.15 152.68 6.08 149.18 6.08 138.09 12.15 141.6 12.15 152.68"/><polygon class="cls-13" points="9.81 150.11 7.21 148.61 7.21 143.86 9.81 145.36 9.81 150.11"/><polygon class="cls-8" points="11.31 142.82 6.98 140.3 6.98 139.48 11.31 142 11.31 142.82"/><polygon class="cls-8" points="11.31 144.5 6.98 141.98 6.98 141.16 11.31 143.68 11.31 144.5"/><path class="cls-14" d="M12.92,129.88a2.82,2.82,0,0,1-1.68,3.5,2.59,2.59,0,0,1-3.38-1.64,2.82,2.82,0,0,1,1.68-3.51A2.6,2.6,0,0,1,12.92,129.88Z"/><polygon class="cls-14" points="8.26 132.74 9.18 133.28 11.99 128.58 10.87 127.92 8.26 132.74"/><path class="cls-25" d="M12.17,129.44A2.82,2.82,0,0,1,10.49,133a2.6,2.6,0,0,1-3.38-1.65,2.83,2.83,0,0,1,1.68-3.51A2.6,2.6,0,0,1,12.17,129.44Z"/><path class="cls-2" d="M11.69,129.52a2.33,2.33,0,0,1-1.39,2.91,2.14,2.14,0,0,1-2.8-1.37,2.34,2.34,0,0,1,1.39-2.91A2.15,2.15,0,0,1,11.69,129.52Z"/><polygon class="cls-2" points="7.26 131.59 8.66 132.35 10.81 128.37 9.49 127.63 7.26 131.59"/><path class="cls-12" d="M10.61,128.92a2.34,2.34,0,0,1-1.39,2.91,2.17,2.17,0,0,1-2.81-1.37,2.34,2.34,0,0,1,1.4-2.91A2.15,2.15,0,0,1,10.61,128.92Z"/><path class="cls-7" d="M7.07,130.4a1.83,1.83,0,0,1,1.08-2.28,1.73,1.73,0,0,1,1.27,0A1.66,1.66,0,0,0,8,128a1.83,1.83,0,0,0-1.09,2.27,1.73,1.73,0,0,0,.93,1A1.72,1.72,0,0,1,7.07,130.4Z"/><path class="cls-8" d="M9.06,131.36a1.82,1.82,0,0,0,1.09-2.27,1.65,1.65,0,0,0-.73-.92,1.73,1.73,0,0,0-1.27,0,1.83,1.83,0,0,0-1.08,2.28,1.72,1.72,0,0,0,.73.92A1.66,1.66,0,0,0,9.06,131.36Z"/><path class="cls-7" d="M38.12,126.38v5.12a2.26,2.26,0,0,1-.93,1.79l-5.71,3.3c-.51.29-.93,0-.93-.71v-5.24a7.28,7.28,0,0,0-2.26,4.94l-5.35,3.09a3.85,3.85,0,0,0-1.6,3.07v25.84a2.8,2.8,0,0,0,4.2,2.43l12.13-7a4.85,4.85,0,0,0,2.42-4.19v-30C40.09,127.17,39.27,126.27,38.12,126.38Z"/><path class="cls-9" d="M22.94,138.69a3.82,3.82,0,0,0-1.6,3.06v5.55l7,3.35,5-6.53-9.76-5.79Z"/><polygon class="cls-8" points="28.29 135.59 23.56 138.33 33.32 144.12 36.52 140.13 28.29 135.59"/><polygon class="cls-7" points="23 170.1 29.63 174.01 29.63 171.18 21.74 166.88 23 170.1"/><polygon class="cls-8" points="45.62 137.36 37.7 132.78 30.29 137.03 38.2 141.61 45.62 137.36"/><polygon class="cls-7" points="37.18 134.54 30.55 130.64 28.29 135.59 35.68 139.86 37.18 134.54"/><polygon class="cls-7" points="38.92 126.48 45.82 130.53 45.41 137.24 37.85 132.87 39.26 130.27 38.92 126.48"/><path class="cls-9" d="M38.12,126.38l6.63,3.89,1.07.26-6.86-4A1.57,1.57,0,0,0,38.12,126.38Z"/><path class="cls-11" d="M44.75,130.27v5.13a2.26,2.26,0,0,1-.93,1.79l-5.71,3.29c-.51.3-.93,0-.93-.7v-5.24a7.28,7.28,0,0,0-2.26,4.94l-5.35,3.09a3.85,3.85,0,0,0-1.6,3.06v25.85a2.8,2.8,0,0,0,4.2,2.43l12.13-7a4.86,4.86,0,0,0,2.42-4.19V132.67C46.72,131.07,45.9,130.17,44.75,130.27Z"/><path class="cls-13" d="M44.4,161.82V141l-1.4.76-10.74,16.4v10.5c0,1.46.89,2.13,2,1.5l8.19-4.53A4.73,4.73,0,0,0,44.4,161.82Z"/><polygon class="cls-12" points="41.81 142 32.03 147.55 32.03 157.29 41.81 142"/><polygon class="cls-8" points="27.97 147.53 21.34 143.59 21.34 166.62 27.97 170.56 27.97 147.53"/><path class="cls-9" d="M30.55,130.64a2.27,2.27,0,0,0-.25.23l-.22.26L36.7,135l.48-.49Z"/><polygon class="cls-11" points="41.65 131.83 37.07 134.48 34.08 132.78 40.31 129.16 41.65 131.83"/><path class="cls-11" d="M39.94,130.08A2.08,2.08,0,0,0,41,131.87c.57.23,1-.2,1-1a2.08,2.08,0,0,0-1.07-1.79C40.36,128.9,39.92,129.33,39.94,130.08Z"/><path class="cls-12" d="M38.7,151.3s4,6.7,0,9.09S38.7,151.3,38.7,151.3Z"/><polygon class="cls-12" points="43.15 161.78 33.51 167.35 33.51 165.94 43.15 160.37 43.15 161.78"/><path class="cls-12" d="M28.21,135.94v3.93a4.28,4.28,0,0,0,.9.1v-4Z"/><path class="cls-12" d="M29.39,135.94v4a5.67,5.67,0,0,0,.75-.1v-3.91Z"/><path class="cls-12" d="M27.18,135.94v3.53a2.58,2.58,0,0,0,.75.33v-3.86Z"/><path class="cls-12" d="M30.42,135.94v3.82a2.69,2.69,0,0,0,.74-.37v-3.45Z"/><path class="cls-12" d="M31.7,135.94h-.25v3.19a1,1,0,0,0,.25-.62Z"/><path class="cls-12" d="M26.52,135.94v2.57a1,1,0,0,0,.38.75v-3.32Z"/><path class="cls-2" d="M26.9,135.94v3.32a1.57,1.57,0,0,0,.28.21v-3.53Z"/><path class="cls-2" d="M27.93,135.94v3.86l.28.07v-3.93Z"/><path class="cls-2" d="M29.11,135.94v4h0l.28,0v-4Z"/><path class="cls-2" d="M30.14,135.94v3.91l.28-.09v-3.82Z"/><path class="cls-2" d="M31.16,135.94v3.45a1.84,1.84,0,0,0,.29-.26v-3.19Z"/><path class="cls-14" d="M31.7,135.94c0,.8-1.16,1.45-2.59,1.45s-2.59-.65-2.59-1.45,1.16-1.46,2.59-1.46S31.7,135.13,31.7,135.94Z"/><path class="cls-12" d="M31.16,135.94c0,.62-.9,1.13-2,1.13s-2-.51-2-1.13.91-1.13,2-1.13S31.16,135.31,31.16,135.94Z"/><path class="cls-14" d="M371.47,173.82c0,5.83-8.88,10.55-19.83,10.55s-19.84-4.72-19.84-10.55,8.88-10.55,19.84-10.55S371.47,168,371.47,173.82Z"/><path class="cls-12" d="M371.45,172.89c0,5.83-8.88,10.55-19.83,10.55s-19.82-4.72-19.82-10.55,8.88-10.54,19.82-10.54S371.45,167.07,371.45,172.89Z"/><rect class="cls-12" x="331.8" y="160.74" width="39.65" height="12.79"/><path class="cls-14" d="M371.45,161.18c0,5.82-8.88,10.55-19.83,10.55S331.8,167,331.8,161.18s8.88-10.54,19.82-10.54S371.45,155.36,371.45,161.18Z"/><path class="cls-28" d="M369.72,160.74c0,5.32-8.1,9.62-18.08,9.62s-18.09-4.3-18.09-9.62,8.1-9.62,18.09-9.62S369.72,155.43,369.72,160.74Z"/><path class="cls-14" d="M351.63,155c6.82,0,12.41,2.78,13,6.33a3.36,3.36,0,0,0,.06-.63c0-3.83-5.85-7-13.06-7s-13.07,3.12-13.07,7a3.36,3.36,0,0,0,.06.63C339.21,157.82,344.8,155,351.63,155Z"/><path class="cls-2" d="M351.63,167.7c6.82,0,12.41-2.79,13-6.33-.59-3.55-6.18-6.33-13-6.33s-12.42,2.78-13,6.33C339.21,164.91,344.8,167.7,351.63,167.7Z"/><path class="cls-14" d="M351.64,179.71c-10.57,0-19.18-4.4-19.77-10,0,.21-.06.4-.06.61,0,5.82,8.88,10.54,19.83,10.54s19.82-4.72,19.82-10.54c0-.21,0-.4-.06-.61C370.81,175.31,362.2,179.71,351.64,179.71Z"/><path class="cls-14" d="M351.64,175.34c-10.57,0-19.18-4.4-19.77-9.94,0,.2-.06.4-.06.6,0,5.82,8.88,10.54,19.83,10.54s19.82-4.72,19.82-10.54c0-.2,0-.4-.06-.6C370.81,170.94,362.2,175.34,351.64,175.34Z"/><path class="cls-14" d="M216.68,33c0,5.83-8.88,10.55-19.84,10.55S177,38.78,177,33s8.88-10.55,19.83-10.55S216.68,27.12,216.68,33Z"/><path class="cls-12" d="M216.65,32c0,5.82-8.87,10.54-19.82,10.54S177,37.84,177,32s8.87-10.55,19.82-10.55S216.65,26.19,216.65,32Z"/><rect class="cls-12" x="177.01" y="19.87" width="39.65" height="12.79"/><path class="cls-14" d="M216.65,20.31c0,5.82-8.87,10.54-19.82,10.54S177,26.13,177,20.31s8.87-10.55,19.82-10.55S216.65,14.48,216.65,20.31Z"/><path class="cls-28" d="M214.93,19.87c0,5.31-8.1,9.62-18.09,9.62s-18.08-4.31-18.08-9.62,8.09-9.62,18.08-9.62S214.93,14.56,214.93,19.87Z"/><path class="cls-14" d="M196.83,14.16c6.82,0,12.42,2.78,13,6.33a4.2,4.2,0,0,0,.06-.62c0-3.84-5.85-7-13.07-7s-13.07,3.11-13.07,7a4.2,4.2,0,0,0,.06.62C184.41,16.94,190,14.16,196.83,14.16Z"/><path class="cls-2" d="M196.83,26.82c6.82,0,12.42-2.78,13-6.33-.59-3.55-6.19-6.33-13-6.33s-12.42,2.78-13,6.33C184.41,24,190,26.82,196.83,26.82Z"/><path class="cls-14" d="M196.84,38.83c-10.56,0-19.17-4.4-19.76-9.94a4.07,4.07,0,0,0-.06.6C177,35.32,185.89,40,196.84,40s19.82-4.72,19.82-10.55c0-.2,0-.4,0-.6C216,34.43,207.41,38.83,196.84,38.83Z"/><path class="cls-14" d="M196.84,34.46c-10.56,0-19.17-4.4-19.76-9.94a4.07,4.07,0,0,0-.06.6c0,5.83,8.87,10.55,19.82,10.55S216.66,31,216.66,25.12c0-.2,0-.4,0-.6C216,30.06,207.41,34.46,196.84,34.46Z"/><path class="cls-14" d="M193.67,56.51c0,5.83-8.88,10.55-19.83,10.55S154,62.34,154,56.51,162.88,46,173.84,46,193.67,50.68,193.67,56.51Z"/><path class="cls-12" d="M193.65,55.58c0,5.82-8.88,10.55-19.83,10.55S154,61.4,154,55.58,162.88,45,173.82,45,193.65,49.76,193.65,55.58Z"/><rect class="cls-12" x="154" y="43.43" width="39.65" height="12.79"/><path class="cls-14" d="M193.65,43.87c0,5.82-8.88,10.54-19.83,10.54S154,49.69,154,43.87s8.88-10.55,19.82-10.55S193.65,38,193.65,43.87Z"/><path class="cls-28" d="M191.92,43.43c0,5.31-8.1,9.62-18.08,9.62s-18.09-4.31-18.09-9.62,8.1-9.62,18.09-9.62S191.92,38.12,191.92,43.43Z"/><path class="cls-14" d="M173.82,37.73c6.83,0,12.42,2.78,13,6.32a3.18,3.18,0,0,0,.06-.62c0-3.84-5.85-7-13.07-7s-13.06,3.11-13.06,7a3.18,3.18,0,0,0,.06.62C161.41,40.51,167,37.73,173.82,37.73Z"/><path class="cls-2" d="M173.82,50.38c6.83,0,12.42-2.78,13-6.33-.59-3.54-6.18-6.32-13-6.32s-12.41,2.78-13,6.32C161.41,47.6,167,50.38,173.82,50.38Z"/><path class="cls-14" d="M173.84,62.39c-10.57,0-19.18-4.4-19.77-9.94,0,.2-.06.4-.06.6,0,5.83,8.88,10.55,19.83,10.55s19.82-4.72,19.82-10.55c0-.2,0-.4-.06-.6C193,58,184.4,62.39,173.84,62.39Z"/><path class="cls-14" d="M173.84,58c-10.57,0-19.18-4.4-19.77-9.94a6,6,0,0,0-.06.61c0,5.82,8.88,10.54,19.83,10.54s19.82-4.72,19.82-10.54a6,6,0,0,0-.06-.61C193,53.62,184.4,58,173.84,58Z"/><path class="cls-12" d="M360.28,233a8.07,8.07,0,0,1-1.84-.15l.5-1.63-.25.82.25-.82c.83.23,8,.51,15-4.73,7.26-5.47,7.25-20.71,5.64-26-2.49-8.26-7.66-6.93-7.87-6.87L371.2,192c.07,0,7-1.91,10,8,1.94,6.4,1.48,22-6.25,27.85A25,25,0,0,1,360.28,233Z"/><path class="cls-14" d="M370,240.34a8.17,8.17,0,0,1-3.42,6.52c-1.88,1.08-3.41-.07-3.41-2.58a8.17,8.17,0,0,1,3.41-6.52C368.45,236.67,370,237.82,370,240.34Z"/><polygon class="cls-14" points="370.97 238.87 368.61 237.47 364.34 247.04 366.64 248.39 370.97 238.87"/><path class="cls-28" d="M372.36,241.73a8.19,8.19,0,0,1-3.41,6.52c-1.89,1.09-3.41-.07-3.41-2.58a8.16,8.16,0,0,1,3.41-6.52C370.83,238.06,372.36,239.22,372.36,241.73Z"/><path class="cls-11" d="M371.4,242.28A5.88,5.88,0,0,1,369,247c-1.36.78-2.46-.05-2.46-1.85a5.86,5.86,0,0,1,2.46-4.69C370.3,239.65,371.4,240.48,371.4,242.28Z"/><path class="cls-14" d="M352.56,252.22a3.31,3.31,0,0,1-1.37,2.62c-.76.44-1.37,0-1.37-1a3.26,3.26,0,0,1,1.37-2.62C351.94,250.75,352.56,251.21,352.56,252.22Z"/><polygon class="cls-14" points="352.96 251.63 352.01 251.07 350.3 254.91 351.22 255.46 352.96 251.63"/><path class="cls-28" d="M353.52,252.78a3.29,3.29,0,0,1-1.38,2.62c-.75.44-1.37,0-1.37-1a3.29,3.29,0,0,1,1.37-2.62C352.9,251.31,353.52,251.77,353.52,252.78Z"/><rect class="cls-12" x="326.69" y="238.86" width="3.15" height="2.54"/><path class="cls-12" d="M368.57,238.14a5.77,5.77,0,0,1,1.55-.46v-2.74l-7.06-.28v2.75L348.5,229a1.25,1.25,0,0,0-1.27,0l-19.9,11.36a1.27,1.27,0,0,0,0,2.2l21.1,12.19a1.26,1.26,0,0,0,1.27,0l15-8.67c0-.09,0-.17,0-.26C364.71,242.7,366.24,239.49,368.57,238.14Z"/><path class="cls-28" d="M327.33,239.73l21.1,12.19a1.26,1.26,0,0,0,1.27,0l19.78-15.85a1.27,1.27,0,0,0,0-2.2l-21-12.13a1.25,1.25,0,0,0-1.27,0l-19.9,15.78A1.28,1.28,0,0,0,327.33,239.73Z"/><path class="cls-28" d="M359.1,241.88c0,3.15-4.79,5.69-10.7,5.69s-10.7-2.54-10.7-5.69,4.79-5.69,10.7-5.69S359.1,238.74,359.1,241.88Z"/><path class="cls-8" d="M359,233.44c1,3.84-2.86,8.22-8.7,9.78s-11.4-.26-12.43-4.1,2.87-8.21,8.7-9.78S358,229.61,359,233.44Z"/><polygon class="cls-8" points="359.1 219.19 337.7 219.19 337.7 238.13 359.1 234.66 359.1 219.19"/><polygon class="cls-28" points="339.01 224.95 337.58 225.8 341.56 228.14 343.18 227.19 339.01 224.95"/><path class="cls-8" d="M359.1,218.52a3.38,3.38,0,0,1-.59,1.86c-1.45-2.23-5.42-3.84-10.11-3.84s-8.66,1.61-10.11,3.84a3.38,3.38,0,0,1-.59-1.86V222h0c0,.07,0,.15,0,.22,0,3.14,4.79,5.69,10.7,5.69s10.7-2.55,10.7-5.69c0-.07,0-.15,0-.22h0Z"/><path class="cls-28" d="M359.1,215.48a3.36,3.36,0,0,1-.59,1.86c-1.45-2.23-5.42-3.84-10.11-3.84s-8.66,1.61-10.11,3.84a3.36,3.36,0,0,1-.59-1.86V219h0c0,.08,0,.15,0,.22,0,3.14,4.79,5.69,10.7,5.69s10.7-2.55,10.7-5.69c0-.07,0-.14,0-.22h0Z"/><path class="cls-12" d="M348.9,203.38h-1a10.23,10.23,0,0,0-10.2,10.2v1.9A4.41,4.41,0,0,0,340,219a17.29,17.29,0,0,0,16.88,0,4.41,4.41,0,0,0,2.26-3.49v-1.9A10.23,10.23,0,0,0,348.9,203.38Z"/><path class="cls-12" d="M349.74,247.73c.12.24-.07.57-.42.74s-.73.13-.85-.11.08-.56.43-.74S349.63,247.5,349.74,247.73Z"/><path class="cls-12" d="M365.84,234.33c.12.23-.07.56-.42.74s-.73.12-.85-.11.08-.57.43-.74S365.73,234.1,365.84,234.33Z"/><path class="cls-12" d="M332.14,237.56c.11.24-.08.57-.43.74s-.73.12-.84-.11.07-.57.42-.74S332,237.33,332.14,237.56Z"/><polygon class="cls-12" points="337.97 230.54 341.93 232.88 341.56 228.14 337.58 225.8 337.97 230.54"/><polygon class="cls-12" points="343.21 227.16 341.56 228.14 341.93 232.88 343.21 232.2 343.21 227.16"/><path class="cls-2" d="M339.94,228.8a.85.85,0,0,0-1.15.35c0,.06-3.25,6.1-6.89,7.85-2.34,1.13-4.57,1.28-5.68.39a2.88,2.88,0,0,1-.62-3c1.57-6.83,12.14-6.62,12.15-6.62-.05-.44-.14-1.7-.14-1.7-.51,0-11.78-.27-13.67,7.93-.63,2.74.49,4.12,1.22,4.7a4.79,4.79,0,0,0,3.06.94,10.37,10.37,0,0,0,4.42-1.13c4.15-2,7.51-8.32,7.65-8.58A.85.85,0,0,0,339.94,228.8Z"/><path class="cls-11" d="M362.22,235.81a.85.85,0,0,1-.85-.85v-24.3c0-4.87,1.3-7,4.05-9.61.54-.52.8-1,.76-1.31-.12-1-2.43-2.33-5.1-3.86-.67-.39-1.39-.8-2.14-1.25-2.38-1.41-3.92-1.7-6.21.47-3,2.81-3.3,4.69-3.27,8.3-.68,0-1.06,0-1.7,0,0-3.81.39-6.27,3.8-9.51,3-2.86,5.47-2.35,8.25-.7l2.11,1.23c3.45,2,5.72,3.3,5.94,5.14a3.22,3.22,0,0,1-1.27,2.74c-2.48,2.38-3.52,4.07-3.52,8.38V235A.85.85,0,0,1,362.22,235.81Z"/><path class="cls-29" d="M371.44,191.78a2.71,2.71,0,0,0,1.14,2.17c.63.37,1.14,0,1.14-.86a2.71,2.71,0,0,0-1.14-2.17C372,190.55,371.44,190.94,371.44,191.78Z"/><polygon class="cls-29" points="371.14 191.3 371.87 190.84 373.32 194.01 372.58 194.47 371.14 191.3"/><path class="cls-11" d="M370.73,192.22a2.74,2.74,0,0,0,1.14,2.18c.63.36,1.14,0,1.14-.86a2.73,2.73,0,0,0-1.14-2.18C371.24,191,370.73,191.38,370.73,192.22Z"/><path class="cls-2" d="M359.64,198.89a9.49,9.49,0,0,0-3.58,3.94c-.13.24-1.28,2.65-1.69,3.67h0L338.14,243a.75.75,0,0,0,.39,1h0a.75.75,0,0,0,1-.39l17-38.27c1-2.11,1.92-3.66,3.13-4.36L372,193.89c.11-.06.38-.32.15-1.09-.14-.47-.64-.76-.9-.61Z"/><path class="cls-11" d="M342.19,249.26s.15-.76.21-1.11c.09-.58-.71-1.21-.71-1.21L341,248Z"/><polygon class="cls-11" points="341.79 248.47 333.04 243.41 327.74 248.23 340.26 255.43 341.79 248.47"/><polygon class="cls-12" points="327.74 248.23 326.99 249.17 339.75 256.81 340.26 255.43 327.74 248.23"/><polygon class="cls-29" points="341.79 248.47 342.19 249.26 340.71 256.06 340.26 255.43 341.79 248.47"/><polygon class="cls-12" points="340.26 255.43 339.75 256.81 340.26 257.37 340.71 256.06 340.26 255.43"/><polygon class="cls-28" points="326.99 249.17 327.47 249.74 340.26 257.37 339.75 256.81 326.99 249.17"/><path class="cls-9" d="M333,243.41l8.75,5.05s.31-1,0-1.42a18.27,18.27,0,0,0-2.42-1.51c-.51-.36.08-1.72.08-1.72l-1.33-.71s-.61,1-1.07,1-2.85-1.55-3.05-1.46A4.55,4.55,0,0,0,333,243.41Z"/><path class="cls-2" d="M348.4,206.2c1.88,0,3.47.64,4.06,1.53a1.33,1.33,0,0,0,.26-.75c0-1.27-1.93-2.3-4.32-2.3s-4.32,1-4.32,2.3a1.33,1.33,0,0,0,.26.75C344.93,206.84,346.52,206.2,348.4,206.2Z"/><path class="cls-28" d="M348.4,209.27c1.88,0,3.47-.64,4.06-1.54-.59-.89-2.18-1.53-4.06-1.53s-3.47.64-4.06,1.53C344.93,208.63,346.52,209.27,348.4,209.27Z"/><path class="cls-8" d="M338.93,216.25a1.19,1.19,0,0,0,.49.95c.27.15.5,0,.5-.38a1.2,1.2,0,0,0-.5-.94C339.15,215.72,338.93,215.89,338.93,216.25Z"/><path class="cls-8" d="M340.65,217.29a1.19,1.19,0,0,0,.49.94c.28.16.5,0,.5-.37a1.16,1.16,0,0,0-.5-.94C340.87,216.76,340.65,216.93,340.65,217.29Z"/><polygon class="cls-12" points="357.7 225.13 354.25 227.12 354.25 226.15 357.7 224.16 357.7 225.13"/><polygon class="cls-12" points="357.7 226.93 354.25 228.92 354.25 227.95 357.7 225.96 357.7 226.93"/><polygon class="cls-12" points="357.7 228.61 354.25 230.6 354.25 229.63 357.7 227.64 357.7 228.61"/><polygon class="cls-12" points="357.7 230.41 354.25 232.4 354.25 231.43 357.7 229.44 357.7 230.41"/><path class="cls-2" d="M169.42,337.49a6.28,6.28,0,0,0,2.61,5c1.45.83,2.62-.05,2.62-2a6.26,6.26,0,0,0-2.62-5C170.59,334.68,169.42,335.56,169.42,337.49Z"/><polygon class="cls-2" points="168.43 336.5 170.45 335.31 173.74 342.63 171.64 343.84 168.43 336.5"/><path class="cls-12" d="M167.3,338.71a6.29,6.29,0,0,0,2.62,5c1.44.83,2.62,0,2.62-2a6.29,6.29,0,0,0-2.62-5C168.48,335.9,167.3,336.78,167.3,338.71Z"/><path class="cls-13" d="M168.43,339.46a3.16,3.16,0,0,0,1.32,2.52c.72.42,1.31,0,1.31-1a3.18,3.18,0,0,0-1.31-2.52C169,338,168.43,338.49,168.43,339.46Z"/><path class="cls-11" d="M172.8,335.7V340a16.87,16.87,0,0,1-2.2.92c-1.19.38-1.66-.7-1.29-2.14a43.61,43.61,0,0,1,1.44-4.27Z"/><polygon class="cls-8" points="172.8 335.7 174.93 334.5 174.93 338.8 172.8 340.01 172.8 335.7"/><polygon class="cls-9" points="174.46 334.03 172.8 334.98 171.14 334.01 170.75 334.52 172.8 335.7 174.93 334.5 174.46 334.03"/><path class="cls-2" d="M213.66,312a6.25,6.25,0,0,0,2.62,5c1.44.83,2.61,0,2.61-2a6.26,6.26,0,0,0-2.61-5C214.83,309.22,213.66,310.11,213.66,312Z"/><polygon class="cls-2" points="212.67 311.04 214.69 309.86 217.98 317.17 215.88 318.38 212.67 311.04"/><path class="cls-12" d="M211.55,313.25a6.25,6.25,0,0,0,2.62,5c1.44.84,2.61-.05,2.61-2a6.26,6.26,0,0,0-2.61-5C212.72,310.44,211.55,311.33,211.55,313.25Z"/><path class="cls-13" d="M212.67,314a3.16,3.16,0,0,0,1.32,2.52c.73.42,1.32,0,1.32-1A3.14,3.14,0,0,0,214,313C213.26,312.59,212.67,313,212.67,314Z"/><path class="cls-11" d="M217,310.25v4.3a16.87,16.87,0,0,1-2.2.92c-1.18.39-1.66-.69-1.28-2.14a41.8,41.8,0,0,1,1.44-4.27Z"/><polygon class="cls-8" points="217.04 310.25 219.17 309.04 219.17 313.34 217.04 314.56 217.04 310.25"/><polygon class="cls-9" points="218.7 308.57 217.04 309.53 215.38 308.55 215 309.06 217.04 310.25 219.17 309.04 218.7 308.57"/><path class="cls-2" d="M149.39,325.76a6.24,6.24,0,0,0,2.62,5c1.44.84,2.61-.05,2.61-2a6.26,6.26,0,0,0-2.61-5C150.56,322.94,149.39,323.83,149.39,325.76Z"/><polygon class="cls-2" points="148.4 324.76 150.42 323.58 153.71 330.89 151.61 332.11 148.4 324.76"/><path class="cls-12" d="M147.28,327a6.26,6.26,0,0,0,2.61,5c1.45.84,2.62-.05,2.62-2a6.25,6.25,0,0,0-2.62-5C148.45,324.17,147.28,325.05,147.28,327Z"/><path class="cls-13" d="M148.4,327.73a3.14,3.14,0,0,0,1.32,2.51c.73.42,1.32,0,1.32-1a3.16,3.16,0,0,0-1.32-2.52C149,326.31,148.4,326.76,148.4,327.73Z"/><path class="cls-11" d="M152.77,324v4.31a17.69,17.69,0,0,1-2.2.91c-1.18.39-1.66-.69-1.29-2.14a43.48,43.48,0,0,1,1.45-4.27Z"/><polygon class="cls-8" points="152.77 323.97 154.9 322.76 154.9 327.06 152.77 328.28 152.77 323.97"/><polygon class="cls-9" points="154.43 322.29 152.77 323.25 151.11 322.27 150.72 322.78 152.77 323.97 154.9 322.76 154.43 322.29"/><polygon class="cls-3" points="151.22 278.88 173.34 291.64 173.34 335.22 151.22 322.5 151.22 278.88"/><polygon class="cls-4" points="218.41 265.65 173.34 291.64 173.34 335.22 218.41 309.31 218.41 265.65"/><polygon class="cls-12" points="187.52 276.84 206.85 265.69 206.85 267.43 187.52 278.55 187.52 276.84"/><polygon class="cls-13" points="174.4 292.95 217.4 268.27 217.4 273.4 174.4 298.01 174.4 292.95"/><polygon class="cls-3" points="173.34 299.98 218.41 274 218.41 275.36 173.34 301.28 173.34 299.98"/><polygon class="cls-12" points="187.52 286.58 206.85 275.44 206.85 277.17 187.52 288.29 187.52 286.58"/><polygon class="cls-13" points="174.4 302.16 217.4 277.48 217.4 282.6 174.4 307.22 174.4 302.16"/><polygon class="cls-3" points="173.34 309.19 218.41 283.2 218.41 284.57 173.34 310.49 173.34 309.19"/><polygon class="cls-12" points="187.52 295.79 206.85 284.64 206.85 286.38 187.52 297.49 187.52 295.79"/><polygon class="cls-13" points="174.4 325.29 217.4 300.61 217.4 307.22 174.4 331.83 174.4 325.29"/><polygon class="cls-12" points="187.52 318.92 206.85 307.77 206.85 309.51 187.52 320.63 187.52 318.92"/><polygon class="cls-13" points="174.4 311.56 217.4 286.89 217.4 295.54 174.4 320.16 174.4 311.56"/><polygon class="cls-12" points="187.52 305.2 206.85 294.05 206.85 295.79 187.52 306.9 187.52 305.2"/><polygon class="cls-3" points="173.34 322.83 218.41 296.84 218.41 298.21 173.34 324.13 173.34 322.83"/><polygon class="cls-18" points="218.41 265.65 173.34 291.64 151.22 278.88 196.31 252.99 218.41 265.65"/><polygon class="cls-8" points="173.34 335.23 219.17 308.83 219.17 310.2 173.34 336.61 173.34 335.23"/><polygon class="cls-9" points="173.34 334.37 218.41 308.39 219.17 308.83 173.34 335.26 173.34 334.37"/><polygon class="cls-11" points="173.34 335.23 150.45 322.05 150.45 323.42 173.34 336.61 173.34 335.23"/><polygon class="cls-8" points="152.35 281.58 171.69 292.71 171.69 294.97 152.35 283.83 152.35 281.58"/><polygon class="cls-9" points="173.34 334.37 151.22 321.61 150.45 322.05 173.34 335.26 173.34 334.37"/><path class="cls-12" d="M170.16,293.09a.9.9,0,0,0,.38.72c.21.13.38,0,.38-.28a.92.92,0,0,0-.38-.73C170.33,292.68,170.16,292.81,170.16,293.09Z"/><path class="cls-12" d="M153.5,283.28a.93.93,0,0,0,.38.73c.21.12.38,0,.38-.29a.92.92,0,0,0-.38-.73C153.67,282.87,153.5,283,153.5,283.28Z"/><path class="cls-2" d="M177.77,273s-3.34-2-7.31-4a3.12,3.12,0,0,0-2.74-.21,4.57,4.57,0,0,0-2,1.79c-.47.27-1.23.71-1.71,1a7.17,7.17,0,0,1,3.32-3.73,4.15,4.15,0,0,1,3.57.23c4,2,7.35,4,7.38,4Z"/><path class="cls-2" d="M189.24,258.47l-18.83,10.87c-.42.24-.76,0-.76-.58v-15a1.81,1.81,0,0,1,.76-1.45l18.83-10.87c.42-.25.77,0,.77.57v15A1.84,1.84,0,0,1,189.24,258.47Z"/><polygon class="cls-2" points="169.93 269.39 170.93 269.96 170.85 268.81 169.93 269.39"/><polygon class="cls-2" points="190.76 241.93 189.74 241.35 189.37 243.36 190.76 241.93"/><path class="cls-12" d="M190.27,259.06l-18.83,10.87c-.42.24-.76,0-.76-.58v-15a1.85,1.85,0,0,1,.76-1.46L190.27,242c.42-.24.77,0,.77.58v15A1.85,1.85,0,0,1,190.27,259.06Z"/><polygon class="cls-2" points="190.38 257.34 171.34 268.33 171.34 253.77 190.38 242.78 190.38 257.34"/><path class="cls-8" d="M182.07,263.25l-2.42,1.4c-.13.07-.23,0-.23-.17h0a.54.54,0,0,1,.23-.44l2.42-1.4c.13-.07.23,0,.23.17h0A.54.54,0,0,1,182.07,263.25Z"/><polygon class="cls-8" points="189.37 257.92 172.3 267.77 172.3 254.5 189.37 244.65 189.37 257.92"/><path class="cls-2" d="M205.89,270.08l-18.19,10.5a2.13,2.13,0,0,1-1.9-.08l-13.91-8c-.56-.32-.62-.82-.13-1.1l18.18-10.5a2.13,2.13,0,0,1,1.9.08l13.91,8C206.31,269.3,206.37,269.8,205.89,270.08Z"/><rect class="cls-2" x="171.43" y="270.63" width="1.25" height="1.25"/><rect class="cls-2" x="204.97" y="268.41" width="1.25" height="1.25"/><path class="cls-12" d="M205.89,268.93l-18.19,10.5a2.13,2.13,0,0,1-1.9-.08l-13.91-8c-.56-.32-.62-.82-.13-1.1l18.18-10.5a2.13,2.13,0,0,1,1.9.08l13.91,8C206.31,268.16,206.37,268.65,205.89,268.93Z"/><polygon class="cls-2" points="200.16 265.68 182.14 276.09 172.99 270.81 191.02 260.4 200.16 265.68"/><polygon class="cls-2" points="199.15 271.86 192.77 275.54 189.36 273.57 195.74 269.89 199.15 271.86"/><polygon class="cls-13" points="173.78 270.79 175.04 270.06 175.94 270.58 174.69 271.31 173.78 270.79"/><polygon class="cls-13" points="175.1 271.55 176.35 270.82 177.26 271.34 176 272.07 175.1 271.55"/><polygon class="cls-13" points="176.41 272.31 178.11 271.32 179.01 271.85 177.32 272.83 176.41 272.31"/><polygon class="cls-13" points="192.68 262.92 193.5 262.44 195.72 263.72 194.9 264.2 192.68 262.92"/><polygon class="cls-13" points="177.73 273.06 179.42 272.08 180.33 272.61 178.63 273.59 177.73 273.06"/><polygon class="cls-13" points="179.04 273.82 181.29 272.53 182.19 273.05 179.95 274.35 179.04 273.82"/><polygon class="cls-13" points="192.8 265.88 196.15 263.94 197.06 264.47 193.71 266.4 192.8 265.88"/><polygon class="cls-13" points="180.36 274.58 181.61 273.86 182.52 274.38 181.26 275.11 180.36 274.58"/><polygon class="cls-13" points="175.35 269.88 176.61 269.15 177.52 269.68 176.26 270.4 175.35 269.88"/><polygon class="cls-13" points="176.67 270.64 177.93 269.91 178.83 270.43 177.57 271.16 176.67 270.64"/><polygon class="cls-13" points="176.94 268.96 178.2 268.24 179.11 268.76 177.85 269.48 176.94 268.96"/><polygon class="cls-13" points="178.26 269.72 179.52 268.99 180.42 269.52 179.16 270.24 178.26 269.72"/><polygon class="cls-13" points="178.52 268.05 179.77 267.33 180.68 267.85 179.42 268.57 178.52 268.05"/><polygon class="cls-13" points="179.83 268.81 181.09 268.09 181.99 268.61 180.74 269.33 179.83 268.81"/><polygon class="cls-13" points="180.1 267.14 181.36 266.41 182.26 266.93 181.01 267.66 180.1 267.14"/><polygon class="cls-13" points="181.42 267.9 182.67 267.17 183.58 267.69 182.32 268.42 181.42 267.9"/><polygon class="cls-13" points="181.67 266.23 182.93 265.5 183.84 266.03 182.58 266.75 181.67 266.23"/><polygon class="cls-13" points="182.99 266.99 184.25 266.26 185.15 266.79 183.89 267.51 182.99 266.99"/><polygon class="cls-13" points="183.26 265.31 184.52 264.59 185.43 265.11 184.17 265.83 183.26 265.31"/><polygon class="cls-13" points="184.58 266.07 185.84 265.35 186.74 265.87 185.48 266.59 184.58 266.07"/><polygon class="cls-13" points="178.47 271.12 179.72 270.39 180.63 270.92 179.37 271.64 178.47 271.12"/><polygon class="cls-13" points="179.78 271.88 181.04 271.15 181.94 271.68 180.68 272.4 179.78 271.88"/><polygon class="cls-13" points="180.05 270.2 181.31 269.48 182.22 270 180.96 270.73 180.05 270.2"/><polygon class="cls-13" points="181.37 270.96 182.63 270.24 183.53 270.76 182.27 271.48 181.37 270.96"/><polygon class="cls-13" points="181.63 269.29 182.88 268.57 183.79 269.09 182.53 269.82 181.63 269.29"/><polygon class="cls-13" points="182.94 270.05 184.2 269.33 185.1 269.85 183.85 270.58 182.94 270.05"/><polygon class="cls-13" points="183.21 268.38 184.47 267.65 185.38 268.18 184.12 268.9 183.21 268.38"/><polygon class="cls-13" points="184.53 269.14 185.78 268.41 186.69 268.93 185.43 269.66 184.53 269.14"/><polygon class="cls-13" points="184.78 267.47 186.04 266.74 186.95 267.27 185.69 267.99 184.78 267.47"/><polygon class="cls-13" points="186.1 268.23 187.36 267.5 188.26 268.03 187 268.75 186.1 268.23"/><polygon class="cls-13" points="186.38 266.55 187.63 265.83 188.54 266.35 187.28 267.07 186.38 266.55"/><polygon class="cls-13" points="187.69 267.31 188.95 266.59 189.85 267.11 188.59 267.83 187.69 267.31"/><polygon class="cls-13" points="187.95 265.64 189.21 264.92 190.12 265.44 188.86 266.16 187.95 265.64"/><polygon class="cls-13" points="189.27 266.4 190.53 265.68 191.43 266.2 190.17 266.92 189.27 266.4"/><polygon class="cls-13" points="181.72 272.28 182.98 271.55 183.88 272.07 182.63 272.8 181.72 272.28"/><polygon class="cls-13" points="183.31 271.36 184.57 270.63 185.47 271.15 184.21 271.88 183.31 271.36"/><polygon class="cls-13" points="184.88 270.45 186.14 269.73 187.05 270.25 185.79 270.97 184.88 270.45"/><polygon class="cls-13" points="186.47 269.54 187.73 268.81 188.63 269.33 187.37 270.06 186.47 269.54"/><polygon class="cls-13" points="188.04 268.63 189.3 267.9 190.2 268.42 188.95 269.15 188.04 268.63"/><polygon class="cls-13" points="189.63 267.71 190.89 266.98 191.79 267.51 190.53 268.23 189.63 267.71"/><polygon class="cls-13" points="191.21 266.8 192.47 266.07 193.37 266.6 192.11 267.32 191.21 266.8"/><polygon class="cls-13" points="189.54 264.72 190.8 264 191.71 264.52 190.45 265.25 189.54 264.72"/><polygon class="cls-13" points="190.86 265.48 192.12 264.76 193.02 265.28 191.76 266.01 190.86 265.48"/><polygon class="cls-13" points="191.12 263.82 192.37 263.09 193.28 263.61 192.02 264.34 191.12 263.82"/><polygon class="cls-13" points="192.43 264.57 193.69 263.85 194.59 264.37 193.34 265.1 192.43 264.57"/><polygon class="cls-13" points="184.84 264.4 186.09 263.68 187 264.2 185.74 264.93 184.84 264.4"/><polygon class="cls-13" points="186.15 265.16 187.41 264.44 188.31 264.96 187.06 265.69 186.15 265.16"/><polygon class="cls-13" points="186.45 263.48 187.7 262.75 188.61 263.27 187.35 264 186.45 263.48"/><polygon class="cls-13" points="187.76 264.23 189.02 263.51 189.92 264.03 188.67 264.76 187.76 264.23"/><polygon class="cls-13" points="188.02 262.57 189.28 261.84 190.18 262.36 188.92 263.09 188.02 262.57"/><polygon class="cls-13" points="189.33 263.33 190.59 262.6 191.5 263.12 190.24 263.85 189.33 263.33"/><polygon class="cls-13" points="189.61 261.65 190.87 260.92 191.77 261.44 190.51 262.17 189.61 261.65"/><polygon class="cls-13" points="190.92 262.41 192.18 261.68 193.09 262.2 191.83 262.93 190.92 262.41"/><polygon class="cls-13" points="181.93 273.68 183.19 272.95 184.09 273.47 182.83 274.2 181.93 273.68"/><polygon class="cls-13" points="183.52 272.76 184.78 272.03 185.68 272.55 184.42 273.28 183.52 272.76"/><polygon class="cls-13" points="191.79 268 193.05 267.27 193.96 267.8 192.7 268.52 191.79 268"/><polygon class="cls-13" points="193.37 267.09 194.62 266.36 195.53 266.89 194.27 267.61 193.37 267.09"/><polygon class="cls-13" points="194.96 266.17 197.41 264.8 198.32 265.32 195.86 266.69 194.96 266.17"/><polygon class="cls-13" points="185.11 271.84 191.46 268.17 192.36 268.69 186.01 272.36 185.11 271.84"/><polygon class="cls-13" points="174.44 273.68 172.65 272.64 172.65 272.07 174.44 273.1 174.44 273.68"/><polygon class="cls-13" points="176.51 274.87 174.72 273.84 174.72 273.26 176.51 274.3 176.51 274.87"/><polygon class="cls-10" points="188.54 248.75 173.68 257.32 173.68 257.9 188.54 249.33 188.54 248.75"/><polygon class="cls-10" points="188.54 251.85 173.68 260.43 173.68 261.01 188.54 252.44 188.54 251.85"/><polygon class="cls-10" points="188.54 255.06 173.68 263.64 173.68 264.22 188.54 255.65 188.54 255.06"/><polygon class="cls-12" points="174.24 265.5 173.72 265.8 173.72 255.37 174.24 255.06 174.24 265.5"/><path class="cls-12" d="M197.32,324.14c1-.65,6.29,2.4,6.29,2.4l7.24,2.44-.55,5.45a4.67,4.67,0,0,1-6.15.35c-2.13-1.43-5.86-3.66-7.05-6.1S196.29,324.78,197.32,324.14Z"/><path class="cls-2" d="M207.09,304.1c1.36-4.48,2.46-6.3,5.35-7.46,1.71-.68,5.66-.14,9.75.75a16.79,16.79,0,0,1-1.95,11l-4.05-2.21a25.2,25.2,0,0,0-1.4,4.92,96.1,96.1,0,0,0-1.45,10.11c-.14,2.9-.41,7.2-.41,7.2a7.11,7.11,0,0,1-6.8,1.05,4.18,4.18,0,0,1-2.93-4.78S206.11,307.33,207.09,304.1Z"/><path class="cls-6" d="M239.49,274.72s3.1,5.63,2.72,9.79-7.36,7.82-7.36,7.82L230.65,279Z"/><path class="cls-12" d="M224.61,316.05a2.41,2.41,0,0,1,2.41,2.41v22.22a2.41,2.41,0,1,1-4.82,0V318.46A2.42,2.42,0,0,1,224.61,316.05Z"/><path class="cls-8" d="M224.61,311.42c8.42,0,15.24,3.63,15.24,8.1s-6.82,8.11-15.24,8.11-15.24-3.63-15.24-8.11S216.2,311.42,224.61,311.42Z"/><rect class="cls-8" x="209.37" y="317.99" width="30.48" height="1.76"/><path class="cls-9" d="M224.61,309.89c8.42,0,15.24,3.63,15.24,8.1s-6.82,8.11-15.24,8.11-15.24-3.63-15.24-8.11S216.2,309.89,224.61,309.89Z"/><path class="cls-30" d="M224.61,309.39c8,0,14.52,3.46,14.52,7.73s-6.5,7.72-14.52,7.72-14.52-3.46-14.52-7.72S216.59,309.39,224.61,309.39Z"/><polygon class="cls-30" points="238.36 312.15 239.13 317.12 210.09 317.12 210.86 312.15 238.36 312.15"/><path class="cls-10" d="M224.61,306c7.7,0,13.95,3.32,13.95,7.42s-6.25,7.42-13.95,7.42-14-3.32-14-7.42S216.91,306,224.61,306Z"/><path class="cls-10" d="M224.61,306c7.7,0,13.95,3.32,13.95,7.42s-6.25,7.42-13.95,7.42-14-3.32-14-7.42S216.91,306,224.61,306Z"/><path class="cls-12" d="M240.92,353a4.86,4.86,0,0,1,2,3.87c0,1.5-.91,2.18-2,1.54a4.86,4.86,0,0,1-2-3.88C238.9,353.06,239.8,352.37,240.92,353Z"/><polygon class="cls-12" points="242.25 358.54 240.62 359.48 238.13 353.78 239.69 352.86 242.25 358.54"/><path class="cls-2" d="M239.29,354a4.84,4.84,0,0,1,2,3.87c0,1.5-.9,2.18-2,1.53a4.84,4.84,0,0,1-2-3.87C237.26,354,238.17,353.32,239.29,354Z"/><path class="cls-12" d="M209.43,332.83l32,18.5a1.69,1.69,0,1,1-1.69,2.92l-32-18.49a1.69,1.69,0,0,1-.61-2.31A1.67,1.67,0,0,1,209.43,332.83Z"/><path class="cls-12" d="M207.74,351.33l32-18.5a1.69,1.69,0,1,1,1.69,2.93l-32,18.49a1.69,1.69,0,0,1-1.69-2.92Z"/><path class="cls-12" d="M209.51,334.51a4.85,4.85,0,0,1,2,3.87c0,1.5-.9,2.18-2,1.54a4.86,4.86,0,0,1-2-3.88C207.48,334.55,208.39,333.86,209.51,334.51Z"/><polygon class="cls-12" points="210.83 340.03 209.2 340.97 206.71 335.27 208.28 334.35 210.83 340.03"/><path class="cls-2" d="M207.87,335.46a4.84,4.84,0,0,1,2,3.87c0,1.49-.91,2.18-2,1.53a4.84,4.84,0,0,1-2-3.87C205.84,335.5,206.75,334.81,207.87,335.46Z"/><path class="cls-12" d="M211.48,353.49a4.86,4.86,0,0,1,2,3.88c0,1.49-.91,2.18-2,1.53a4.86,4.86,0,0,1-2-3.87C209.45,353.53,210.36,352.85,211.48,353.49Z"/><polygon class="cls-12" points="212.8 359.01 211.17 359.95 208.69 354.26 210.25 353.34 212.8 359.01"/><path class="cls-2" d="M209.84,354.44a4.86,4.86,0,0,1,2,3.87c0,1.5-.91,2.19-2,1.54a4.86,4.86,0,0,1-2-3.88C207.82,354.48,208.72,353.79,209.84,354.44Z"/><path class="cls-12" d="M242.21,335.56a4.86,4.86,0,0,1,2,3.88c0,1.49-.9,2.18-2,1.53a4.86,4.86,0,0,1-2-3.87C240.18,335.6,241.09,334.92,242.21,335.56Z"/><polygon class="cls-12" points="243.53 341.08 241.9 342.02 239.41 336.33 240.97 335.41 243.53 341.08"/><path class="cls-2" d="M240.57,336.51a4.86,4.86,0,0,1,2,3.88c0,1.49-.9,2.18-2,1.53a4.86,4.86,0,0,1-2-3.88C238.54,336.55,239.45,335.86,240.57,336.51Z"/><path class="cls-12" d="M189.11,329.05c1-.65,6.29,2.41,6.29,2.41l7.24,2.43-.55,5.45a4.67,4.67,0,0,1-6.15.35c-2.13-1.43-5.86-3.66-7.05-6.1S188.08,329.7,189.11,329.05Z"/><path class="cls-31" d="M239.8,282.42l5.1,8.11s-1.55,1.69-6.48-.77a41.24,41.24,0,0,0-9.07-3.55l.93-4.33Z"/><path class="cls-11" d="M236,281.27c-1.16-2.15-2.2-4.12-2.2-4.12l-1.95-9.54s3.29-1.28,5.71.81c1.44,1.24,3.64,5.65,5.36,9.33A12.17,12.17,0,0,1,236,281.27Z"/><path class="cls-6" d="M225.2,251.3a5.42,5.42,0,0,1,7.73,2.64c.95,2-.4,7.41-.61,11.2a9.24,9.24,0,0,0,.85,4.82L230.55,271a7.84,7.84,0,0,1-5.35,0l.08-4.66s-2.82-.42-3.32-.87c-1.19-1.09-1.82-4.33-1.26-8.52C221.52,250.77,224.44,251.83,225.2,251.3Z"/><path class="cls-2" d="M198.88,309c1.36-4.49,2.46-6.31,5.35-7.47,4.19-1.68,21.9,4,21.9,4l12.76.67s.65,5.18-3,7.82-12.39,5.26-18.7,2c-3-1.58-6.3-3.36-9.2-5a24.53,24.53,0,0,0-1.4,4.92,96.1,96.1,0,0,0-1.45,10.11c-.14,2.91-.41,7.21-.41,7.21a7.12,7.12,0,0,1-6.8,1,4.17,4.17,0,0,1-2.93-4.78S197.9,312.24,198.88,309Z"/><path class="cls-8" d="M218.12,284.76c-1.55-3.3,2-9.3,2.94-11.45s4.14-3.47,4.14-3.47l9.56-1.42s4.18,7.27,4.74,11.61c.38,3,.08,8.66-.09,16.38-.11,5.22,2.91,8.44.7,10.72-3.35,3.46-11,5.86-15.31,4.71-2.57-.68-4.33-3.33-6.05-5.44-1.89-2.32-2.87-7.91-.44-10.2C218.61,296.21,221.28,291.51,218.12,284.76Z"/><path class="cls-23" d="M225.24,268.51s3.82,1.13,6.08-.63c3.18-2.48,3.53,1,3.53,1a8.33,8.33,0,0,1-4,2.73,9.64,9.64,0,0,1-7.69-.61C223.13,269.29,225.24,268.51,225.24,268.51Z"/><path class="cls-6" d="M193.37,274.48c1,0,.66-1.66,1.08-2.41.51-.92.92-1,1.08-.19.38,2,1.18,6.18,2.11,6.67a68.83,68.83,0,0,1,10.21,6.78s11.44-12.23,14.37-11.52c1.52.38,2.13,3.61.8,6.94-1.69,4.26-13.18,12.56-13.18,12.56-3.64.75-12.59-8.51-14.45-10.49-1.6-1.7-4.71-3.08-6.27-4.27-2.26-1.74-4-4.07-3.11-6.19.49-1.2,1.9-.4,3.5.54C190.81,273.67,192.23,274.53,193.37,274.48Z"/><path class="cls-11" d="M217,288.48c-3.77-1.16-6.64-4.24-4.94-8.65,3.29-3.15,6.83-6.94,10.28-6.9,1.74,0,2.88,4.86,1.08,8.54C222.25,283.75,219.47,286.36,217,288.48Z"/><path class="cls-2" d="M222.65,258.64c-.31-1.05-1-3.47-1.2-4.45a4.75,4.75,0,0,1,1.28-4.43c1.55-1.62,6.93-2.14,8.88-1s6.08,3.18,4.63,9.89c-1.16,5.42-2.3,6-3.94,7.3a9.37,9.37,0,0,1-4,1.39,4.67,4.67,0,0,1-1.65-3.07c-.08-.65,0-2.61,0-2.61s1.43-2.83.32-3.84-2.39.63-2.67,1.32c-1,2.43-.49,7-.49,7a4.2,4.2,0,0,1-2.87.57c-.78-.2-.09-3.24-.09-3.24S222.42,262.7,222.65,258.64Z"/><path class="cls-30" d="M240.13,281.84l4.35-2.51c4.58-2.64,8.33.19,8.33,6.3v17.44l-21,12.13V297.75C231.8,291.65,235.55,284.48,240.13,281.84Z"/><polygon class="cls-30" points="250.39 283.19 250.01 278.96 253.57 281.08 250.39 283.19"/><polygon class="cls-30" points="235.27 317.25 231.8 315.2 235.9 311.16 235.27 317.25"/><path class="cls-10" d="M243.6,283.9l4.35-2.51c4.58-2.65,8.32.19,8.32,6.3v17.44l-21,12.13V299.81C235.27,293.7,239,286.54,243.6,283.9Z"/><path class="cls-12" d="M245.65,310.78c-.16-5.75,0-10.43,0-12.36,0-2.48,2.73-2.6,2.73-.11,0,3.7.37,11.63.31,13.47-.12,4,2.35,16.51-13.55,17-1.6,0-8.1-.38-9.24-1.13a27.43,27.43,0,0,0,10.68-3.06C246.9,323.59,245.79,315.7,245.65,310.78Z"/></svg>