<svg xmlns="http://www.w3.org/2000/svg" xmlns:xlink="http://www.w3.org/1999/xlink" viewBox="0 0 901 550"><defs><style>.cls-1{mask:url(#mask);filter:url(#luminosity-noclip-4);}.cls-13,.cls-164,.cls-17,.cls-2,.cls-29,.cls-30,.cls-32,.cls-35,.cls-4,.cls-42,.cls-44,.cls-58,.cls-6,.cls-71{mix-blend-mode:multiply;}.cls-2{fill:url(#linear-gradient);}.cls-3{mask:url(#mask-2);filter:url(#luminosity-noclip-5);}.cls-4{fill:url(#linear-gradient-2);}.cls-5{mask:url(#mask-3);filter:url(#luminosity-noclip-6);}.cls-6{fill:url(#linear-gradient-3);}.cls-7{fill:none;}.cls-8{isolation:isolate;}.cls-9{clip-path:url(#clip-path);}.cls-10{fill:#4da0a0;}.cls-11,.cls-13,.cls-15{fill:#5e79a8;}.cls-12{fill:#fff;}.cls-13,.cls-164,.cls-18,.cls-32,.cls-35,.cls-42,.cls-57,.cls-58{opacity:0.3;}.cls-14{fill:#efddc5;}.cls-15,.cls-165,.cls-33,.cls-36,.cls-43{mix-blend-mode:screen;}.cls-15,.cls-156,.cls-165,.cls-30,.cls-33,.cls-36,.cls-43,.cls-71{opacity:0.4;}.cls-16{fill:#888191;}.cls-17,.cls-20,.cls-71{fill:#655e70;}.cls-157,.cls-162,.cls-17,.cls-29,.cls-44,.cls-83{opacity:0.2;}.cls-18{mix-blend-mode:overlay;fill:url(#linear-gradient-4);}.cls-19{opacity:0.05;}.cls-21{fill:#3b4072;}.cls-22{fill:#ffeebd;}.cls-23{mask:url(#mask-4);}.cls-24,.cls-26,.cls-28{opacity:0.5;}.cls-24{fill:url(#linear-gradient-5);}.cls-25{mask:url(#mask-5);}.cls-26{fill:url(#linear-gradient-6);}.cls-27{mask:url(#mask-6);}.cls-28{fill:url(#linear-gradient-7);}.cls-30,.cls-44,.cls-53,.cls-58{fill:#6f9fa3;}.cls-31,.cls-32,.cls-33{fill:#ab7983;}.cls-34,.cls-35,.cls-36{fill:#bfca0f;}.cls-37{fill:#4f4b53;}.cls-38{fill:#66616a;}.cls-39{fill:#e0d3c1;}.cls-40{fill:#cbb79e;}.cls-41,.cls-42,.cls-43{fill:#9c5b1a;}.cls-45{fill:#66789f;}.cls-46{fill:#7585a5;}.cls-47{fill:#415982;}.cls-48{fill:#3b3854;}.cls-49{fill:#515166;}.cls-50{fill:#ffffd2;}.cls-51{fill:#fff6c3;}.cls-52{fill:#889ba5;}.cls-54{fill:#fffde0;}.cls-55{fill:#f6e9c3;}.cls-56{fill:#f9edce;}.cls-59{fill:#817789;}.cls-60{fill:#675f6f;}.cls-61{fill:#afa6b9;}.cls-62{fill:#6a382c;}.cls-63{fill:#b78982;}.cls-64{fill:#532118;}.cls-65{fill:#513f3f;}.cls-66{fill:#f29636;}.cls-67{fill:#b7afbc;}.cls-68{fill:#877991;}.cls-69{fill:#2e666f;}.cls-70{fill:#175058;}.cls-72{fill:#f2b46b;}.cls-73{fill:#75d3cc;}.cls-74{fill:#f24f42;}.cls-75{fill:#0c2d2d;}.cls-76{fill:#bd4959;}.cls-77{fill:#ba354c;}.cls-78{fill:#8cd9f2;}.cls-79{fill:#ecd492;}.cls-80{fill:#cb250c;}.cls-81{fill:#0cb0c1;}.cls-82{fill:#e7410c;}.cls-84{fill:#f2f2f2;}.cls-85{fill:#f2c161;}.cls-86{fill:#f2e58f;}.cls-87{fill:#a82945;}.cls-88{fill:#0c969d;}.cls-89{fill:#0c7471;}.cls-90{fill:#871d33;}.cls-91{fill:#4b4353;}.cls-92{fill:#e5d8c6;}.cls-93{fill:#655b6d;}.cls-94{fill:#988770;}.cls-95{fill:#81705c;}.cls-96{fill:#2a82be;}.cls-97{fill:#4b99d8;}.cls-98{fill:#c8f2e8;}.cls-99{fill:#ea9a52;}.cls-100{fill:#2c2532;}.cls-101{fill:#398dc6;}.cls-102{fill:#a8e5d9;}.cls-103{fill:#89dad6;}.cls-104{fill:#6f3d0c;}.cls-105{fill:#f1a65c;}.cls-106{fill:#844e0d;}.cls-107{fill:#49220c;}.cls-108{fill:#a7631a;}.cls-109{fill:#914f0e;}.cls-110{fill:#eba85f;}.cls-111{fill:#e0a4a4;}.cls-112{fill:#d99595;}.cls-113{fill:#9e1f0e;}.cls-114{fill:#47100d;}.cls-115{fill:#201926;}.cls-116{fill:#332b3b;}.cls-117{fill:#ebb6b6;}.cls-118{fill:#eb6467;}.cls-119{fill:#de515a;}.cls-120{fill:#de8e46;}.cls-121{fill:#591e0d;}.cls-122{fill:#d18641;}.cls-123{fill:#702f18;}.cls-124{fill:#ebc4a9;}.cls-125{fill:#e3a3a3;}.cls-126{fill:#5f576b;}.cls-127{fill:#343138;}.cls-128{fill:#726a7a;}.cls-129{fill:#5d5566;}.cls-130{fill:#1d1b21;}.cls-131{fill:#7dceca;}.cls-132{fill:#3f8dcc;}.cls-133{fill:#bce8dc;}.cls-134{fill:#2d81ba;}.cls-135{fill:#9cd9cd;}.cls-136{fill:#1e76b2;}.cls-137{fill:#3d160d;}.cls-138{fill:#63310d;}.cls-139{fill:#e59a50;}.cls-140{fill:#4299d4;}.cls-141{fill:#285873;}.cls-142{fill:#73390d;}.cls-143{fill:#cde7eb;}.cls-144{fill:#bedde5;}.cls-145{fill:#a5cdd6;}.cls-146{fill:#ebebeb;}.cls-147{fill:#a2c9db;}.cls-148,.cls-156{fill:#f2e9cc;}.cls-149{fill:#e2d5af;}.cls-150{fill:#e5d9ba;}.cls-151,.cls-157,.cls-158{fill:#534b5b;}.cls-152{fill:#484151;}.cls-153{fill:#8f8199;}.cls-154{fill:#a08f78;}.cls-155{fill:#f4dc9a;}.cls-158{opacity:0.1;}.cls-159{fill:#b51c15;}.cls-160,.cls-162{fill:#ede0ce;}.cls-161{fill:#990a0a;}.cls-163,.cls-164,.cls-165{fill:#857869;}.cls-166{filter:url(#luminosity-noclip-3);}.cls-167{filter:url(#luminosity-noclip-2);}.cls-168{filter:url(#luminosity-noclip);}</style><filter id="luminosity-noclip" x="40.17" y="-8467" width="189.83" height="32766" filterUnits="userSpaceOnUse" color-interpolation-filters="sRGB"><feFlood flood-color="#fff" result="bg"/><feBlend in="SourceGraphic" in2="bg"/></filter><mask id="mask" x="40.17" y="-8467" width="189.83" height="32766" maskUnits="userSpaceOnUse"><g class="cls-168"/></mask><linearGradient id="linear-gradient" x1="135.09" y1="31.17" x2="135.09" y2="86.63" gradientUnits="userSpaceOnUse"><stop offset="0" stop-color="#fff"/><stop offset="1"/></linearGradient><filter id="luminosity-noclip-2" x="353.67" y="-8467" width="189.83" height="32766" filterUnits="userSpaceOnUse" color-interpolation-filters="sRGB"><feFlood flood-color="#fff" result="bg"/><feBlend in="SourceGraphic" in2="bg"/></filter><mask id="mask-2" x="353.67" y="-8467" width="189.83" height="32766" maskUnits="userSpaceOnUse"><g class="cls-167"/></mask><linearGradient id="linear-gradient-2" x1="448.59" y1="31.17" x2="448.59" y2="86.63" xlink:href="#linear-gradient"/><filter id="luminosity-noclip-3" x="667.17" y="-8467" width="189.83" height="32766" filterUnits="userSpaceOnUse" color-interpolation-filters="sRGB"><feFlood flood-color="#fff" result="bg"/><feBlend in="SourceGraphic" in2="bg"/></filter><mask id="mask-3" x="667.17" y="-8467" width="189.83" height="32766" maskUnits="userSpaceOnUse"><g class="cls-166"/></mask><linearGradient id="linear-gradient-3" x1="762.09" y1="31.17" x2="762.09" y2="86.63" xlink:href="#linear-gradient"/><clipPath id="clip-path"><rect class="cls-7" width="900" height="550"/></clipPath><linearGradient id="linear-gradient-4" x1="450" y1="551" x2="450" y2="13.91" gradientUnits="userSpaceOnUse"><stop offset="0" stop-color="#ffe8b6"/><stop offset="1" stop-color="#008a93"/></linearGradient><filter id="luminosity-noclip-4" x="40.17" y="32.36" width="189.83" height="57.3" filterUnits="userSpaceOnUse" color-interpolation-filters="sRGB"><feFlood flood-color="#fff" result="bg"/><feBlend in="SourceGraphic" in2="bg"/></filter><mask id="mask-4" x="40.17" y="32.36" width="189.83" height="57.3" maskUnits="userSpaceOnUse"><g class="cls-1"><polygon class="cls-2" points="58.22 32.36 40.17 89.66 230 89.66 208.7 32.36 58.22 32.36"/></g></mask><linearGradient id="linear-gradient-5" x1="135.09" y1="31.17" x2="135.09" y2="86.63" gradientUnits="userSpaceOnUse"><stop offset="0" stop-color="#ffeebd"/><stop offset="1" stop-color="#ffeebd"/></linearGradient><filter id="luminosity-noclip-5" x="353.67" y="32.36" width="189.83" height="57.3" filterUnits="userSpaceOnUse" color-interpolation-filters="sRGB"><feFlood flood-color="#fff" result="bg"/><feBlend in="SourceGraphic" in2="bg"/></filter><mask id="mask-5" x="353.67" y="32.36" width="189.83" height="57.3" maskUnits="userSpaceOnUse"><g class="cls-3"><polygon class="cls-4" points="371.72 32.36 353.67 89.66 543.5 89.66 522.2 32.36 371.72 32.36"/></g></mask><linearGradient id="linear-gradient-6" x1="448.59" y1="31.17" x2="448.59" y2="86.63" xlink:href="#linear-gradient-5"/><filter id="luminosity-noclip-6" x="667.17" y="32.36" width="189.83" height="57.3" filterUnits="userSpaceOnUse" color-interpolation-filters="sRGB"><feFlood flood-color="#fff" result="bg"/><feBlend in="SourceGraphic" in2="bg"/></filter><mask id="mask-6" x="667.17" y="32.36" width="189.83" height="57.3" maskUnits="userSpaceOnUse"><g class="cls-5"><polygon class="cls-6" points="685.22 32.36 667.17 89.66 857 89.66 835.7 32.36 685.22 32.36"/></g></mask><linearGradient id="linear-gradient-7" x1="762.09" y1="31.17" x2="762.09" y2="86.63" xlink:href="#linear-gradient-5"/></defs><g class="cls-8"><g id="_1" data-name="1"><g class="cls-9"><rect class="cls-10" width="900" height="550"/><polygon class="cls-11" points="110.02 359.39 106.38 356.2 103.6 356.2 99.96 359.39 99.96 380.38 110.02 380.38 110.02 359.39"/><rect class="cls-12" x="101.99" y="353.58" width="5.63" height="2.93"/><polygon class="cls-13" points="106.02 380.38 110.02 380.38 110.02 359.39 106.02 359.65 106.02 380.38"/><polygon class="cls-13" points="106.38 356.2 103.6 356.2 102 357.61 107.98 357.61 106.38 356.2"/><rect class="cls-14" x="105.87" y="353.58" width="1.76" height="2.93"/><rect class="cls-14" x="101.99" y="355.77" width="5.63" height="0.75"/><polygon class="cls-15" points="99.96 359.39 103.22 359.75 103.22 380.5 99.91 380.5 99.96 359.39"/><rect class="cls-16" y="417" width="900" height="133"/><path class="cls-17" d="M0,443.56H135.93v-8.44s71.88,8.76,84.48-15.18H0Z"/><path class="cls-17" d="M772.57,419.94v3.7h97.1V428s18,3.12,30.33,1.25V418.78Z"/><rect class="cls-18" width="900" height="550"/><g class="cls-19"><rect class="cls-20" x="1" y="527" width="900" height="3"/><rect class="cls-20" x="1" y="498.33" width="900" height="3"/><rect class="cls-20" x="1" y="472.93" width="900" height="2.95"/><rect class="cls-20" x="1" y="449.07" width="900" height="2.95"/><rect class="cls-20" x="1" y="432.18" width="900" height="2.95"/></g><rect class="cls-21" x="190.97" width="2.72" height="27.23"/><rect class="cls-21" x="74.05" width="2.72" height="27.23"/><rect class="cls-21" x="58.22" y="20.2" width="150.47" height="12.17"/><rect class="cls-22" x="58.22" y="29.91" width="150.47" height="2.46"/><rect class="cls-21" x="72.01" y="16.16" width="6.81" height="11.08"/><rect class="cls-21" x="188.93" y="16.16" width="6.81" height="11.08"/><g class="cls-23"><polygon class="cls-24" points="58.22 32.36 40.17 89.66 230 89.66 208.7 32.36 58.22 32.36"/></g><rect class="cls-21" x="504.47" width="2.72" height="27.23"/><rect class="cls-21" x="387.55" width="2.72" height="27.23"/><rect class="cls-21" x="371.72" y="20.2" width="150.47" height="12.17"/><rect class="cls-22" x="371.72" y="29.91" width="150.47" height="2.46"/><rect class="cls-21" x="385.51" y="16.16" width="6.81" height="11.08"/><rect class="cls-21" x="502.43" y="16.16" width="6.81" height="11.08"/><g class="cls-25"><polygon class="cls-26" points="371.72 32.36 353.67 89.66 543.5 89.66 522.2 32.36 371.72 32.36"/></g><rect class="cls-21" x="817.97" width="2.72" height="27.23"/><rect class="cls-21" x="701.05" width="2.72" height="27.23"/><rect class="cls-21" x="685.22" y="20.2" width="150.47" height="12.17"/><rect class="cls-22" x="685.22" y="29.91" width="150.47" height="2.46"/><rect class="cls-21" x="699.01" y="16.16" width="6.81" height="11.08"/><rect class="cls-21" x="815.93" y="16.16" width="6.81" height="11.08"/><g class="cls-27"><polygon class="cls-28" points="685.22 32.36 667.17 89.66 857 89.66 835.7 32.36 685.22 32.36"/></g><g class="cls-29"><rect class="cls-30" x="794.85" y="220.52" width="42.39" height="8.14"/><rect class="cls-30" x="794.85" y="242.94" width="42.39" height="8.14"/><rect class="cls-30" x="794.85" y="264.46" width="42.39" height="8.14"/><rect class="cls-30" x="794.85" y="285.93" width="42.39" height="8.14"/><rect class="cls-30" x="794.85" y="308.44" width="42.39" height="8.14"/><rect class="cls-30" x="794.85" y="332.42" width="42.39" height="8.14"/><rect class="cls-30" x="794.85" y="356.14" width="42.39" height="8.14"/><rect class="cls-30" x="794.85" y="382.34" width="42.39" height="8.14"/></g><rect class="cls-20" y="414.3" width="900" height="5.59"/><polygon class="cls-31" points="73.34 289.41 70.14 286.62 67.71 286.62 64.51 289.41 64.51 299.79 73.34 299.79 73.34 289.41"/><rect class="cls-12" x="66.3" y="284.32" width="4.94" height="2.57"/><polygon class="cls-32" points="69.83 299.49 73.34 299.49 73.34 289.41 69.83 289.64 69.83 299.49"/><polygon class="cls-32" points="70.14 286.62 67.71 286.62 66.3 287.85 71.55 287.85 70.14 286.62"/><rect class="cls-14" x="69.7" y="284.32" width="1.54" height="2.57"/><rect class="cls-14" x="66.3" y="286.23" width="4.94" height="0.65"/><polygon class="cls-33" points="64.51 289.41 67.37 289.73 67.37 299.49 64.47 299.49 64.51 289.41"/><polygon class="cls-34" points="122.28 289.41 119.08 286.62 116.65 286.62 113.45 289.41 113.45 299.79 122.28 299.79 122.28 289.41"/><rect class="cls-12" x="115.24" y="284.32" width="4.94" height="2.57"/><polygon class="cls-35" points="118.77 299.55 122.28 299.55 122.28 289.41 118.77 289.64 118.77 299.55"/><polygon class="cls-35" points="119.08 286.62 116.65 286.62 115.24 287.85 120.49 287.85 119.08 286.62"/><rect class="cls-14" x="118.64" y="284.32" width="1.54" height="2.57"/><rect class="cls-14" x="115.24" y="286.23" width="4.94" height="0.65"/><polygon class="cls-36" points="113.45 289.41 116.31 289.73 116.31 299.55 113.41 299.55 113.45 289.41"/><path class="cls-37" d="M846.94,418.78a3.63,3.63,0,1,1-3.63-3.63A3.63,3.63,0,0,1,846.94,418.78Z"/><circle class="cls-38" cx="843.31" cy="418.78" r="2.05"/><polygon class="cls-39" points="795.26 222.4 795.29 220.53 837.23 220.53 837.26 222.4 795.26 222.4"/><polygon class="cls-40" points="795.26 222.4 795.29 221.69 837.23 221.69 837.26 222.4 795.26 222.4"/><polygon class="cls-39" points="794.91 243.06 794.94 241.11 837.58 241.11 837.61 243.06 794.91 243.06"/><polygon class="cls-39" points="794.55 264.4 794.59 262.39 837.94 262.39 837.97 264.4 794.55 264.4"/><polygon class="cls-40" points="795.26 243.06 795.29 242.35 837.23 242.35 837.26 243.06 795.26 243.06"/><polygon class="cls-39" points="794.18 286.48 794.22 284.4 838.31 284.4 838.34 286.48 794.18 286.48"/><polygon class="cls-39" points="793.8 309.32 793.83 307.17 838.69 307.17 838.73 309.32 793.8 309.32"/><polygon class="cls-39" points="793.4 332.98 793.44 330.75 839.09 330.75 839.13 332.98 793.4 332.98"/><polygon class="cls-39" points="792.99 357.48 793.03 355.17 839.5 355.17 839.54 357.48 792.99 357.48"/><polygon class="cls-39" points="792.56 382.89 792.6 380.5 839.92 380.5 839.97 382.89 792.56 382.89"/><polygon class="cls-40" points="795.26 264.4 795.29 263.69 837.23 263.69 837.26 264.4 795.26 264.4"/><polygon class="cls-40" points="795.26 286.48 795.29 285.77 837.23 285.77 837.26 286.48 795.26 286.48"/><polygon class="cls-40" points="795.26 309.32 795.29 308.61 837.23 308.61 837.26 309.32 795.26 309.32"/><polygon class="cls-40" points="795.26 332.98 795.29 332.27 837.23 332.27 837.26 332.98 795.26 332.98"/><polygon class="cls-40" points="795.26 357.48 795.29 356.77 837.23 356.77 837.26 357.48 795.26 357.48"/><polygon class="cls-40" points="795.26 382.89 795.29 382.18 837.23 382.18 837.26 382.89 795.26 382.89"/><ellipse class="cls-37" cx="837.26" cy="204.86" rx="1.81" ry="4.53"/><path class="cls-37" d="M797.3,201.45c0,2.5-.91,4.51-1.91,4.49s-1.76-2.07-1.7-4.57.91-4.51,1.91-4.49S797.36,199,797.3,201.45Z"/><rect class="cls-38" x="791.99" y="200.33" width="7.01" height="7.06"/><rect class="cls-38" x="833.76" y="204.11" width="7.01" height="7.06"/><polygon class="cls-39" points="794.85 417.63 789.04 417.63 793.07 203.62 798.02 203.62 794.85 417.63"/><path class="cls-40" d="M837.65,413.43h5.8s9.32,2,9.46,4.2H837.65Z"/><polygon class="cls-39" points="843.45 417.63 837.65 417.63 834.53 207.39 839.49 207.39 843.45 417.63"/><circle class="cls-37" cx="789.18" cy="418.78" r="3.63"/><circle class="cls-38" cx="789.18" cy="418.78" r="2.05"/><path class="cls-39" d="M794.85,413.43H789s-9.32,2-9.46,4.2h15.27Z"/><polygon class="cls-40" points="796.44 203.62 792.4 417.63 794.85 417.63 798.02 203.62 796.44 203.62"/><polygon class="cls-40" points="839.49 207.39 837.68 207.39 841.64 417.63 843.45 417.63 839.49 207.39"/><polygon class="cls-41" points="92.62 282.7 87.35 278.1 83.34 278.1 78.08 282.7 78.08 299.79 92.62 299.79 92.62 282.7"/><rect class="cls-12" x="81.02" y="274.31" width="8.14" height="4.23"/><polygon class="cls-42" points="86.83 299.55 92.62 299.55 92.62 282.7 86.83 283.07 86.83 299.55"/><polygon class="cls-42" points="87.35 278.1 83.34 278.1 81.03 280.12 89.66 280.12 87.35 278.1"/><rect class="cls-14" x="86.62" y="274.31" width="2.54" height="4.23"/><rect class="cls-14" x="81.02" y="277.47" width="8.14" height="1.08"/><polygon class="cls-43" points="78.08 282.7 82.79 283.22 82.79 299.55 78 299.55 78.08 282.7"/><polygon class="cls-11" points="109.12 287.96 105.47 284.77 102.7 284.77 99.05 287.96 99.05 299.79 109.12 299.79 109.12 287.96"/><rect class="cls-12" x="101.09" y="282.15" width="5.63" height="2.93"/><polygon class="cls-13" points="105.11 299.55 109.12 299.55 109.12 287.96 105.11 288.22 105.11 299.55"/><polygon class="cls-13" points="105.47 284.77 102.7 284.77 101.1 286.18 107.07 286.18 105.47 284.77"/><rect class="cls-14" x="104.96" y="282.15" width="1.76" height="2.93"/><rect class="cls-14" x="101.09" y="284.34" width="5.63" height="0.75"/><polygon class="cls-15" points="99.05 287.96 102.31 288.32 102.31 299.55 99 299.55 99.05 287.96"/><rect class="cls-44" y="154.42" width="131.8" height="26.17"/><rect class="cls-44" y="234.73" width="131.8" height="26.17"/><rect class="cls-44" y="318.78" width="131.8" height="26.17"/><polygon class="cls-45" points="46.54 344.22 46.86 350.92 37.39 346.97 39.56 344.53 46.54 344.22"/><path class="cls-46" d="M11,385.17a5,5,0,0,0,4.75,5.15L46,390.26a5,5,0,0,0,4.73-5.17l-.07-30.37a7,7,0,0,0-4.75-5.15L35.6,346.42l-.52-5.87a5.61,5.61,0,0,0-5.6-5.11l-13.85,0a5,5,0,0,0-4.72,5.17Zm4.25-44.09a1.42,1.42,0,0,1,1.42-1.42l12.76,0A1.4,1.4,0,0,1,30.78,341v3.93a1.41,1.41,0,0,1-1.41,1.42l-12.73,0A1.42,1.42,0,0,1,15.22,345Z"/><rect class="cls-45" x="21.74" y="359.89" width="18.1" height="18.1" transform="translate(-0.8 0.07) rotate(-0.12)"/><path class="cls-45" d="M22.82,359.91s-6.71-8.08-7.81-7.42,6.71,9,6.71,9Z"/><path class="cls-45" d="M38.52,359.87s6.68-8.1,7.78-7.44-6.67,9-6.67,9Z"/><path class="cls-45" d="M22.86,378s-6.68,8.11-7.78,7.45,6.67-9,6.67-9Z"/><path class="cls-45" d="M38.56,377.94s6.71,8.08,7.82,7.41-6.72-9-6.72-9Z"/><path class="cls-45" d="M29.37,346.36l-12.73,0a1.45,1.45,0,0,1-.59-.13,1.33,1.33,0,0,0,1.27.91l12.12,0a1.34,1.34,0,0,0,1.34-1.36V345A1.41,1.41,0,0,1,29.37,346.36Z"/><path class="cls-47" d="M50.62,354.72a6.84,6.84,0,0,0-3.8-4.74l-.28-5.76-7,.31L37.39,347l-1.79-.55-.52-5.87a5.61,5.61,0,0,0-5.6-5.11l-13.85,0a5,5,0,0,0-4.72,5.17L11,385.17a5,5,0,0,0,4.75,5.15L46,390.26a5,5,0,0,0,4.73-5.17ZM45.24,389,16.42,389a4.73,4.73,0,0,1-4.52-4.91l-.05-42.42a4.73,4.73,0,0,1,4.51-4.92l13.18,0a5.34,5.34,0,0,1,5.33,4.87l.5,5.59,1.7.53,2.08-2.32,6.64-.3.27,5.48a6.59,6.59,0,0,1,3.62,4.52L49.74,384A4.73,4.73,0,0,1,45.24,389Z"/><polygon class="cls-48" points="67.65 353.69 67.91 359.01 60.38 355.88 62.11 353.94 67.65 353.69"/><path class="cls-49" d="M39.37,386.23a4,4,0,0,0,3.78,4.1l24-.06a3.94,3.94,0,0,0,3.76-4.1L70.89,362A5.56,5.56,0,0,0,67.12,358L59,355.44l-.41-4.67a4.46,4.46,0,0,0-4.45-4.06l-11,0a3.93,3.93,0,0,0-3.75,4.1Zm3.39-35a1.12,1.12,0,0,1,1.12-1.13L54,350a1.1,1.1,0,0,1,1.1,1.1v3.12A1.12,1.12,0,0,1,54,355.39l-10.11,0a1.14,1.14,0,0,1-1.13-1.13Z"/><rect class="cls-48" x="47.94" y="366.14" width="14.38" height="14.38" transform="translate(-0.81 0.12) rotate(-0.12)"/><path class="cls-48" d="M48.8,366.16s-5.33-6.42-6.21-5.89,5.34,7.12,5.34,7.12Z"/><path class="cls-48" d="M61.28,366.13s5.3-6.44,6.18-5.92-5.3,7.15-5.3,7.15Z"/><path class="cls-48" d="M48.83,380.51s-5.3,6.44-6.18,5.92,5.3-7.14,5.3-7.14Z"/><path class="cls-48" d="M61.31,380.49s5.33,6.41,6.21,5.89-5.34-7.12-5.34-7.12Z"/><rect class="cls-50" x="6.09" y="268.58" width="18.53" height="3.19" transform="translate(-151.31 56.98) rotate(-34.77)"/><rect class="cls-50" x="12.01" y="267.14" width="3.78" height="1.97" transform="translate(-150.41 55.79) rotate(-34.77)"/><rect class="cls-50" x="13.74" y="269.97" width="14.53" height="16.36" transform="translate(-154.86 61.63) rotate(-34.77)"/><polygon class="cls-50" points="29.9 287.62 26.77 289.79 19.7 289.01 31.64 280.72 29.9 287.62"/><rect class="cls-49" x="27.59" y="288.4" width="3.43" height="3.4" transform="translate(-160.19 68.49) rotate(-34.76)"/><rect class="cls-49" x="24.72" y="290.8" width="13.86" height="6.53" transform="translate(-162.03 70.54) rotate(-34.77)"/><rect class="cls-49" x="24.49" y="295.86" width="2.23" height="4.7" transform="translate(-165.48 67.84) rotate(-34.77)"/><rect class="cls-49" x="23.29" y="298.4" width="2.15" height="2.31" transform="translate(-166.47 67.37) rotate(-34.77)"/><polygon class="cls-49" points="43.18 283.15 36.89 289.46 35.48 287.43 42.68 282.43 43.18 283.15"/><path class="cls-49" d="M36.89,289.46s10.22,7.16,10.82,9.85-11.47-4-14.52-2.34Z"/><path class="cls-49" d="M30.64,298.75S35.7,301,38.29,300c0,0-5.94-1.79-6.18-2.89Z"/><rect class="cls-51" x="6.78" y="270.39" width="18.53" height="1.59" transform="translate(-151.77 57.56) rotate(-34.77)"/><polygon class="cls-51" points="22.31 267.29 18.07 270.18 27.4 283.61 26.77 289.79 29.9 287.62 31.64 280.72 22.31 267.29"/><path class="cls-52" d="M25.4,295.16l1.1,1.75S41.34,285,40.93,284.45,25.4,295.16,25.4,295.16Z"/><rect class="cls-52" x="24.18" y="296.18" width="1.18" height="2.29" transform="translate(-165.12 67.2) rotate(-34.77)"/><rect class="cls-52" x="27.96" y="288.89" width="1.18" height="3.02" transform="translate(-160.49 68.12) rotate(-34.76)"/><rect class="cls-52" x="23.57" y="298.49" width="1.18" height="1.75" transform="translate(-166.39 67.21) rotate(-34.77)"/><path class="cls-52" d="M31.79,299.09l.49-.35s3.1,1.23,3.94,1.49C36.22,300.23,32.6,299.8,31.79,299.09Z"/><path class="cls-48" d="M33.19,297l3.7-7.51S36.34,295.16,33.19,297Z"/><g class="cls-29"><ellipse class="cls-53" cx="29.98" cy="109.41" rx="22.69" ry="24.72" transform="translate(-47.02 26.1) rotate(-27.43)"/></g><path class="cls-54" d="M52.66,99C46.4,86.89,32.31,81.73,21.19,87.48s-15,20.22-8.78,32.33,20.36,17.27,31.47,11.52S58.93,111.11,52.66,99Zm-9.84,30.28c-10.07,5.21-22.84.53-28.52-10.44s-2.12-24.1,8-29.31S45.1,89,50.78,100,52.89,124.07,42.82,129.28Z"/><path class="cls-55" d="M50.78,100C45.1,89,32.33,84.32,22.26,89.53s-13.64,18.33-8,29.31,18.45,15.65,28.52,10.44S56.46,111,50.78,100Zm-9.36,26.6c-8.7,4.5-19.73.46-24.63-9S15,96.74,23.66,92.24s19.73-.46,24.63,9S50.12,122.07,41.42,126.57Z"/><path class="cls-54" d="M31.1,105.75l.16.16-.11.18h3.54s2.08-9.56,6.41-14.46a19.15,19.15,0,0,0-14.37-2.21l-.35.2S30.2,94.85,31.1,105.75Z"/><path class="cls-54" d="M34.52,112.39l-.16-.16.11-.18H30.93S28.73,122.24,24.1,127c0,0,0,.14.15.36,6.18,3.47,12.89,2.92,15.32,1.44C39.57,128.78,35.42,123.29,34.52,112.39Z"/><path class="cls-54" d="M34.65,106.19l1.63,3,.12.06c.74-.21,9.42-2.53,15.51-1.18a22.39,22.39,0,0,0-2.34-7.52,22.72,22.72,0,0,0-3.47-4.95C44.68,97.76,41.3,102,34.65,106.19Z"/><path class="cls-54" d="M31,112l-1.63-3-.12-.06c-.77.21-10,2.7-16.14,1a22.69,22.69,0,0,0,6,13.37C20.07,121.54,23.4,116.76,31,112Z"/><path class="cls-54" d="M36.28,109.24l-.05,0-1.76,2.84-.11.18.16.16c1,1,7.67,8.36,9.14,14.26.77-.3,6.74-2.7,8.2-12.8-2.08,0-7.74-.59-15.46-4.55Z"/><path class="cls-54" d="M29.22,108.84l.12.06.05,0,1.76-2.83.11-.18-.16-.16c-1-1-7.61-8.28-9.07-14.18-1.27,1-6.92,2.64-8.72,12.71C14.89,104.27,20.85,104.54,29.22,108.84Z"/><path class="cls-55" d="M37.25,107a5.55,5.55,0,0,1-2.06,7.57,5.8,5.8,0,0,1-5.31-10.27A5.57,5.57,0,0,1,37.25,107Z"/><path class="cls-54" d="M36.42,107.4a4.58,4.58,0,0,1-1.7,6.23,4.77,4.77,0,0,1-4.37-8.45A4.58,4.58,0,0,1,36.42,107.4Z"/><path class="cls-12" d="M33.56,107.28a2,2,0,1,1-2.7-1A2,2,0,0,1,33.56,107.28Z"/><path class="cls-12" d="M14.32,120.31c-6.05-11.69-2.26-25.67,8.47-31.21,7.09-3.67,15.42-2.72,22,1.7C38,85.65,29.11,84.35,21.59,88.24c-10.73,5.55-14.53,19.52-8.48,31.21a25.33,25.33,0,0,0,8.38,9.42A25.39,25.39,0,0,1,14.32,120.31Z"/><path class="cls-56" d="M33.4,97c1.45.14,3-5,3.65-7.13a19.11,19.11,0,0,0-5.23-.93C31.81,91,31.9,96.82,33.4,97Z"/><path class="cls-56" d="M21.58,114.64c-.55-1.22-5-.34-7.45.23a21.79,21.79,0,0,0,1.38,3.34c.22.45.47.87.72,1.29C18.43,118.22,22.11,115.84,21.58,114.64Z"/><path class="cls-56" d="M22.83,102.07c1-1.28-3.69-6.32-4.91-7.59a14.42,14.42,0,0,0-3,4.54C16.39,100,21.86,103.33,22.83,102.07Z"/><path class="cls-56" d="M32.27,121.67c-1.52-.1-3,5.54-3.5,7.52a19.83,19.83,0,0,0,5.33.74C34.07,128.07,33.84,121.77,32.27,121.67Z"/><path class="cls-56" d="M42.74,116.49c-1,1.36,3.95,6.65,4.73,7.46a15.33,15.33,0,0,0,2.91-4.61C48.53,118.19,43.64,115.31,42.74,116.49Z"/><path class="cls-56" d="M43.87,104.15c.49,1.2,4.69.54,7.17,0a21.94,21.94,0,0,0-1.47-3.58c-.18-.34-.36-.66-.55-1C46.77,100.87,43.39,103,43.87,104.15Z"/><g class="cls-57"><ellipse class="cls-58" cx="32" cy="191.47" rx="22.69" ry="24.72" transform="translate(-84.6 36.26) rotate(-27.43)"/></g><path class="cls-59" d="M54.69,181.06C48.42,169,34.33,163.8,23.22,169.55s-15,20.22-8.78,32.33,20.35,17.26,31.47,11.52S61,193.17,54.69,181.06Zm-9.84,30.28c-10.08,5.21-22.85.54-28.53-10.44s-2.11-24.09,8-29.3S47.12,171.06,52.8,182,54.92,206.13,44.85,211.34Z"/><path class="cls-60" d="M52.8,182c-5.68-11-18.45-15.65-28.52-10.44s-13.63,18.33-8,29.3,18.45,15.65,28.53,10.44S58.48,193,52.8,182Zm-9.36,26.59c-8.7,4.5-19.72.47-24.63-9S17,178.81,25.68,174.31s19.73-.46,24.64,9S52.14,204.13,43.44,208.63Z"/><path class="cls-59" d="M33.13,187.81l.16.16-.12.18h3.54s2.08-9.55,6.42-14.46a19.23,19.23,0,0,0-14.38-2.21l-.34.2S32.23,176.91,33.13,187.81Z"/><path class="cls-59" d="M36.54,194.46l-.16-.16.12-.19H33s-2.21,10.2-6.83,14.94c0,0,.05.13.15.35,6.17,3.48,12.88,2.92,15.31,1.45C41.59,210.85,37.44,205.36,36.54,194.46Z"/><path class="cls-59" d="M36.68,188.25l1.63,3.06.11.05c.75-.2,9.42-2.53,15.51-1.18a22.53,22.53,0,0,0-2.34-7.52,22.29,22.29,0,0,0-3.47-4.95C46.7,179.83,43.33,184,36.68,188.25Z"/><path class="cls-59" d="M33,194l-1.64-3-.11-.06c-.77.22-10,2.71-16.14,1a22.4,22.4,0,0,0,2.42,8.34,23.16,23.16,0,0,0,3.54,5C22.1,203.6,25.43,198.82,33,194Z"/><path class="cls-59" d="M38.31,191.31l-.06,0-1.75,2.83-.12.19.16.16c1.05,1,7.67,8.36,9.14,14.26.77-.3,6.74-2.7,8.2-12.81-2.07,0-7.73-.58-15.46-4.55Z"/><path class="cls-59" d="M31.25,190.9l.11.06.06,0,1.75-2.84.12-.18-.16-.16c-1.05-1-7.61-8.27-9.08-14.17-1.27,1-6.91,2.64-8.71,12.71C16.92,186.33,22.87,186.6,31.25,190.9Z"/><path class="cls-60" d="M39.27,189a5.55,5.55,0,0,1-2.05,7.57,5.8,5.8,0,0,1-5.31-10.26A5.55,5.55,0,0,1,39.27,189Z"/><path class="cls-59" d="M38.44,189.46a4.58,4.58,0,0,1-1.69,6.24,4.78,4.78,0,0,1-4.37-8.46A4.58,4.58,0,0,1,38.44,189.46Z"/><path class="cls-61" d="M35.59,189.35a2,2,0,1,1-2.7-1A2,2,0,0,1,35.59,189.35Z"/><path class="cls-61" d="M16.34,202.37c-6.05-11.69-2.25-25.66,8.48-31.21,7.08-3.66,15.41-2.71,22,1.71-6.75-5.15-15.68-6.46-23.21-2.56-10.73,5.54-14.52,19.52-8.47,31.21a25.28,25.28,0,0,0,8.37,9.41A25.53,25.53,0,0,1,16.34,202.37Z"/><path class="cls-60" d="M35.43,179c1.45.14,3-5,3.65-7.13a19.58,19.58,0,0,0-5.23-.94C33.83,173.08,33.93,178.88,35.43,179Z"/><path class="cls-60" d="M23.61,196.71c-.55-1.23-5-.35-7.45.22a23.36,23.36,0,0,0,1.37,3.35c.23.44.47.87.73,1.29C20.45,200.28,24.14,197.9,23.61,196.71Z"/><path class="cls-60" d="M24.85,184.13c1-1.28-3.69-6.32-4.9-7.59a14.72,14.72,0,0,0-3.05,4.54C18.41,182,23.89,185.4,24.85,184.13Z"/><path class="cls-60" d="M34.29,203.73c-1.52-.1-3,5.55-3.49,7.53a19.69,19.69,0,0,0,5.33.73C36.1,210.14,35.86,203.83,34.29,203.73Z"/><path class="cls-60" d="M44.76,198.56c-1,1.36,4,6.65,4.74,7.46a15.45,15.45,0,0,0,2.9-4.62C50.56,200.25,45.66,197.37,44.76,198.56Z"/><path class="cls-60" d="M45.89,186.22c.5,1.19,4.7.53,7.18,0a22.47,22.47,0,0,0-1.48-3.59c-.17-.33-.36-.66-.55-1C48.8,182.94,45.41,185.07,45.89,186.22Z"/><g class="cls-29"><ellipse class="cls-53" cx="92.22" cy="103.98" rx="27.31" ry="29.76" transform="translate(-37.53 54.17) rotate(-27.43)"/></g><path class="cls-54" d="M119.53,91.74C112,77.17,95,71,81.65,77.88S63.54,102.23,71.08,116.8s24.5,20.79,37.88,13.87S127.08,106.32,119.53,91.74ZM107.69,128.2c-12.13,6.27-27.5.64-34.34-12.57s-2.55-29,9.58-35.28,27.5-.64,34.33,12.57S119.81,121.92,107.69,128.2Z"/><path class="cls-55" d="M117.26,92.72c-6.83-13.29-22.21-19-34.33-12.65s-16.42,22.21-9.58,35.51,22.21,19,34.34,12.65S124.1,106,117.26,92.72ZM106,125c-10.48,5.45-23.75.56-29.66-10.93s-2.2-25.21,8.28-30.66,23.75-.56,29.65,10.92S116.47,119.5,106,125Z"/><path class="cls-54" d="M118.68,106.29a25.66,25.66,0,0,0-.28-4.61,89.83,89.83,0,0,0-14.54-1.38,125.07,125.07,0,0,0,9.39-10.84A26.11,26.11,0,0,0,110.11,86,90.08,90.08,0,0,0,98.82,95.3c-.11-4.55-.41-11.52-1.26-15.67a22.42,22.42,0,0,0-4.17-.33,90.09,90.09,0,0,0-1.66,16C88.28,92,82.8,87,79.28,84.84a21.4,21.4,0,0,0-2.73,3,89.75,89.75,0,0,0,10.18,12.53,118.46,118.46,0,0,0-14.81,1.11,26.45,26.45,0,0,0,.29,4.6,89.62,89.62,0,0,0,14.54,1.39,125,125,0,0,0-9.4,10.83,26.18,26.18,0,0,0,3.15,3.48,89.82,89.82,0,0,0,11.29-9.31c.11,4.54.41,11.52,1.26,15.66a22.42,22.42,0,0,0,4.17.34,90.24,90.24,0,0,0,1.66-16c3.45,3.29,8.92,8.29,12.45,10.49a22.6,22.6,0,0,0,2.73-3,90.26,90.26,0,0,0-10.18-12.54A118.15,118.15,0,0,0,118.68,106.29ZM97,108H93.58l-2.43-2.43v-3.44l2.43-2.43H97l2.43,2.43v3.44Z"/><path class="cls-56" d="M97.33,107.72l14.41,14.78a22.37,22.37,0,0,0,1.63-1.75L99,106Z"/><path class="cls-56" d="M99.45,105.18l19.22.24c0-.79,0-1.59-.13-2.39l-19.09-.24Z"/><path class="cls-56" d="M94.06,108l-.26,20.19a21.2,21.2,0,0,0,2.39.2L96.45,108Z"/><path class="cls-56" d="M93.22,100.08,78.81,85.3a22.49,22.49,0,0,0-1.63,1.76l14.35,14.71Z"/><path class="cls-56" d="M99.15,101.85l13.48-13.14c-.51-.62-1-1.22-1.59-1.79L97.46,100.16Z"/><path class="cls-56" d="M96.55,99.72l.26-20.19a23.82,23.82,0,0,0-2.39-.2l-.26,20.39Z"/><path class="cls-56" d="M91.52,106,78,119.1c.51.62,1,1.22,1.59,1.78l13.59-13.24Z"/><path class="cls-56" d="M91.15,102.68l-19.21-.24c0,.79,0,1.59.14,2.39l19.07.24Z"/><path class="cls-55" d="M101,101.05a6.41,6.41,0,1,1-8.87-3.25A6.69,6.69,0,0,1,101,101.05Z"/><path class="cls-54" d="M100,101.56a5.28,5.28,0,1,1-7.31-2.67A5.52,5.52,0,0,1,100,101.56Z"/><path class="cls-12" d="M96.54,101.42a2.35,2.35,0,1,1-3.25-1.19A2.46,2.46,0,0,1,96.54,101.42Z"/><path class="cls-12" d="M73.37,117.1C66.09,103,70.66,86.21,83.57,79.53c8.54-4.41,18.56-3.27,26.49,2-8.13-6.2-18.88-7.77-27.94-3.08-12.91,6.68-17.48,23.5-10.2,37.58A30.59,30.59,0,0,0,82,127.41,30.65,30.65,0,0,1,73.37,117.1Z"/><rect class="cls-62" y="380.42" width="135.93" height="47.26"/><rect class="cls-62" y="299.8" width="135.93" height="23.63"/><rect class="cls-62" y="216.87" width="135.93" height="23.63"/><rect class="cls-62" y="133.97" width="135.93" height="23.63"/><rect class="cls-63" y="133.97" width="127.67" height="4.72"/><rect class="cls-63" y="216.57" width="127.67" height="4.72"/><rect class="cls-63" y="299.54" width="127.67" height="9.44"/><rect class="cls-63" y="380.42" width="127.67" height="9.44"/><rect class="cls-64" x="127.67" y="121.89" width="8.26" height="305.79"/><rect class="cls-64" y="422.44" width="135.93" height="5.24"/><rect class="cls-64" y="308.51" width="127.67" height="4.19"/><rect class="cls-64" y="221.52" width="127.67" height="4.19"/><rect class="cls-64" y="138.69" width="127.67" height="4.19"/><rect class="cls-65" x="763.51" y="327.91" width="11.95" height="0.85" transform="translate(175.85 917.82) rotate(-67.91)"/><path class="cls-66" d="M772.93,323.59l-2.7-1.1,3.91-9.65a1.55,1.55,0,0,1,2.7,1.1Z"/><rect class="cls-66" x="770.93" y="320.98" width="1.24" height="4.29" transform="translate(181.93 916.45) rotate(-67.9)"/><rect class="cls-67" x="756.32" y="324.17" width="23.51" height="2.56" transform="translate(421.6 1084.28) rotate(-88.42)"/><path class="cls-67" d="M770.56,309.71l-4.36-.12.12-4.26a4.86,4.86,0,1,0,4.36,0Z"/><path class="cls-67" d="M769.75,339.15l-4.36-.12-.11,4.26a4.86,4.86,0,1,1,4.35.26Z"/><path class="cls-68" d="M764.51,339l-.1,3.63a5.11,5.11,0,0,0,.87.66l.11-4.26Z"/><path class="cls-68" d="M766.2,309.59l.12-4.26a4.6,4.6,0,0,0-.9.61l-.1,3.63Z"/><path class="cls-68" d="M772.5,309.77a4.84,4.84,0,0,1-3.72,4.57l-.55,20.08a4.82,4.82,0,0,1,1.42,8.56l0,.57a4.85,4.85,0,0,0-.52-9.1l.55-20.08a4.85,4.85,0,0,0,1-9.06v.57A4.82,4.82,0,0,1,772.5,309.77Z"/><rect class="cls-69" x="797.22" y="413.33" width="53.16" height="41.69" rx="7.44"/><rect class="cls-70" x="802.93" y="417.8" width="41.75" height="32.74" rx="5.84"/><rect class="cls-69" x="810.33" y="403.14" width="26.94" height="5.3"/><rect class="cls-69" x="814.17" y="405.87" width="2.36" height="9.16"/><rect class="cls-69" x="831.08" y="405.87" width="2.36" height="9.16"/><path class="cls-69" d="M835.86,429.79l-1.64-3.56,3.48-1.6a4.34,4.34,0,0,0-6.91,4.2l-16.39,7.55a4.33,4.33,0,0,0-7.5,1.56h0a5.26,5.26,0,0,0-.19,1l3.49-1.6,1.63,3.56-3.12,1.44h0l-.47.21a4.36,4.36,0,0,0,4.65.65,4.28,4.28,0,0,0,1.1-.75l.16-.14a4.62,4.62,0,0,0,.75-1l.06-.11a4.31,4.31,0,0,0,.4-2.67l16.39-7.55h0a4.26,4.26,0,0,0,2.3,1.42.45.45,0,0,0,.11,0,3.86,3.86,0,0,0,1.27.09l.21,0a4.27,4.27,0,0,0,1.28-.34,4.38,4.38,0,0,0,2.53-4Z"/><rect class="cls-70" x="810.33" y="406.68" width="26.94" height="1.75"/><path class="cls-71" d="M872.84,455c0-1.52-120.65-2.75-269.47-2.75S333.89,453.5,333.89,455s120.65,2.74,269.48,2.74S872.84,456.53,872.84,455Z"/><path class="cls-72" d="M716.72,293.75s-3.37,28.55-9.05,35.85c-5,6.49-27.54,12.17-27.54,12.17l1.86,2s27.67-2.22,33.57-8.74c6.14-6.78,9.44-35.36,9.44-35.36Z"/><polygon class="cls-73" points="680.13 341.04 685.56 339.53 688.38 343.44 682.9 344.34 680.13 341.04"/><path class="cls-73" d="M680.47,341.14s-11.19-3.29-12.49-1.28a3.76,3.76,0,0,0,.62,4.27c2-.18,4.45,1.09,4,2,1.49,1.29,2.21,2.26,3.12,2.1,2.35-.4,8.14-4.52,8.14-4.52Z"/><path class="cls-73" d="M668,339.86a21.15,21.15,0,0,0-2.33,4.48c-.42,3.29-.67,5.24,0,5.32,1.51.1,3.6-6.57,3.6-6.57Z"/><rect class="cls-65" x="659.68" y="357.25" width="11.95" height="0.85" transform="translate(132.68 893.35) rotate(-73.4)"/><path class="cls-74" d="M668.63,352.62l-2.8-.84,3-10a1.55,1.55,0,0,1,2.79.83Z"/><rect class="cls-74" x="666.59" y="350.14" width="1.24" height="4.29" transform="translate(138.9 890.96) rotate(-73.39)"/><path class="cls-73" d="M671.07,347.3s-3.33,1-3.28,2.59c0,1,4.62-.41,4.8-.44A14.3,14.3,0,0,0,671.07,347.3Z"/><path class="cls-73" d="M671.07,347.3A4.38,4.38,0,0,0,670,349c1.08,1.91,6.71-1,6.4-1,.41-.1-2.24-1.71-3.78-1.92A7.38,7.38,0,0,1,671.07,347.3Z"/><rect class="cls-75" x="642.69" y="312.5" width="1.1" height="47.97" transform="translate(-79.86 400.62) rotate(-32.68)"/><path class="cls-76" d="M352.64,425.33H727.69s2.63-44.33,2.63-49.75c0-3.32-4.12-8.86-14.49-10.82,0,0-104.4-15.29-112.12-21.2s-55.17-78.82-55.17-78.82c5.41-1.25,10.39-.37,7.57-4.19-4.38-5.94-84.74,4.61-96.74,6.65C448.05,269.12,385.06,281,390.65,288c1.32,1.72,4.19,1.33,4.19,1.33s-16.75,41.71-21.18,46.3-18.89,9.69-21,14.78S342,402.92,352.64,425.33Z"/><path class="cls-77" d="M352.64,425.33H727.69s1.43-24.08,2.18-38.92H347.55C346.94,400.38,347.88,415.34,352.64,425.33Z"/><path class="cls-78" d="M381,331.89a3.11,3.11,0,0,0,2.74,4.31l203.91,9a3.49,3.49,0,0,0,3.09-5.37l-47.17-73.14a3.5,3.5,0,0,0-3-1.6c-13.64.43-94.62,3.79-141.53,23.59C395.14,297.85,385,322.15,381,331.89Z"/><path class="cls-79" d="M711,393.59c2.85,1.34,8.27,2.32,18.51.6.47-8.79.86-16.54.86-18.61a5.5,5.5,0,0,0-.41-1.95C716.28,378.35,700.78,388.82,711,393.59Z"/><path class="cls-80" d="M354.24,348.28h0c-3.9,2.5-5.6,23.26-5.74,25.65C363.83,375.12,358.6,350.48,354.24,348.28Z"/><path class="cls-81" d="M568.9,326s4.11-10.84,0-12-15.44,24.79-12.21,25.45,8.93-7.72,8.93-7.72a40.19,40.19,0,0,0-4.77,11.09,25.15,25.15,0,0,1,3.82,1.39l22.94,1a3.49,3.49,0,0,0,3.09-5.37L580,323.29h0C572.73,321.74,568.9,326,568.9,326Z"/><path class="cls-81" d="M506.34,319.57c14.12-18.27-15.11-21.14-15.11-21.14l3.46,42,35.16,1.61C523.78,324.71,506.34,319.57,506.34,319.57Z"/><polygon class="cls-81" points="409.22 336.52 409.12 336.52 409.13 336.53 409.22 336.52"/><path class="cls-81" d="M432,320.24c3.72-4.52,16.78-14.87-3.74-21.81l-7.1,38.72,31.51,1.15A30.64,30.64,0,0,0,432,320.24Z"/><path class="cls-81" d="M387.38,316.46c-2.56,6.14-4.91,11.8-6.42,15.43a3.11,3.11,0,0,0,.24,2.87,3.31,3.31,0,0,0,.41.5l27.51,1.26C404.52,315.6,387.38,316.46,387.38,316.46Z"/><path class="cls-82" d="M350.37,358.75a151.18,151.18,0,0,0-1.87,15.18c3.88.3,6.44-1.06,8-3.28,0-.47.07-.94.07-1.42C356.6,363.72,353.86,359.2,350.37,358.75Z"/><g class="cls-83"><path class="cls-84" d="M512,266.72c-27.34,2.44-46.39,5.18-46.39,5.18-48.28,13.74-79,46.47-79,46.47-.56,1.34-5,11.9-5.63,13.52,58.9-42.24,135.44-63.36,146.11-66.17C522.74,266,517.65,266.29,512,266.72Z"/><path class="cls-84" d="M573.69,313.48l-21.07-32.67c-54,3.83-139.65,54.32-143.35,56.52l62.56,2.77h0Z"/></g><path class="cls-85" d="M711,393.59c2.85,1.34,8.27,2.32,18.51.6.47-8.79.86-16.54.86-18.61a5.5,5.5,0,0,0-.41-1.95C716.28,378.35,700.78,388.82,711,393.59Z"/><path class="cls-86" d="M721.63,384.89c-5.28,1.72-9.49,4.75-11.79,8.08a8.27,8.27,0,0,0,1.11.62c2.85,1.34,8.27,2.32,18.51.6.21-3.9.4-7.58.55-10.67A26.68,26.68,0,0,0,721.63,384.89Z"/><path class="cls-76" d="M423.17,278.32c6,5.25-4.85,52.6-14,62.28l12.64.26c2.87-17.4,8-54.12,18.23-66.6Z"/><path class="cls-76" d="M497.8,263.92c-7.75,6.21,7.72,69.46,14.61,81.31l-14.12-.85c1.36-15.1-3.35-64.08-20.85-78.16Z"/><path class="cls-87" d="M611.9,416.22h-2.58c0-39.92-11.14-70.24-11.25-70.54l2.42-.9C600.6,345.08,611.9,375.81,611.9,416.22Z"/><path class="cls-87" d="M606.66,344.91,375,333.77a11.93,11.93,0,0,1-1.36,1.9l242.12,11.77A94.28,94.28,0,0,1,606.66,344.91Z"/><ellipse class="cls-88" cx="433.47" cy="355.92" rx="10.31" ry="2.83"/><path class="cls-89" d="M424.55,357.33c1.78.85,5.11,1.42,8.92,1.42s7.14-.57,8.92-1.42a28.92,28.92,0,0,0-17.84,0Z"/><ellipse class="cls-87" cx="529.85" cy="355.92" rx="10.31" ry="2.83"/><path class="cls-90" d="M520.93,357.33c1.78.85,5.11,1.42,8.92,1.42s7.14-.57,8.92-1.42a28.92,28.92,0,0,0-17.84,0Z"/><path class="cls-91" d="M598.59,346.81c-1.86,1.08-3.86,1.09-4.48,0s.38-2.8,2.23-3.88,3.86-1.1,4.48,0S600.44,345.73,598.59,346.81Z"/><path class="cls-91" d="M598.46,342.24l-8.21-6.89-1,2.21s5.73,3.88,7.38,8.94Z"/><path class="cls-91" d="M566.93,337.44c-.52,6.44,29.56,8.71,24.58-5.09C588.31,323.48,567.28,333.14,566.93,337.44Z"/><path class="cls-87" d="M454,416.62c-11-34.21-48-34.6-48.42-34.6h-1.9l.7-1.77c15.52-39.05,24.09-101,24.18-101.59l2.56.35c-.09.62-8.46,61.1-23.68,100.51,7.93.58,38.92,4.87,49,36.3Z"/><path class="cls-87" d="M511.12,414c-5.51-86.11-23.57-144.15-23.76-144.72l2.47-.78c.18.58,18.34,58.91,23.87,145.33Z"/><path class="cls-90" d="M349.08,413.93a48.25,48.25,0,0,0,3.56,11.4H727.69s.28-4.78.66-11.4H668.73c-9.71-30.28-47.35-26.53-55,0H442.78c-5.83-22.9-41.53-33.2-54.58,0Z"/><path class="cls-92" d="M373.16,426H344.89c-6-16.48-4.73-24.06-4.73-24.06h28.28Z"/><path class="cls-67" d="M344.89,426h28.27l-2.36-12H341.31A93.31,93.31,0,0,0,344.89,426Z"/><ellipse class="cls-93" cx="415.86" cy="425.95" rx="24.93" ry="28.75" transform="translate(-22.39 23.07) rotate(-3.09)"/><path class="cls-91" d="M415.32,397.22c-12.26.09-22.26,10.37-24.09,23.82h49.14C438.16,407.44,427.69,397.12,415.32,397.22Z"/><ellipse class="cls-91" cx="415.86" cy="425.95" rx="14.6" ry="17.42" transform="translate(-28.35 29.66) rotate(-3.95)"/><ellipse class="cls-94" cx="415.86" cy="425.95" rx="13.91" ry="16.59" transform="translate(-28.36 29.67) rotate(-3.95)"/><path class="cls-91" d="M417.63,450.43c-13.77.11-25.18-12.68-25.48-28.54a33.29,33.29,0,0,1,.71-7.47,32.33,32.33,0,0,0-1.93,11.71c.3,15.87,11.71,28.66,25.48,28.55,11.53-.08,21.06-9.18,23.68-21.46C436.39,443.29,427.79,450.36,417.63,450.43Z"/><path class="cls-95" d="M417.26,439.89c-7.69,0-14.1-7.34-14.33-16.5a19.39,19.39,0,0,1,.74-5.77A18.63,18.63,0,0,0,402,426c.22,9.16,6.63,16.54,14.32,16.5,6,0,11-4.57,12.77-10.89C426.74,436.54,422.37,439.86,417.26,439.89Z"/><path class="cls-79" d="M415.32,420.73c-.67,3.6-3.12,6.16-5.46,5.72s-3.69-3.7-3-7.3,3.12-6.16,5.46-5.72S416,417.14,415.32,420.73Z"/><ellipse class="cls-93" cx="640.72" cy="425.95" rx="24.93" ry="28.75" transform="translate(-22.05 35.2) rotate(-3.09)"/><path class="cls-91" d="M640.18,397.22c-12.27.09-22.27,10.37-24.1,23.82h49.15C663,407.44,652.55,397.12,640.18,397.22Z"/><ellipse class="cls-91" cx="640.72" cy="425.95" rx="14.6" ry="17.42" transform="translate(-27.83 45.16) rotate(-3.95)"/><ellipse class="cls-94" cx="640.72" cy="425.95" rx="13.91" ry="16.59" transform="translate(-27.83 45.16) rotate(-3.95)"/><path class="cls-91" d="M642.49,450.43c-13.77.11-25.18-12.68-25.48-28.54a32.72,32.72,0,0,1,.71-7.47,32.12,32.12,0,0,0-1.94,11.71c.3,15.87,11.71,28.66,25.48,28.55,11.54-.08,21.07-9.18,23.69-21.46C661.25,443.29,652.65,450.36,642.49,450.43Z"/><path class="cls-95" d="M642.11,439.89c-7.69,0-14.1-7.34-14.32-16.5a19.07,19.07,0,0,1,.74-5.77A18.77,18.77,0,0,0,626.8,426c.23,9.16,6.64,16.54,14.33,16.5,6,0,11-4.57,12.77-10.89C651.6,436.54,647.22,439.86,642.11,439.89Z"/><path class="cls-79" d="M640.17,420.73c-.67,3.6-3.11,6.16-5.45,5.72s-3.7-3.7-3-7.3,3.11-6.16,5.45-5.72S640.85,417.14,640.17,420.73Z"/><path class="cls-68" d="M344.89,426h28.27l-.55-2.83H343.9C344.2,424,344.53,425,344.89,426Z"/><path class="cls-92" d="M676.4,425.36h55.94c6-16.48,4.73-24.06,4.73-24.06h-13.4s-3,12.72-16.91,12.72H678.2Z"/><path class="cls-67" d="M706.76,414H678.2l-1.8,11.34h55.94a95.88,95.88,0,0,0,3.45-11.43H708.55C708,414,707.38,414,706.76,414Z"/><path class="cls-68" d="M676.4,425.36h55.94c.28-.77.54-1.51.79-2.24H676.76Z"/><path class="cls-87" d="M556.69,263a1,1,0,0,0,.23-.73c-87.2,1.62-148.74,20.64-166,26.15a4.82,4.82,0,0,0,3.32,1l.56,0s29.06-9.85,75.62-17.24,78.08-7.39,78.08-7.39Z"/><path class="cls-76" d="M615.78,347.44S644.91,282.19,682.65,247a65.75,65.75,0,0,0-32.34,20.34c-14.54,16.57-39.7,78.77-39.7,78.77Z"/><path class="cls-90" d="M678.85,248.13c-35.12,33.46-62.52,92.31-65.44,98.71l2.37.6S644.91,282.19,682.65,247C682.65,247,681.2,247.33,678.85,248.13Z"/><path class="cls-88" d="M715.37,365.85a4.16,4.16,0,0,0,.66-.16,7,7,0,0,0-2.32,2.08h0s-4.39,6.45-3.38,7.45,3.74-4.53,4.09-5.22a2.22,2.22,0,0,0,.38.18c-.74,1.4-3.08,6.05-2.15,6.82s3.42-4.81,4-6.29l.29,0c-.82,1.92-2.24,5.56-1.4,6.18s2.81-4.19,3.52-6.12l.22,0c-.66,1.86-1.57,4.78-.83,5.27s2.39-4,2.94-5.79l.2-.09a6.27,6.27,0,0,0,2.64-2.39,26.1,26.1,0,0,0-8.43-3l-1.33-.2c-.89.17-1.63.31-2,.36C712.49,364.92,711,366.52,715.37,365.85Z"/><path class="cls-96" d="M775.27,336.41S777.75,382,780,398c1.84,13,10.88,54.16,10.88,54.16h-6.56s-13-40.68-16.16-53.6c-2.82-11.73-7.9-44.68-7.9-44.68Z"/><path class="cls-97" d="M717.5,286.23s-6.21,7.9-.19,22.35l2.37-.46s-3.61-19,2-24.64Z"/><path class="cls-98" d="M719.76,310.8S712.08,296.32,718,287a18,18,0,0,1,9.18-6.76l1.57,33.55Z"/><path class="cls-99" d="M725.74,283l-8,7s-.73-3.5-6.92-9.4c-1.39-1.33,2.51-8.53,2.51-8.53Z"/><path class="cls-99" d="M718,287s-2.22,6.12.16,6.2S725,282,725,282Z"/><path class="cls-97" d="M725,282s-7,5-.82,23.58l-7.46,3.3s20.37,20,35.84,43c0,0,24.35-8.28,22.71-15.41s-15.36-21-27.23-39.62C748,296.79,734.27,272.79,725,282Z"/><path class="cls-97" d="M752.56,351.82s-1.62,35.53-.88,46.85c.84,12.77,7.68,53.53,7.68,53.53h6.23s-.67-40.89.19-53.5c.65-9.52,5.28-25.78,7.69-41,4-15,1.8-21.27,1.8-21.27S762.94,329,752.56,351.82Z"/><path class="cls-100" d="M790.68,451.28s2.27,3.28-7.06,3.4c-12.37.16-14.74-2.56.24-3.43Z"/><path class="cls-101" d="M729.87,307.77l-10.21,4.65c6.17,7.57,21,21.68,32.9,39.4v-10.4S735.7,319.52,729.87,307.77Z"/><path class="cls-72" d="M741.17,297s5.13,26.18,3.71,33.7C742.93,341,725,364.62,725,364.62L722.28,363s11.89-22.79,12.76-32.13c.71-7.66-5-33.69-5-33.69Z"/><path class="cls-98" d="M729.72,305.76l15.08-5.07s-6.28-22.17-15.52-18.54S729.72,305.76,729.72,305.76Z"/><path class="cls-102" d="M723.61,358.9l-2.12,3.54,3.78,2.42s1-1.2,2.55-3.12Z"/><path class="cls-102" d="M721.49,362.44s-6.94,2.38-8,5,5.68,3.42,8.1,2.05,2.72-2.34,3.65-4.61S721.49,362.44,721.49,362.44Z"/><path class="cls-102" d="M713.7,367.06s-4.4,6.45-3.38,7.45,4.13-5.29,4.13-5.29Z"/><path class="cls-102" d="M715,369.05s-3.46,6.33-2.37,7.24,4.19-6.65,4.19-6.65Z"/><path class="cls-102" d="M717.51,368.84s-3.09,6.53-1.94,7.37,3.79-6.88,3.79-6.88Z"/><path class="cls-102" d="M719.91,368.52s-2.52,6.11-1.43,6.83,3.14-6.47,3.14-6.47Z"/><path class="cls-102" d="M721.88,362.3s-7.81,1.72-9.39,1.91c0,0-1.5,1.61,2.88.94C717.12,364.89,721.88,362.3,721.88,362.3Z"/><path class="cls-103" d="M734.07,282.48c5.44,4.93,8.82,16.82,8.82,16.82l-14,4.69c.46,1.1.79,1.77.79,1.77l15.08-5.07S740.62,286,734.07,282.48Z"/><path class="cls-72" d="M690.57,276.05s6.81,7,13,11c.21,1,1,1,1.26.76l.53.3a.73.73,0,0,0,1,.53c2.45,1.18,4.61,1.56,5.93.41a12,12,0,0,0,3.65-11,26.27,26.27,0,0,0-1.65-4.82s.73-9-3.72-11.61S690.57,276.05,690.57,276.05Z"/><path class="cls-104" d="M716.5,275c.51.5,1.6-1.24,1.6-1.24s-2.05-.32-2.32-1.22a35.73,35.73,0,0,0-2.16-7.4c-3.42-2.7-19.82-7.88-20,2.74s-5.13,11.28-5.13,11.28,4.69,4.52,10-9.21c0,0,4.71,1.86,6.65.89l-1.64-2s3.29-1.18,5.36,1.08l5.24,3.14S716,274.49,716.5,275Z"/><path class="cls-105" d="M713.83,268.32c1.56,1.67,1.27,4.49.16,5.52s-2.6-.12-4.16-1.79-1.93-3.87-.82-4.9S712.27,266.64,713.83,268.32Z"/><path class="cls-99" d="M713,269.1a2.52,2.52,0,0,1,.09,3.21c-.65.6-1.51-.07-2.42-1s-1.12-2.25-.48-2.85S712.09,268.12,713,269.1Z"/><path class="cls-106" d="M698.65,261.59c2.32.94,5.23-.88,6.51-4a8.45,8.45,0,0,0,.57-2.49c-2.88-1.36-6.2-1.72-9.47,1C695.88,258.53,696.78,260.84,698.65,261.59Z"/><path class="cls-107" d="M701,278.82c.62.73.81,1.59.41,1.93s-1.21,0-1.84-.71-.8-1.58-.41-1.92S700.42,278.1,701,278.82Z"/><path class="cls-104" d="M696.7,279.6a8.66,8.66,0,0,1,5-4.21l-.25-.61a10.76,10.76,0,0,0-6.17,3.63Z"/><path class="cls-72" d="M703.18,282.6c.77.73.41,2.36-.81,3.64a3.31,3.31,0,0,1-4.14.46c-.77-.73,2-1.91-.44-4C699,281.41,702.41,281.87,703.18,282.6Z"/><path class="cls-105" d="M714.37,273.25l-2.34-.19-3.14-3.14c-2.07-2.26-5.36-1.08-5.36-1.08l1.64,2c-1.94,1-6.65-.89-6.65-.89a27.86,27.86,0,0,1-3.2,6.38s3.09-3.27,3.87-5.3c0,0,5.46,1.18,7.45-.35l-1.49-1.44c6.27,2.89,9.47,8.34,9.9,10.35.76,3.6-.18,6.46-3.43,9.28a4.44,4.44,0,0,1-3,.59c1.55.44,2.88.38,3.8-.42,3.51-3,5-8.41,3.6-12.26Z"/><path class="cls-99" d="M707.75,283.36l1-.09a.3.3,0,0,0,0-.6l-2.8.14c0,.29,1.26.34,1.25.4a8.14,8.14,0,0,1-2.31,4.57l.55.31A8.81,8.81,0,0,0,707.75,283.36Z"/><path class="cls-99" d="M708,287a.32.32,0,0,0-.4.16,4.4,4.4,0,0,1-1.08,1.32s0,.07-.06.11l1.24.54C707.82,289,708.36,287.19,708,287Z"/><path class="cls-105" d="M701.65,285.81a3.47,3.47,0,0,1-3.44.84s0,0,0,.05a3.31,3.31,0,0,0,4.14-.46S703.14,285.2,701.65,285.81Z"/><path class="cls-101" d="M751.68,398.67c.84,12.77,7.68,53.53,7.68,53.53h6.23s-.67-40.89.19-53.5c.65-9.52,5.28-25.78,7.69-41,4-15,1.8-21.27,1.8-21.27S762.59,419.91,751.68,398.67Z"/><polygon class="cls-108" points="776.26 333.02 749.62 350.09 745.59 344.49 772.24 327.43 776.26 333.02"/><polygon class="cls-109" points="776.26 333.02 749.62 350.09 749 349.24 775.61 332.12 776.26 333.02"/><rect class="cls-109" x="767.39" y="330.41" width="1.35" height="6.67" transform="translate(-52.99 498.59) rotate(-34.84)"/><path class="cls-97" d="M713.62,265.13a60.64,60.64,0,0,0-23,12.06s-4.46-14.79-3.74-17.28,15-8.11,20.12-6.42C711.4,257.4,713.62,265.13,713.62,265.13Z"/><path class="cls-96" d="M713.62,265.13s-27.72,4.8-31,12.85c0,0,.23,2.88,8.5-.79C691.15,277.19,697,270.32,713.62,265.13Z"/><path class="cls-100" d="M765.62,451.28s2.26,3.28-7.06,3.4c-12.37.16-14.75-2.56.23-3.43Z"/><path class="cls-71" d="M481.58,515.72c0-1.7-65.61-3.08-146.54-3.08S188.51,514,188.51,515.72s65.6,3.07,146.53,3.07S481.58,517.42,481.58,515.72Z"/><path class="cls-110" d="M246.51,265.12s3,43.17,13.09,54.76c9.78,11.25,44.71,18.05,44.71,18.05l.6-4s-29.35-10.32-37.33-20.32c-8.23-10.3-9.18-49-9.18-49S252.94,254.77,246.51,265.12Z"/><path class="cls-110" d="M304.54,333.93s12.43-.37,11.65,3c-.69,3-1.49,4-4.12,4.52-1.63.34-7.76-3.5-7.76-3.5S303.1,334,304.54,333.93Z"/><path class="cls-111" d="M275.43,319.79a28.19,28.19,0,0,1-7.37-6.88c-8.22-10.3-9.66-48.29-9.66-48.29s-6.61-9.73-13,.62c0,0,4.15,43.05,14.24,54.64,2.33,2.68,6.43,5.21,11.32,7.51Z"/><path class="cls-112" d="M258.18,316a29.76,29.76,0,0,1-4.62-8.27c1.71,5.1,3.72,9.45,6,12.12s6.43,5.21,11.32,7.51l1.43-2.41C267.46,322.68,260.51,318.71,258.18,316Z"/><path class="cls-111" d="M270.92,327.39l2.55,2s3.41-3.54,3.5-6l-1.44-1.35,2.27-.1a2.78,2.78,0,0,0,.84-2.79l-3.21.56Z"/><path class="cls-110" d="M315.55,335.49s7.07,3.56,6.76,4.57-6.68-2.61-6.68-2.61Z"/><path class="cls-110" d="M314.85,337.41s7.07,3.56,6.76,4.57-6.68-2.61-6.68-2.61Z"/><path class="cls-110" d="M313.66,338.67s6.85,4,6.47,5-6.51-3-6.51-3Z"/><path class="cls-110" d="M310.46,338.81s6.41,3.72,6.06,4.64-6.09-2.81-6.09-2.81Z"/><path class="cls-113" d="M228.62,513.59a27.7,27.7,0,0,0,13.74,4.22c10.2.05,10.39-4.73,2-6.27A58.94,58.94,0,0,0,229,511.2,10.37,10.37,0,0,0,228.62,513.59Z"/><path class="cls-110" d="M229,511.2a11.33,11.33,0,0,0,4.05,2.18,32.84,32.84,0,0,0,9.53,1.55c5.53-.08,6.12-2.2,1.3-3.12a70.12,70.12,0,0,0-9.17-.95C233.23,507.25,229,511.2,229,511.2Z"/><path class="cls-113" d="M256.57,513.59s6.71,4.52,14.65,4.2c9.61-.38,8.74-4.62,1.85-6.11A58.21,58.21,0,0,0,257,511.2,10.06,10.06,0,0,0,256.57,513.59Z"/><path class="cls-110" d="M257,511.2a11.22,11.22,0,0,0,4,2.18,32,32,0,0,0,10,1.53c5.11-.19,5.46-2.18,1-3.07a70.77,70.77,0,0,0-9.54-1C261,507.25,257,511.2,257,511.2Z"/><path class="cls-114" d="M262,208.05s9.85.53,7.67,11.9c-1.74,9-15.06,26.1-11,29.6a5.53,5.53,0,0,0,2.92,1.13,18.17,18.17,0,0,1-2.31,1.87c-.31.22-2.35.1-2.72.32-.78.48-.83,1.27-1.78,1.62-3.07,1.12-6.77,1.12-9.72-3C238.89,242.94,262,208.05,262,208.05Z"/><path class="cls-115" d="M221.05,358.42s7,57.58,7.74,69.22c.94,15.45.21,83.56.21,83.56h5.88s5.05-53.63,7.69-84.45c1.91-22.39,3.26-54.14,3.26-54.14l6.42-.85s3.63,42.72,4.22,55.4c.72,15.58.48,84,.48,84h5.69s5.82-68.79,6.65-84.54c3.08-70.51-2-78.83-2-78.83S222.36,308.21,221.05,358.42Z"/><path class="cls-116" d="M266,432.18a4.28,4.28,0,0,0,3-1.54c.1-1.55.18-2.89.24-4,3.08-70.51-2-78.83-2-78.83s-45-39.62-46.28,10.59c0,0,2.75,22.46,5,42.16.42.12,4.07,32.74,12.1,31.6,1.5,0,2.93-1.11,4.24-3.09.07-.79.13-1.58.2-2.34,1.91-22.39,3.26-54.14,3.26-54.14l6.42-.85s1.29,15.14,2.45,30.07l.53-.08C256.53,419.29,260.87,432.18,266,432.18Z"/><path class="cls-117" d="M223.68,342.12s-3,6.66-3.12,10.06c0,0,23,15.61,42.95,5.11v-2.83l2.9,1.28a21.27,21.27,0,0,0,4.87-5.26s-2.89-1.87-3.46-4.06Z"/><path class="cls-118" d="M261.09,322.59c-.74-11.8,7.56-33.73,6.57-40.91-.25-1.85-7-18-11.85-20.66-3.24-1.76-8.07-3-15.6-3.34-4.78-.2-9.63.63-13.63,3.47-3.74,2.66-6.93,5.34-1.68,21.74,4.29,13.41,14.82,21.12,14,33-.61,9-18.3,23.31-15.48,31,3.63,9.89,45.14,13.84,44.4-.43C266.1,338.89,261.26,325.28,261.09,322.59Z"/><path class="cls-119" d="M248.09,295.25s8.64,5.09,8,10.64-17.17,31-17.17,31,18,13.44,28.92,9.5c.93,4.86-6.26-16.31-6.73-23.83-.73-11.65,7.17-33.08,6.58-40.59C267.62,283.84,266.5,293.17,248.09,295.25Z"/><path class="cls-119" d="M242.21,269.78c6.69-1.52,12.43-4,16-6.56a9.51,9.51,0,0,0-2.43-2.2c-3.24-1.76-8.07-3-15.6-3.34-4.78-.2-9.63.63-13.63,3.47-2.42,1.72-4.59,3.47-4.42,8.91C226.38,271.65,233.94,271.66,242.21,269.78Z"/><path class="cls-117" d="M235.58,270.53c2.29,5.36,1,11-2.88,12.7s-8.87-1.34-11.16-6.7-1-11,2.88-12.69S233.29,265.18,235.58,270.53Z"/><path class="cls-120" d="M229.38,259.54s5.06-4,26.61,14c-.52-3.71-5.91-15.83-15.77-16.1A29.31,29.31,0,0,0,229.38,259.54Z"/><path class="cls-120" d="M233.17,258.68s1.91-6.64,4.3-23.61l8.88,4.64s-3.91,14.5,1.38,21.28C247.73,261,239.35,257.54,233.17,258.68Z"/><path class="cls-110" d="M263.11,228.21c-.21,1-.48,2.08-.79,3.1-.47,1.49-.34,3.66-1,5.06-2.64,7.56-7.28,13.44-10.1,13.18-3.69-.34-18.17-6.59-16.18-24.27,1.24-11,7.76-17.19,19-14.59C262,212.54,265.32,217.32,263.11,228.21Z"/><path class="cls-114" d="M228.15,216.86c-2,8.44,1.75,20.76-.59,24.54-.91,1.48-2.75,1.65-6.21-.24a13.4,13.4,0,0,0,.64,3.63c.11.35,2.8,1.7,2.95,2,.28.67-1.93.29-1.53.88,2.37,3.45,6.69,5.39,12.65,4.35,11.59-2,4.89-27.36,14.23-32.57,3.89-2.17,10.11-2,11.79-5.65A10.31,10.31,0,0,0,262,208C259.28,199.31,234.12,191.17,228.15,216.86Z"/><path class="cls-121" d="M261.9,207.83c-2.93-8.37-26.27-16-33.13,6.69,0,1.43,1.39,2.78,4.21.49.71-.58,5.56-6.52,8.92-7-4.15,3.69-5.24,7.52-4.46,7.13C251.88,207.89,261.9,218.31,261.9,207.83Z"/><path class="cls-121" d="M269.94,216.53a8.3,8.3,0,0,0-7.39-8.41C263.26,211.14,267.53,214.71,269.94,216.53Z"/><path class="cls-114" d="M258.32,216.48s-5.72.83-11.31,9c0,0-.39-2.47,3.76-6.58C250.77,218.86,255.24,213.93,258.32,216.48Z"/><rect class="cls-113" x="238.44" y="211.4" width="2.35" height="6.83" transform="translate(-72.46 293.37) rotate(-56)"/><path class="cls-117" d="M229.38,259.54l3.79-5.87s10.18,11.85,19.88,14.29c1,.73,2.94,5.61,2.94,5.61Z"/><path class="cls-117" d="M245.13,253.67s10,9.58,10.86,19.9c0,0-4.28-9.42-9.16-13.95A15.67,15.67,0,0,1,245.13,253.67Z"/><path class="cls-121" d="M230.51,242.13c-1,0,1.44-13.07-2.78-14.57.41,5.92,1.27,11.51-.17,13.84-.91,1.48-2.75,1.65-6.21-.24a13.4,13.4,0,0,0,.64,3.63c.11.35,2.8,1.7,2.95,2,.28.67-1.93.29-1.53.88a10.29,10.29,0,0,0,5.23,3.93c6.16-.57,9.27-12.41,7.39-13C235.1,238.4,231.87,242.13,230.51,242.13Z"/><path class="cls-114" d="M254.81,224.93v1.51s-5.51-.52-8.25,1.12A10.25,10.25,0,0,1,254.81,224.93Z"/><path class="cls-114" d="M260.15,227a17.21,17.21,0,0,1,3.08.52c.09-.48.18-1,.24-1.42a9.3,9.3,0,0,0-3-.72Z"/><path class="cls-122" d="M254.81,237.26a3.47,3.47,0,0,0,3.57-.89S257.63,240.62,254.81,237.26Z"/><path class="cls-123" d="M249.7,241s5.11,2.67,8.62.56C258.32,241.58,253.61,249.55,249.7,241Z"/><path class="cls-124" d="M250.29,241.29a5.75,5.75,0,0,0,4.52,1.94,4.69,4.69,0,0,0,2.9-1.33S254.81,243.23,250.29,241.29Z"/><path class="cls-118" d="M249.7,241s5.2,1.46,8.62.56C258.32,241.58,254.88,243.54,249.7,241Z"/><path class="cls-114" d="M247.73,229.2a6.23,6.23,0,0,0,5.93,0,1.71,1.71,0,0,1,1.15.78,9.29,9.29,0,0,1-3.54.69A4.53,4.53,0,0,1,247.73,229.2Z"/><path class="cls-114" d="M249.91,230.31s.91,1.41,1.81,1.25,1.64-1.76,1.64-1.76Z"/><path class="cls-114" d="M259.79,230.2s1.83.73,2.85,0a2.89,2.89,0,0,1,1.14.83S260.72,231.59,259.79,230.2Z"/><path class="cls-114" d="M260.69,230.87s.1,1.21.75,1.34,1.6-1.1,1.6-1.1A17,17,0,0,1,260.69,230.87Z"/><polygon class="cls-120" points="292.64 316.14 296.37 316 293.86 317.92 292.64 316.14"/><path class="cls-110" d="M287.71,320.55s10.12-7.18,10.82-3.81c.62,3,1.59,5.3-.56,6.9-1.33,1-8.79.64-8.79.64S286.42,321.19,287.71,320.55Z"/><path class="cls-117" d="M252.1,320.15c-4-.43-11.16-3.07-12.71-5.18-7.78-10.64-5.78-45.64-5.78-45.64s-6.19-10-13.05.07c0,0,2.32,43.19,11.91,55.2,2.21,2.77,13.32,4.3,18.72,4.34Z"/><path class="cls-110" d="M252.08,320.36l-.89,8.58c10,.78,38-4.66,38-4.66l-1.14-3.9S266.69,322.35,252.08,320.36Z"/><path class="cls-125" d="M231.21,320.68a29.65,29.65,0,0,1-4.27-8.45c1.5,5.17,3.32,9.6,5.53,12.37s13.32,4.3,18.72,4.34l.29-2.79C246.08,326.11,233.43,323.46,231.21,320.68Z"/><path class="cls-117" d="M251.19,328.94l3.17.78s1.62-4.64.69-6.88l-1.88-.62,2-1.05a2.77,2.77,0,0,0-.41-2.88l-2.68,1.86Z"/><path class="cls-110" d="M295.79,316.28s5.62-2.79,6.23-1.93-6.11,3.75-6.11,3.75Z"/><path class="cls-110" d="M295.16,319.11s6.8-4.06,7.48-3.25-5.78,4.23-5.78,4.23Z"/><path class="cls-110" d="M294.75,321.66s6.65-4.31,7.36-3.54-5.62,4.46-5.62,4.46Z"/><path class="cls-110" d="M296.79,322.58s3.22-2.29,3.86-1.54-3.2,2.76-3.2,2.76Z"/><path class="cls-110" d="M288,320.38s3.63-4.95,4.61-4.54-.2,3.39-.2,3.39Z"/><path class="cls-116" d="M293,317.29s-7.06-4.74-6.82-5.8,8.07,5.2,8.07,5.2Z"/><path class="cls-115" d="M241.44,370.76s9.79.15,14.61-2.55c0,0-2.36,3.12-3.8,3.55a59.72,59.72,0,0,1-6.42.85S242.58,372.32,241.44,370.76Z"/><path class="cls-115" d="M266.41,355.74l-2.9-1.28v2.83c-17.62,9.29-37.67-1.85-42.06-4.54-.2,1.76-.35,3.62-.4,5.67,0,0,.33,2.67.84,7,6.19,2.12,15.84,2.77,26.86,0a70.16,70.16,0,0,0,20.31-8.79c-.12-1.08-.25-2-.37-2.87A20.35,20.35,0,0,1,266.41,355.74Z"/><polygon class="cls-126" points="300.53 345.27 301.87 343.5 302.29 344.66 300.53 345.27"/><path class="cls-127" d="M322.14,302c-1,.21-1.66,1.5-1.38,2.87a2,2,0,1,0,3.79-.78C324.26,302.74,323.19,301.8,322.14,302Zm.49,2.18a.71.71,0,0,1-.74-.65.7.7,0,0,1,.42-.88c.32-.07.65.22.74.64A.71.71,0,0,1,322.63,304.2Z"/><polygon class="cls-128" points="322.25 306.88 322.78 310.63 323.59 311.17 324.16 310.45 323.97 309.01 323.57 308.63 323.86 308.04 323.52 307.52 323.73 307.09 323.66 306.77 322.25 306.88"/><path class="cls-129" d="M322.89,302.05a2.7,2.7,0,0,1,1.46,2,2.52,2.52,0,0,1-.89,2.67h0l.06.31-.21.44.35.51-.3.59.41.39.18,1.44-.54.68.17.11.57-.72L324,309l-.4-.38.29-.59-.34-.52.21-.43-.07-.32h0a2.5,2.5,0,0,0,.9-2.66A2.64,2.64,0,0,0,322.89,302.05Z"/><path class="cls-130" d="M322.26,304.11a.82.82,0,0,1-.37-.56.7.7,0,0,1,.42-.88.55.55,0,0,1,.18,0,.55.55,0,0,0-.37-.09.72.72,0,0,0-.43.89A.78.78,0,0,0,322.26,304.11Z"/><path class="cls-130" d="M324.35,304a2.52,2.52,0,0,1-.89,2.67h0l0,.16.15-.09h0a2,2,0,0,0,.8-1,.14.14,0,0,1,0-.06,2.93,2.93,0,0,0,.13-.68v-.12a3.28,3.28,0,0,0-.05-.76,3.41,3.41,0,0,0-.22-.66l-.06-.14a3.29,3.29,0,0,0-.34-.54h0a2.43,2.43,0,0,0-.44-.41l-.08-.06a1.73,1.73,0,0,0-.51-.25A2.7,2.7,0,0,1,324.35,304Z"/><path class="cls-110" d="M393.71,257.66s-2.55,36.82-12.14,43.55c-10.85,7.62-46.33-11.16-46.33-11.16l-.85,5.69s40.3,27.2,54.3,18.39c13.09-8.22,18.55-54.44,18.55-54.44Z"/><path class="cls-131" d="M396.2,244.83s-11.32,20.37-10.88,40.74h14.2Z"/><path class="cls-132" d="M444.62,345.19s-5.09,1.8-24.5,1.82-24.5-1.82-24.5-1.82L393.7,280.8s-2.55-28.44,2.5-36a88.08,88.08,0,0,1,25-4.26c10.64-.12,21.27,1.1,30.73,9.16C452,260.6,444.62,345.19,444.62,345.19Z"/><path class="cls-133" d="M430,278.32s2.08-21.64,8.66-35.86a59.71,59.71,0,0,0-34.44.12s-7.14,13.8-4.07,32.9C405.23,275.48,430,278.32,430,278.32Z"/><path class="cls-134" d="M436.29,289.12s2.81,16.36,11.5,18.44c2-24.09,4.16-51.91,4.16-57.83-.64-.54-1.28-1-1.93-1.53C445.09,249.42,432.62,255.8,436.29,289.12Z"/><path class="cls-135" d="M452,249.73s-11.19.89-13.48,24.06S448.57,300,448.57,300Z"/><path class="cls-110" d="M362.65,325.8s6.11,5.1,10.69,5,10.86-2.44,10.86-2.44c1.31-2.32,1.67-4.31,0-7.66,0,0-5.79-1.12-9-.68C371.15,323.82,367.76,319.56,362.65,325.8Z"/><polygon class="cls-136" points="444.62 345.19 444.62 512.21 432.92 512.21 423.02 374.06 414.89 373.78 407.77 512.21 397.89 512.21 395.62 345.19 444.62 345.19"/><path class="cls-131" d="M433,260.36a92,92,0,0,1,5.7-17.9,59.71,59.71,0,0,0-34.44.12,47.64,47.64,0,0,0-3.6,11.2c5.19,2.76,13.05,5,22,6A82.71,82.71,0,0,0,433,260.36Z"/><path class="cls-120" d="M428.4,242.27,411,244.15s2.3-5.37-.45-19.07c-.62-3.08,11.52-8.14,11.52-8.14S425.44,228.64,428.4,242.27Z"/><path class="cls-110" d="M388.06,201.24c1.46,9.16,7.55,38.5,16.79,37.56,6.93-.71,12.55-5.74,15.07-11.14a42.79,42.79,0,0,0,2.32-7.92s2.94-10.94-.53-18.54S388.06,201.24,388.06,201.24Z"/><path class="cls-137" d="M398.23,215.23c.13,1.4-.37,2.59-1.13,2.66s-1.48-1-1.61-2.4.37-2.59,1.13-2.66S398.1,213.83,398.23,215.23Z"/><path class="cls-138" d="M392.66,212.82s4.21-2.64,10.61-.89l.24-1a17.42,17.42,0,0,0-11.58-1Z"/><path class="cls-110" d="M398.66,221.7c.34,1.68-1.66,3.5-4.46,4.06s-5.59-1.56-5.93-3.25,4.51-.62,3.16-5.74C394.24,216.21,398.33,220,398.66,221.7Z"/><path class="cls-139" d="M393.64,224.52a5.65,5.65,0,0,1-5.35-2.09s0,0,0,.08c.34,1.69,3.12,3.81,5.93,3.25C394.2,225.76,396.19,225.1,393.64,224.52Z"/><path class="cls-120" d="M407.93,242.76s-3.53,12.35,5.36,12.73c9.57.4,26.43-14.92,10.32-14.9C423.61,240.59,411.19,239.21,407.93,242.76Z"/><path class="cls-132" d="M444.62,345s-3.95,82.65-3.95,90.38-12.38,9.8-12.9,2.65-4.75-64-4.75-64l-10.68-.49s-3.43,59.18-3.71,64.66S397.15,444,396.79,438s-1.17-92.85-1.17-92.85C412.11,340.65,425.2,343.53,444.62,345Z"/><path class="cls-134" d="M406.07,369.65a60.08,60.08,0,0,0,24.22.36s2.47-.09-7.27,4.05l-10.68-.49S402.43,370.23,406.07,369.65Z"/><path class="cls-110" d="M443.71,278.32s3,36.8-5.52,44.88c-9.59,9.14-54-2.51-54-2.51v7.66s50.43,17.35,63,6.56c11.72-10.08,10.23-56.59,10.23-56.59Z"/><path class="cls-133" d="M452,249.73s-16.09,0-13.28,35.8c0,0,6.49,7.79,22.23,7.35C460.9,292.88,460.35,255.09,452,249.73Z"/><path class="cls-131" d="M453.33,251c5.48,11.2,5.89,39.21,5.89,39.21-11.34.32-20.58-5.08-20.55-4.67,0,0,6.49,7.79,22.23,7.35C460.9,292.88,460.41,259.36,453.33,251Z"/><path class="cls-140" d="M433.11,304.06a8.23,8.23,0,0,1-8.95,8.19l-18.54-1.64a8.22,8.22,0,0,1-7.5-8.19v-22l35,3.09Z"/><path class="cls-134" d="M431.25,283.39v19.28a8.23,8.23,0,0,1-8.95,8.19l-18.54-1.64a8.1,8.1,0,0,1-3.2-1,8.11,8.11,0,0,0,5.06,2.38l18.54,1.64a8.23,8.23,0,0,0,8.95-8.19V283.55Z"/><polygon class="cls-134" points="427.13 290.33 401.77 287.99 401.77 285.57 427.13 287.92 427.13 290.33"/><path class="cls-141" d="M438.23,275.23l-7.8-.69a.77.77,0,0,0-.55.17.75.75,0,0,0-.26.52l-.24,3.06.74.07.2-2.53a.6.6,0,0,1,.22-.43.67.67,0,0,1,.47-.15l6.59.59a.62.62,0,0,1,.57.67l0,2.5h0c-.05.73.05,2.27.05,2.27.17,0,.31-.44.31-.44l.12-1.72.24-3.08A.76.76,0,0,0,438.23,275.23Z"/><path class="cls-141" d="M438.68,279a43.18,43.18,0,0,1-9.07-.74,20.73,20.73,0,0,1,4.56.13A21.55,21.55,0,0,1,438.68,279Z"/><path class="cls-141" d="M393.33,271.73l6.49,0a.76.76,0,0,1,.53.23.74.74,0,0,1,.21.53l.29,3.08h-.75l-.3-2.53a.59.59,0,0,0-.18-.45.61.61,0,0,0-.44-.19l-5.27,0a.63.63,0,0,0-.64.62l.2,4.67c-.17,0-.3-.46-.3-.46l-.59-4.76A.74.74,0,0,1,393.33,271.73Z"/><path class="cls-141" d="M400.66,275.4a30.85,30.85,0,0,1-7.6.13,14.34,14.34,0,0,1,3.79-.31A14.53,14.53,0,0,1,400.66,275.4Z"/><path class="cls-138" d="M384.2,210c6.1.18,22-11.15,22.95-11.06,2.07.21,4.15,1.38,5.26,4.76,2.73,8.3,2.77,10.78,2.77,10.78l5.66-2,3.31,12s9.85-14.19,1.07-36.68c0,0-7.67-7.26-20.21-4.92C388.06,183.19,382,197.3,384.2,210Z"/><path class="cls-139" d="M426.12,212.69c.51,3.68-2.51,7.13-4.94,7.47s-3.34-2.58-3.84-6.26,1-6.93,3.47-7.27S425.61,209,426.12,212.69Z"/><path class="cls-120" d="M424.28,212.94a4,4,0,0,1-2.87,4.34c-1.41.2-1.94-1.5-2.23-3.63s.6-4,2-4.23S424,210.8,424.28,212.94Z"/><path class="cls-123" d="M396.33,229.13s4.41,11.72,8.82-2.94A21.36,21.36,0,0,1,396.33,229.13Z"/><path class="cls-124" d="M396.92,229.06s.49,1.22,1,1.22a9.56,9.56,0,0,0,7.2-4.09A23.6,23.6,0,0,1,396.92,229.06Z"/><path class="cls-142" d="M423.71,191.87c1,.07,2,.1,3,.1-.41-1.34-.89-2.72-1.44-4.12a23.79,23.79,0,0,0-17.58-5.27,1.08,1.08,0,0,0,0,.19C407.27,187.08,414.48,191.15,423.71,191.87Z"/><path class="cls-142" d="M404.72,184a3.69,3.69,0,0,0-.87-1c-13,.71-19.23,9.76-20,19.75A30.56,30.56,0,0,0,394,199.08C402,194.53,406.85,187.8,404.72,184Z"/><path class="cls-139" d="M412.41,203.67c-1.11-3.38-3.19-4.55-5.26-4.76-.71-.07-10.51,6.76-17.7,9.71l.09.41a87.36,87.36,0,0,0,18-8.61s3.27.29,6.7,9.54C413.88,208.39,413.29,206.33,412.41,203.67Z"/><path class="cls-139" d="M416.57,214c.82,3.73,1.87,9.88.67,12.81-2.27,5.51-6.72,10.29-13.65,11a4.79,4.79,0,0,1-3.14-.86,5.54,5.54,0,0,0,4.4,1.89c6.93-.71,12.55-5.74,15.07-11.14a42.79,42.79,0,0,0,2.32-7.92l-2.59-1.7-1.89-4.48Z"/><path class="cls-134" d="M444.94,341.48c.13-1.43.28-3.23.46-5.33-10.22,6.1-35.27,4.44-50,2.8l.15,5.09C410.09,345.65,434.49,347.25,444.94,341.48Z"/><polygon class="cls-143" points="301.17 344.43 306.97 337.09 364.08 315.89 373.08 316.35 301.17 344.43"/><path class="cls-144" d="M302.25,347.84s56.2-21.9,72.3-27.15l-1.47-4.35s-48.76,17.47-71.91,28.09Z"/><rect class="cls-116" x="298.11" y="334.12" width="80.23" height="1.17" transform="translate(-96.92 142.17) rotate(-20.83)"/><polygon class="cls-126" points="375.52 319.89 374.18 319.61 374.42 320.31 375.52 319.89"/><path class="cls-145" d="M307.1,344.43a172,172,0,0,1,17.22-6.82S311.71,342.67,307.1,344.43Z"/><path class="cls-145" d="M316.33,339.24s41.06-16.24,55.41-21.12C371.74,318.12,330.1,334.17,316.33,339.24Z"/><path class="cls-145" d="M336.79,333.52s27-10.51,32.48-12.15C369.27,321.37,345.37,330.66,336.79,333.52Z"/><path class="cls-110" d="M384.2,320.69s-6.16-6.69-8.27-7c0,0-2.9.21-1.08,3.26s1.57,3.38,1.57,3.38Z"/><path class="cls-110" d="M374.85,316.93a17.14,17.14,0,0,0-3.24-1.19s-.3-2.9.36-3.14,4.33,1.18,4.33,1.18S375.56,317.43,374.85,316.93Z"/><path class="cls-146" d="M302.29,344,372,316.74S321.4,334.58,302.29,344Z"/><polygon class="cls-147" points="363.52 318.42 358.7 317.88 309.75 336.06 307.18 339.98 363.52 318.42"/><path class="cls-116" d="M368.33,316.19l-2.73,1-3.11-.2,2.63-1s.47-1.53,1.2-1.49,2.37,0,2.37,0Z"/><path class="cls-110" d="M372,312.6s-5.1,2.16-5.16,3.29,2.5.85,3.54.45a6.69,6.69,0,0,0,1.62-.84Z"/><path class="cls-110" d="M335.24,290.05s-7.07-4-11-4.89c-2.07-.47-5.13,4.75-2.11,5.81,4.26,1.49,2.34,4.1,2.95,5.27.51,1,.92,1.28,1.61,1.42,3.16.63,7.73-1.92,7.73-1.92A8.07,8.07,0,0,0,335.24,290.05Z"/><path class="cls-110" d="M323.47,285.16s-7.34,3.83-7.92,6,4,8.61,4.6,8.61,1.51-.19-.67-6.82l4-3Z"/><path class="cls-128" d="M320.93,302.12c-1.06-.1-2,.95-2.16,2.34a2.3,2.3,0,0,0,1.69,2.71c1.06.09,2-.95,2.16-2.35A2.3,2.3,0,0,0,320.93,302.12Zm-.17,2.23a.71.71,0,0,1-.52-.83c0-.43.33-.76.66-.72a.7.7,0,0,1,.52.83C321.38,304.05,321.08,304.38,320.76,304.35Z"/><polygon class="cls-128" points="319.62 306.81 318.76 312.02 319.37 312.77 320.13 312.24 320.37 310.81 320.09 310.33 320.55 309.85 320.37 309.26 320.69 308.9 321 307.11 319.62 306.81"/><path class="cls-129" d="M321.63,302.37a2.71,2.71,0,0,1,.83,2.32,2.52,2.52,0,0,1-1.64,2.29h0l-.3,1.79-.33.36.19.59-.46.48.27.48-.24,1.43-.72.5.13.16.76-.53.24-1.43-.28-.48.46-.48-.18-.59.32-.36.31-1.79h0a2.52,2.52,0,0,0,1.64-2.29A2.62,2.62,0,0,0,321.63,302.37Z"/><path class="cls-129" d="M320.43,304.16a.86.86,0,0,1-.19-.64c0-.43.33-.76.66-.72a.43.43,0,0,1,.16.05.46.46,0,0,0-.32-.18c-.33,0-.63.29-.67.72A.78.78,0,0,0,320.43,304.16Z"/><path class="cls-116" d="M321.25,303.7c-.83,0-1.51-1-1.51-2.31s.68-2.32,1.51-2.32v-.39c-1,0-1.77,1.22-1.77,2.71s.79,2.7,1.77,2.7Z"/><path class="cls-116" d="M320.77,303.57a2.41,2.41,0,0,1-1-2.18c0-1.28.68-2.32,1.51-2.32s1.52,1,1.52,2.32a3.2,3.2,0,0,1-.07.63l.26.05a4.91,4.91,0,0,0,.06-.68c0-1.49-.79-2.71-1.77-2.71s-1.77,1.22-1.77,2.71a2.82,2.82,0,0,0,1.23,2.56A2.5,2.5,0,0,1,320.77,303.57Z"/><path class="cls-116" d="M322.43,303.4a3.41,3.41,0,0,0,.32-.6.55.55,0,0,0-.24-.12,2.23,2.23,0,0,1-.24.4A3.18,3.18,0,0,1,322.43,303.4Z"/><path class="cls-110" d="M324.92,295.45a6.07,6.07,0,0,1-1.77,2.31c-1.11.74-2.39,1.13-2.46,1.74s1.16,2.29,8.6-1.89Z"/><path class="cls-115" d="M407.81,512.27s3.26,4.7-10.14,4.87c-17.76.23-21.18-3.68.34-4.93Z"/><path class="cls-115" d="M444.27,512.27s3.26,4.7-10.13,4.87c-17.77.23-21.18-3.68.33-4.93Z"/><rect class="cls-62" x="469.28" y="180.76" width="161.16" height="5.1"/><ellipse class="cls-44" cx="492.85" cy="158.13" rx="21.15" ry="23.04" transform="translate(-17.55 244.13) rotate(-27.35)"/><path class="cls-148" d="M514,148.43c-5.84-11.29-19-16.09-29.32-10.73s-14,18.85-8.18,30.14,19,16.09,29.32,10.73S519.83,159.72,514,148.43Zm-9.17,28.23c-9.39,4.85-21.29.5-26.58-9.73s-2-22.46,7.42-27.32,21.28-.5,26.58,9.73S514.21,171.8,504.82,176.66Z"/><path class="cls-149" d="M512.24,149.34c-5.3-10.23-17.2-14.59-26.58-9.73S473,156.7,478.24,166.93s17.19,14.58,26.58,9.73S517.53,159.57,512.24,149.34Zm-8.72,24.79c-8.11,4.2-18.39.43-23-8.4s-1.7-19.4,6.4-23.59,18.39-.44,23,8.4S511.62,169.94,503.52,174.13Z"/><path class="cls-148" d="M493.9,154.72l.15.15-.11.17h3.3s1.94-8.91,6-13.48a17.92,17.92,0,0,0-13.4-2.06l-.31.19S493.06,144.56,493.9,154.72Z"/><path class="cls-148" d="M497.08,160.92l-.15-.15.11-.17h-3.3s-2.05,9.5-6.36,13.92a3.26,3.26,0,0,0,.14.33c5.75,3.24,12,2.72,14.27,1.35C501.79,176.2,497.92,171.08,497.08,160.92Z"/><path class="cls-148" d="M497.21,155.13l1.52,2.85.11.05c.69-.19,8.77-2.36,14.45-1.1a20.94,20.94,0,0,0-5.42-11.62A35.65,35.65,0,0,1,497.21,155.13Z"/><path class="cls-148" d="M493.78,160.51l-1.52-2.85-.11,0c-.72.19-9.36,2.52-15,1A21,21,0,0,0,482.66,171C483.62,169.44,486.73,165,493.78,160.51Z"/><path class="cls-148" d="M498.73,158l-.05,0L497,160.6l-.11.17.15.15c1,1,7.15,7.79,8.52,13.29.72-.28,6.28-2.52,7.64-11.93-1.93-.05-7.21-.55-14.4-4.25Z"/><path class="cls-148" d="M492.15,157.61l.11,0,.05,0,1.63-2.65.11-.17-.15-.15c-1-1-7.09-7.71-8.46-13.21-1.18.93-6.44,2.46-8.12,11.85C478.79,153.35,484.34,153.6,492.15,157.61Z"/><path class="cls-149" d="M499.63,155.86a5,5,0,1,1-6.87-2.51A5.18,5.18,0,0,1,499.63,155.86Z"/><path class="cls-148" d="M498.85,156.26a4.09,4.09,0,1,1-5.65-2.07A4.26,4.26,0,0,1,498.85,156.26Z"/><path class="cls-12" d="M496.2,156.15a1.82,1.82,0,1,1-2.52-.92A1.9,1.9,0,0,1,496.2,156.15Z"/><path class="cls-12" d="M478.26,168.3c-5.64-10.9-2.1-23.93,7.9-29.1,6.6-3.42,14.36-2.53,20.5,1.59-6.29-4.8-14.61-6-21.63-2.39-10,5.18-13.53,18.2-7.9,29.1a23.54,23.54,0,0,0,7.81,8.77A23.63,23.63,0,0,1,478.26,168.3Z"/><path class="cls-150" d="M496.05,146.54c1.35.13,2.83-4.63,3.4-6.65a17.76,17.76,0,0,0-4.88-.87C494.56,141,494.65,146.4,496.05,146.54Z"/><path class="cls-150" d="M485,163c-.51-1.14-4.7-.33-6.95.21a21.87,21.87,0,0,0,1.29,3.12c.21.41.44.81.67,1.2C482.09,166.35,485.53,164.13,485,163Z"/><path class="cls-150" d="M486.19,151.29c.91-1.19-3.44-5.89-4.57-7.07a13.44,13.44,0,0,0-2.84,4.23C480.19,149.34,485.29,152.47,486.19,151.29Z"/><path class="cls-150" d="M495,169.56c-1.42-.09-2.81,5.17-3.26,7a18.17,18.17,0,0,0,5,.68C496.67,175.54,496.45,169.66,495,169.56Z"/><path class="cls-150" d="M504.74,164.74c-1,1.27,3.69,6.2,4.42,7a14.48,14.48,0,0,0,2.7-4.31C510.14,166.32,505.59,163.63,504.74,164.74Z"/><path class="cls-150" d="M505.8,153.24c.46,1.11,4.38.49,6.68,0a20.35,20.35,0,0,0-1.37-3.35c-.16-.31-.34-.61-.51-.91C508.5,150.18,505.35,152.16,505.8,153.24Z"/><ellipse class="cls-44" cx="606.36" cy="158.13" rx="21.15" ry="23.04" transform="translate(-4.86 296.29) rotate(-27.35)"/><path class="cls-148" d="M627.5,148.43c-5.84-11.29-19-16.09-29.33-10.73s-14,18.85-8.18,30.14,19,16.09,29.33,10.73S633.34,159.72,627.5,148.43Zm-9.17,28.23c-9.39,4.85-21.29.5-26.58-9.73s-2-22.46,7.41-27.32,21.29-.5,26.58,9.73S627.72,171.8,618.33,176.66Z"/><path class="cls-149" d="M625.74,149.34c-5.29-10.23-17.19-14.59-26.58-9.73s-12.7,17.09-7.41,27.32,17.19,14.58,26.58,9.73S631,159.57,625.74,149.34ZM617,174.13c-8.1,4.2-18.38.43-22.95-8.4s-1.71-19.4,6.4-23.59,18.39-.44,23,8.4S625.13,169.94,617,174.13Z"/><path class="cls-148" d="M617.88,169.91c1.26-1,3.26-.6,4.76.82a17.21,17.21,0,0,0,2.5-4.29c-1.54-.94-2.39-2.46-2-3.84a3.44,3.44,0,0,1,3.31-2.15,19.69,19.69,0,0,0-.51-5.58,3.23,3.23,0,0,1-3-1.83,3.27,3.27,0,0,1,.94-3.39,20.42,20.42,0,0,0-2.5-3.58,3.23,3.23,0,0,1-3.53.14,3.47,3.47,0,0,1-1-4,18.59,18.59,0,0,0-4.24-1.93c-.45,1.76-1.67,3-3.13,3-1.66,0-3-1.65-3.28-3.8a16.11,16.11,0,0,0-5.7,1.49c1.22,1.89,1.2,4.12-.15,5.17s-3.58.51-5.11-1.21a16.63,16.63,0,0,0-2.76,4.35c1.92.87,3,2.61,2.59,4.17s-2.16,2.31-4.12,2.12a19.89,19.89,0,0,0,.47,5.62c1.74-.17,3.3.5,3.81,1.82s-.15,2.87-1.53,3.93a19.77,19.77,0,0,0,2.49,3.44c1.35-1.07,3-1.35,4.14-.55s1.49,2.73.75,4.5a18.75,18.75,0,0,0,4.36,1.8c.35-2,1.65-3.43,3.22-3.43s3.06,1.7,3.28,3.89a16,16,0,0,0,5.43-1.67c.06,0,.1-.06.15-.08C616.5,173.05,616.57,170.93,617.88,169.91Z"/><path class="cls-150" d="M608,149.13c.56,2.3.25,4.36-.69,4.59s-2.15-1.46-2.71-3.77-.26-4.36.68-4.59S607.46,146.82,608,149.13Z"/><path class="cls-150" d="M613.64,166.5c.49,2.32.12,4.37-.82,4.57s-2.11-1.52-2.61-3.85-.13-4.36.82-4.57S613.14,164.17,613.64,166.5Z"/><path class="cls-150" d="M613.23,150.05c-.81,2.23-2.21,3.77-3.11,3.44s-1-2.4-.18-4.64,2.2-3.77,3.11-3.44S614,147.82,613.23,150.05Z"/><path class="cls-150" d="M608.29,167.62c-.88,2.21-2.32,3.71-3.21,3.36s-.92-2.44-.05-4.65,2.32-3.7,3.21-3.35S609.16,165.42,608.29,167.62Z"/><path class="cls-150" d="M617.15,153.88c-1.95,1.37-4,1.84-4.53,1.05s.57-2.54,2.51-3.91,4-1.83,4.53-1S619.09,152.51,617.15,153.88Z"/><path class="cls-150" d="M603,165.47c-2,1.31-4,1.72-4.55.91s.64-2.52,2.62-3.83,4-1.72,4.55-.91S605,164.16,603,165.47Z"/><path class="cls-150" d="M617.14,159.7c-2.37-.07-4.27-.92-4.24-1.89s2-1.68,4.35-1.6,4.28.92,4.24,1.89S619.51,159.78,617.14,159.7Z"/><path class="cls-150" d="M599.87,160.37c-2.37-.15-4.24-1.05-4.18-2s2-1.62,4.4-1.48,4.24,1,4.18,2S602.24,160.51,599.87,160.37Z"/><path class="cls-150" d="M615,164.17c-1.94-1.37-3.06-3.12-2.51-3.91s2.59-.32,4.53,1.05,3.06,3.12,2.5,3.91S616.9,165.54,615,164.17Z"/><path class="cls-150" d="M600.17,155.24c-1.9-1.43-3-3.21-2.39-4s2.59-.25,4.49,1.18,3,3.2,2.39,4S602.07,156.66,600.17,155.24Z"/><path class="cls-149" d="M613.14,155.86a5,5,0,1,1-6.87-2.51A5.19,5.19,0,0,1,613.14,155.86Z"/><path class="cls-148" d="M612.36,156.26a4.09,4.09,0,1,1-5.65-2.07A4.26,4.26,0,0,1,612.36,156.26Z"/><path class="cls-12" d="M609.7,156.15a1.82,1.82,0,1,1-2.52-.92A1.89,1.89,0,0,1,609.7,156.15Z"/><path class="cls-12" d="M591.77,168.3c-5.64-10.9-2.1-23.93,7.9-29.1,6.6-3.42,14.36-2.53,20.5,1.59-6.29-4.8-14.62-6-21.63-2.39-10,5.18-13.53,18.2-7.9,29.1a23.54,23.54,0,0,0,7.81,8.77A23.63,23.63,0,0,1,591.77,168.3Z"/><ellipse class="cls-44" cx="550.86" cy="153.08" rx="25.46" ry="27.74" transform="translate(-8.74 270.23) rotate(-27.35)"/><path class="cls-148" d="M576.31,141.67c-7-13.59-22.83-19.37-35.3-12.92s-16.88,22.69-9.85,36.28S554,184.4,566.46,178,583.34,155.26,576.31,141.67Zm-11,34c-11.3,5.85-25.63.6-32-11.71s-2.37-27,8.93-32.89,25.63-.6,32,11.71S576.57,169.8,565.27,175.65Z"/><path class="cls-149" d="M574.2,142.58c-6.37-12.39-20.7-17.67-32-11.79s-15.3,20.71-8.93,33.1,20.7,17.68,32,11.79S580.57,155,574.2,142.58Zm-10.5,30c-9.76,5.08-22.13.53-27.64-10.18s-2-23.51,7.71-28.59,22.14-.52,27.64,10.18S573.46,167.54,563.7,172.62Z"/><path class="cls-148" d="M575.52,155.23a24,24,0,0,0-.26-4.3,84.34,84.34,0,0,0-13.56-1.29,112.93,112.93,0,0,0,8.76-10.1,24.49,24.49,0,0,0-2.93-3.24A82.42,82.42,0,0,0,557,145a101.08,101.08,0,0,0-1.17-14.6,20.35,20.35,0,0,0-3.89-.31A84.93,84.93,0,0,0,550.4,145c-3.21-3.07-8.31-7.73-11.6-9.78a19.62,19.62,0,0,0-2.54,2.78,83,83,0,0,0,9.48,11.69,109.9,109.9,0,0,0-13.8,1,25,25,0,0,0,.27,4.3,84.32,84.32,0,0,0,13.55,1.29,114.47,114.47,0,0,0-8.75,10.1,25.14,25.14,0,0,0,2.92,3.24A82.38,82.38,0,0,0,550.46,161a99.68,99.68,0,0,0,1.17,14.6,20.35,20.35,0,0,0,3.89.31A84.91,84.91,0,0,0,557.07,161c3.21,3.06,8.31,7.72,11.6,9.77a20.24,20.24,0,0,0,2.54-2.78,85.18,85.18,0,0,0-9.48-11.69A109.74,109.74,0,0,0,575.52,155.23Zm-20.18,1.61h-3.21l-2.26-2.26v-3.21l2.26-2.26h3.21l2.26,2.26v3.21Z"/><path class="cls-150" d="M555.62,156.56l13.43,13.78a19.43,19.43,0,0,0,1.52-1.63L557.19,155Z"/><path class="cls-150" d="M557.6,154.19l17.91.23c0-.74,0-1.48-.12-2.23L557.6,152Z"/><path class="cls-150" d="M552.57,156.84l-.24,18.82a18.46,18.46,0,0,0,2.23.19l.24-19Z"/><path class="cls-150" d="M551.79,149.45l-13.43-13.78a17.88,17.88,0,0,0-1.51,1.63L550.22,151Z"/><path class="cls-150" d="M557.32,151.09l12.56-12.25a21.36,21.36,0,0,0-1.48-1.66l-12.66,12.34Z"/><path class="cls-150" d="M554.9,149.11l.24-18.82a18.46,18.46,0,0,0-2.23-.19l-.24,19Z"/><path class="cls-150" d="M550.2,154.92l-12.56,12.25c.47.58,1,1.13,1.48,1.66l12.66-12.34Z"/><path class="cls-150" d="M549.87,151.87,532,151.64c0,.74,0,1.48.13,2.23l17.78.22Z"/><path class="cls-149" d="M559,150.34a6,6,0,1,1-8.26-3A6.24,6.24,0,0,1,559,150.34Z"/><path class="cls-148" d="M558.09,150.82a4.92,4.92,0,1,1-6.81-2.49A5.15,5.15,0,0,1,558.09,150.82Z"/><path class="cls-12" d="M554.89,150.69a2.19,2.19,0,1,1-3-1.11A2.3,2.3,0,0,1,554.89,150.69Z"/><path class="cls-12" d="M533.29,165.31c-6.78-13.12-2.52-28.8,9.51-35,8-4.11,17.3-3,24.69,1.92-7.58-5.78-17.6-7.24-26-2.88-12,6.23-16.3,21.91-9.51,35a28.23,28.23,0,0,0,9.4,10.56A28.41,28.41,0,0,1,533.29,165.31Z"/><polygon class="cls-44" points="469.28 185.86 469.28 195.56 629.79 195.56 630.44 185.86 469.28 185.86"/><rect class="cls-151" x="167.16" y="385.84" width="16.98" height="59.94" transform="translate(-241.06 589.31) rotate(-89.7)"/><path class="cls-151" d="M205.58,424.45c0,2.61-13.44,4.65-30,4.57s-30-2.27-29.94-4.88,13.44-4.65,30-4.56S205.59,421.85,205.58,424.45Z"/><path class="cls-152" d="M205.58,424.41l.09-17-11.38-.06.2,20.64C201.25,427.18,205.57,425.89,205.58,424.41Z"/><path class="cls-152" d="M145.73,407.12l-.09,17c0,1.61,5.13,3.06,13,3.95l-.21-20.87Z"/><polygon class="cls-151" points="156.3 425.55 158.81 427.25 158.75 423.84 156.3 425.55"/><polygon class="cls-151" points="156.35 422.23 158.85 423.93 158.8 420.52 156.35 422.23"/><polygon class="cls-151" points="156.37 419.05 158.88 420.74 158.83 417.33 156.37 419.05"/><polygon class="cls-151" points="156.28 415.95 158.79 417.65 158.74 414.24 156.28 415.95"/><polygon class="cls-151" points="156.31 412.73 158.82 414.43 158.77 411.01 156.31 412.73"/><polygon class="cls-152" points="160.81 411.31 158.35 413.02 160.61 414.55 158.4 416.1 160.76 417.7 158.41 419.35 160.72 420.91 158.43 422.52 160.84 424.15 158.44 425.83 160.95 427.52 160.81 411.31"/><polygon class="cls-151" points="162.04 411.21 159.59 412.93 161.84 414.45 159.63 416 162 417.6 159.65 419.25 161.96 420.81 159.66 422.42 162.07 424.05 159.67 425.73 162.18 427.43 162.04 411.21"/><polygon class="cls-152" points="163.39 411.29 160.93 413.01 163.19 414.54 160.98 416.08 163.34 417.69 160.99 419.33 163.31 420.9 161.01 422.5 163.42 424.13 161.02 425.81 163.53 427.51 163.39 411.29"/><polygon class="cls-151" points="164.62 411.2 162.16 412.91 164.42 414.44 162.21 415.99 164.58 417.59 162.22 419.24 164.54 420.8 162.24 422.41 164.65 424.04 162.25 425.71 164.76 427.41 164.62 411.2"/><polygon class="cls-152" points="191.63 411.13 194.14 412.76 191.94 414.36 194.2 415.83 191.89 417.51 194.3 419.08 192.04 420.72 194.38 422.25 192.03 423.96 194.49 425.56 192.04 427.34 191.63 411.13"/><polygon class="cls-151" points="190.39 411.07 192.91 412.7 190.7 414.3 192.97 415.77 190.65 417.46 193.06 419.02 190.8 420.67 193.15 422.19 190.8 423.9 193.25 425.5 190.81 427.28 190.39 411.07"/><polygon class="cls-152" points="189.05 411.2 191.56 412.83 189.36 414.43 191.62 415.9 189.31 417.59 191.72 419.15 189.46 420.8 191.81 422.32 189.45 424.03 191.91 425.63 189.46 427.41 189.05 411.2"/><polygon class="cls-151" points="187.81 411.14 190.32 412.77 188.12 414.38 190.39 415.85 188.07 417.53 190.48 419.1 188.22 420.74 190.57 422.27 188.22 423.98 190.67 425.57 188.23 427.36 187.81 411.14"/><polygon class="cls-151" points="196.68 425.67 194.18 427.39 194.21 423.98 196.68 425.67"/><polygon class="cls-151" points="196.61 422.35 194.11 424.07 194.14 420.65 196.61 422.35"/><polygon class="cls-151" points="196.56 419.17 194.06 420.88 194.09 417.47 196.56 419.17"/><polygon class="cls-151" points="196.63 416.07 194.13 417.79 194.16 414.38 196.63 416.07"/><polygon class="cls-151" points="196.58 412.85 194.08 414.56 194.11 411.15 196.58 412.85"/><path class="cls-153" d="M205.67,407.47c0,2.87-13.45,5.12-30,5s-30-2.48-29.94-5.35,13.44-5.12,30-5S205.68,404.61,205.67,407.47Z"/><path class="cls-151" d="M198.55,406.72c0,1.92-10.25,3.43-22.87,3.36s-22.84-1.67-22.83-3.6,10.25-3.43,22.87-3.36S198.56,404.8,198.55,406.72Z"/><path class="cls-154" d="M195.33,406.34c0,1.46-8.8,2.59-19.64,2.53s-19.62-1.28-19.61-2.73,8.8-2.59,19.64-2.53S195.34,404.89,195.33,406.34Z"/><path class="cls-155" d="M180.53,404.77c0,.66-4.5,1.31-10.05,1.46s-10.07-.26-10.08-.92,4.5-1.32,10.06-1.47S180.52,404.11,180.53,404.77Z"/><path class="cls-152" d="M175.59,428c-15.48-.08-28.2-2-29.78-4.38a.91.91,0,0,0-.17.5c0,2.61,13.39,4.79,29.94,4.88s30-2,30-4.57a.88.88,0,0,0-.17-.5C203.82,426.31,191.07,428.1,175.59,428Z"/><rect class="cls-151" x="164.16" y="368.04" width="16.98" height="59.94" transform="translate(-226.25 568.61) rotate(-89.7)"/><path class="cls-151" d="M202.58,406.66c0,2.61-13.44,4.65-30,4.57s-30-2.27-29.94-4.88,13.44-4.65,30-4.56S202.59,404.05,202.58,406.66Z"/><path class="cls-152" d="M202.58,406.62l.09-17-11.38-.06.2,20.64C198.25,409.39,202.57,408.09,202.58,406.62Z"/><path class="cls-152" d="M142.73,389.33l-.09,17c0,1.61,5.13,3.06,13,3.95l-.21-20.87Z"/><polygon class="cls-151" points="153.3 407.76 155.81 409.46 155.75 406.05 153.3 407.76"/><polygon class="cls-151" points="153.35 404.44 155.85 406.14 155.8 402.73 153.35 404.44"/><polygon class="cls-151" points="153.37 401.25 155.88 402.95 155.83 399.54 153.37 401.25"/><polygon class="cls-151" points="153.28 398.16 155.79 399.86 155.74 396.45 153.28 398.16"/><polygon class="cls-151" points="153.31 394.94 155.82 396.63 155.77 393.22 153.31 394.94"/><polygon class="cls-152" points="157.81 393.52 155.35 395.23 157.61 396.76 155.4 398.31 157.76 399.91 155.41 401.56 157.72 403.12 155.43 404.73 157.84 406.36 155.44 408.04 157.95 409.73 157.81 393.52"/><polygon class="cls-151" points="159.04 393.42 156.59 395.13 158.84 396.66 156.63 398.21 159 399.81 156.65 401.46 158.96 403.02 156.66 404.63 159.07 406.26 156.67 407.94 159.18 409.63 159.04 393.42"/><polygon class="cls-152" points="160.39 393.5 157.93 395.22 160.19 396.75 157.98 398.29 160.34 399.9 157.99 401.54 160.31 403.11 158.01 404.71 160.42 406.34 158.02 408.02 160.53 409.72 160.39 393.5"/><polygon class="cls-151" points="161.62 393.4 159.16 395.12 161.42 396.65 159.21 398.19 161.58 399.8 159.22 401.44 161.54 403.01 159.24 404.61 161.65 406.25 159.25 407.92 161.76 409.62 161.62 393.4"/><polygon class="cls-152" points="188.63 393.33 191.14 394.96 188.94 396.57 191.2 398.04 188.89 399.72 191.3 401.29 189.04 402.93 191.38 404.46 189.03 406.17 191.49 407.76 189.04 409.55 188.63 393.33"/><polygon class="cls-151" points="187.39 393.28 189.91 394.91 187.7 396.51 189.97 397.98 187.65 399.67 190.06 401.23 187.8 402.88 190.15 404.4 187.8 406.11 190.25 407.71 187.81 409.49 187.39 393.28"/><polygon class="cls-152" points="186.05 393.41 188.56 395.04 186.36 396.64 188.62 398.11 186.31 399.8 188.72 401.36 186.46 403 188.81 404.53 186.45 406.24 188.91 407.84 186.46 409.62 186.05 393.41"/><polygon class="cls-151" points="184.81 393.35 187.32 394.98 185.12 396.59 187.39 398.06 185.07 399.74 187.48 401.31 185.22 402.95 187.57 404.47 185.22 406.19 187.67 407.78 185.23 409.56 184.81 393.35"/><polygon class="cls-151" points="193.68 407.88 191.18 409.6 191.21 406.18 193.68 407.88"/><polygon class="cls-151" points="193.61 404.56 191.11 406.28 191.14 402.86 193.61 404.56"/><polygon class="cls-151" points="193.56 401.38 191.06 403.09 191.09 399.68 193.56 401.38"/><polygon class="cls-151" points="193.63 398.28 191.13 400 191.16 396.58 193.63 398.28"/><polygon class="cls-151" points="193.58 395.06 191.08 396.77 191.11 393.36 193.58 395.06"/><path class="cls-153" d="M202.67,389.68c0,2.87-13.45,5.12-30,5s-30-2.48-29.94-5.35,13.44-5.12,30-5S202.68,386.81,202.67,389.68Z"/><path class="cls-151" d="M195.55,388.93c0,1.92-10.25,3.43-22.87,3.36s-22.84-1.68-22.83-3.6,10.25-3.43,22.87-3.36S195.56,387,195.55,388.93Z"/><path class="cls-154" d="M192.33,388.55c0,1.46-8.8,2.59-19.64,2.53s-19.62-1.28-19.61-2.73,8.8-2.59,19.64-2.53S192.34,387.1,192.33,388.55Z"/><path class="cls-155" d="M177.53,387c0,.66-4.5,1.31-10.05,1.46s-10.07-.26-10.08-.92,4.5-1.32,10.06-1.47S177.52,386.32,177.53,387Z"/><path class="cls-152" d="M172.59,410.23c-15.48-.08-28.2-2-29.78-4.38a.91.91,0,0,0-.17.5c0,2.61,13.39,4.79,29.94,4.88s30-2,30-4.57a.88.88,0,0,0-.17-.5C200.82,408.52,188.07,410.31,172.59,410.23Z"/><polygon class="cls-151" points="206.91 388.83 146.97 388.52 147.06 371.98 207 372.46 206.91 388.83"/><path class="cls-151" d="M206.91,388.83c0,2.61-13.44,4.66-30,4.57s-30-2.27-29.95-4.88,13.45-4.65,30-4.56S206.93,386.23,206.91,388.83Z"/><path class="cls-152" d="M206.91,388.79l.09-16.38-11.38-.66.2,20.64C202.58,391.56,206.91,390.27,206.91,388.79Z"/><path class="cls-152" d="M147.06,372.28l-.09,16.2c0,1.61,5.14,3.06,13,4l-.2-20.87Z"/><polygon class="cls-151" points="157.64 389.94 160.14 391.63 160.09 388.22 157.64 389.94"/><polygon class="cls-151" points="157.68 386.62 160.19 388.31 160.13 384.9 157.68 386.62"/><polygon class="cls-151" points="157.71 383.43 160.22 385.13 160.16 381.71 157.71 383.43"/><polygon class="cls-151" points="157.62 380.34 160.13 382.03 160.07 378.62 157.62 380.34"/><polygon class="cls-151" points="157.65 377.11 160.15 378.81 160.1 375.4 157.65 377.11"/><polygon class="cls-152" points="162.14 375.69 159.69 377.41 161.94 378.93 159.73 380.48 162.1 382.08 159.75 383.73 162.06 385.3 159.76 386.9 162.17 388.53 159.77 390.21 162.28 391.91 162.14 375.69"/><polygon class="cls-151" points="163.37 375.59 160.92 377.31 163.17 378.83 160.96 380.38 163.33 381.99 160.98 383.63 163.29 385.2 161 386.8 163.41 388.43 161.01 390.11 163.51 391.81 163.37 375.59"/><polygon class="cls-152" points="164.72 375.68 162.27 377.39 164.52 378.92 162.31 380.47 164.68 382.07 162.33 383.72 164.64 385.28 162.34 386.89 164.75 388.52 162.35 390.19 164.86 391.89 164.72 375.68"/><polygon class="cls-151" points="165.95 375.58 163.5 377.3 165.75 378.82 163.54 380.37 165.91 381.97 163.56 383.62 165.87 385.18 163.58 386.79 165.99 388.42 163.59 390.1 166.09 391.79 165.95 375.58"/><polygon class="cls-152" points="192.96 375.51 195.47 377.14 193.27 378.74 195.54 380.21 193.22 381.9 195.63 383.46 193.37 385.11 195.72 386.63 193.37 388.34 195.82 389.94 193.38 391.72 192.96 375.51"/><polygon class="cls-151" points="191.73 375.45 194.24 377.08 192.04 378.69 194.3 380.16 191.99 381.84 194.4 383.4 192.14 385.05 194.48 386.57 192.13 388.29 194.59 389.88 192.14 391.66 191.73 375.45"/><polygon class="cls-152" points="190.38 375.58 192.9 377.21 190.69 378.82 192.96 380.29 190.64 381.97 193.05 383.54 190.79 385.18 193.14 386.7 190.79 388.42 193.24 390.01 190.8 391.79 190.38 375.58"/><polygon class="cls-151" points="189.15 375.53 191.66 377.16 189.46 378.76 191.72 380.23 189.41 381.91 191.82 383.48 189.56 385.12 191.91 386.65 189.55 388.36 192.01 389.96 189.56 391.74 189.15 375.53"/><polygon class="cls-151" points="198.01 390.06 195.51 391.77 195.54 388.36 198.01 390.06"/><polygon class="cls-151" points="197.94 386.74 195.45 388.45 195.48 385.04 197.94 386.74"/><polygon class="cls-151" points="197.89 383.55 195.4 385.26 195.43 381.85 197.89 383.55"/><polygon class="cls-151" points="197.96 380.46 195.47 382.17 195.5 378.76 197.96 380.46"/><polygon class="cls-151" points="197.91 377.23 195.42 378.95 195.45 375.53 197.91 377.23"/><path class="cls-153" d="M207,372.59c0,1.8-13.43,3.19-30,3.1s-30-1.61-29.95-3.41,13.44-3.19,30-3.1S207,370.79,207,372.59Z"/><path class="cls-151" d="M199.88,372.1c0,1.21-10.25,2.13-22.87,2.07s-22.85-1.1-22.84-2.31,10.24-2.13,22.86-2.06S199.88,370.89,199.88,372.1Z"/><path class="cls-152" d="M196.65,372.57c0,.91-8.79,1.6-19.63,1.55s-19.62-.84-19.62-1.76,8.8-1.6,19.64-1.55S196.66,371.65,196.65,372.57Z"/><path class="cls-152" d="M176.92,392.4c-15.47-.08-28.19-2-29.78-4.37a.88.88,0,0,0-.17.49c0,2.61,13.4,4.79,29.95,4.88s30-2,30-4.57a.86.86,0,0,0-.17-.5C205.15,390.7,192.4,392.48,176.92,392.4Z"/><polygon class="cls-156" points="154.82 211.66 179.88 208.41 179.88 240.07 159.45 239.68 154.82 211.66"/><rect class="cls-157" x="171.63" y="230.47" width="5.85" height="6.64"/><polygon class="cls-157" points="176.44 215.93 159.26 215.91 159.08 214.62 176.44 214.62 176.44 215.93"/><polygon class="cls-157" points="176.44 219.64 159.77 219.6 159.6 218.38 176.44 218.42 176.44 219.64"/><polygon class="cls-157" points="176.44 223.49 160.3 223.42 160.14 222.28 176.44 222.34 176.44 223.49"/><polygon class="cls-157" points="176.44 227.08 160.8 226.98 160.65 225.91 176.44 226.01 176.44 227.08"/><polygon class="cls-156" points="732.27 197.17 765.43 192.88 765.43 234.76 738.39 234.24 732.27 197.17"/><rect class="cls-157" x="754.51" y="222.06" width="4.78" height="5.44"/><rect class="cls-157" x="746.45" y="222.06" width="4.78" height="5.44"/><polygon class="cls-157" points="760.88 202.82 738.14 202.8 737.9 201.1 760.88 201.1 760.88 202.82"/><polygon class="cls-157" points="760.88 207.73 738.82 207.67 738.6 206.07 760.88 206.11 760.88 207.73"/><polygon class="cls-157" points="760.88 212.83 739.52 212.73 739.32 211.22 760.88 211.31 760.88 212.83"/><polygon class="cls-157" points="760.88 217.58 740.18 217.44 739.98 216.03 760.88 216.15 760.88 217.58"/><polygon class="cls-156" points="188.51 243.06 188.85 266.06 206.91 266.06 206.96 245.04 188.51 243.06"/><rect class="cls-158" x="190.57" y="246.64" width="5.85" height="6.64"/><rect class="cls-158" x="198.82" y="246.64" width="6.4" height="0.91"/><rect class="cls-158" x="198.82" y="249.51" width="6.4" height="0.91"/><rect class="cls-158" x="198.82" y="252.38" width="6.4" height="0.91"/><rect class="cls-158" x="190.57" y="255.01" width="14.66" height="0.91"/><rect class="cls-158" x="190.57" y="257.93" width="14.66" height="0.91"/><rect class="cls-158" x="190.57" y="261.15" width="14.66" height="0.91"/><rect class="cls-159" x="869.67" y="330.87" width="30.33" height="93.51"/><rect class="cls-160" x="869.67" y="360.21" width="30.33" height="34.84"/><rect class="cls-161" x="869.67" y="329.25" width="30.33" height="2.25"/><rect class="cls-161" x="869.67" y="356.84" width="30.33" height="1.48"/><rect class="cls-161" x="869.67" y="396.69" width="30.33" height="1.48"/><rect class="cls-161" x="869.67" y="422.9" width="30.33" height="1.48"/><rect class="cls-162" x="873.75" y="331.5" width="18.75" height="91.4"/><rect class="cls-162" x="869.67" y="355.17" width="30.33" height="1.67"/><rect class="cls-162" x="869.67" y="395.05" width="30.33" height="1.67"/><rect class="cls-162" x="869.67" y="421.13" width="30.33" height="1.67"/><ellipse class="cls-58" cx="93.95" cy="192.88" rx="21.15" ry="23.04" transform="translate(-78.12 64.74) rotate(-27.35)"/><path class="cls-59" d="M115.09,183.18c-5.84-11.29-19-16.1-29.33-10.74s-14,18.85-8.18,30.14,19,16.1,29.33,10.74S120.93,194.47,115.09,183.18Zm-9.18,28.22c-9.38,4.86-21.28.5-26.58-9.73s-2-22.46,7.42-27.31,21.29-.5,26.58,9.73S115.3,206.55,105.91,211.4Z"/><path class="cls-60" d="M113.33,184.09c-5.29-10.23-17.19-14.59-26.58-9.73S74,191.44,79.33,201.67s17.2,14.59,26.58,9.73S118.62,194.32,113.33,184.09Zm-8.72,24.79c-8.11,4.19-18.39.43-23-8.41s-1.7-19.39,6.41-23.59,18.38-.43,23,8.41S112.72,204.68,104.61,208.88Z"/><path class="cls-59" d="M105.46,204.66c1.26-1,3.26-.6,4.77.82a17.58,17.58,0,0,0,2.5-4.3c-1.54-.93-2.4-2.45-2-3.83a3.41,3.41,0,0,1,3.3-2.15,19.66,19.66,0,0,0-.51-5.58,2.93,2.93,0,0,1-2-5.23,21.24,21.24,0,0,0-2.49-3.57,3.28,3.28,0,0,1-3.54.14,3.48,3.48,0,0,1-1-4,19.07,19.07,0,0,0-4.24-1.94c-.45,1.77-1.68,3-3.13,3-1.67,0-3-1.65-3.28-3.81a16.17,16.17,0,0,0-5.71,1.5c1.23,1.88,1.2,4.11-.14,5.16s-3.59.51-5.12-1.2a17,17,0,0,0-2.76,4.34c1.92.87,3.06,2.61,2.6,4.17s-2.17,2.31-4.12,2.13a19.84,19.84,0,0,0,.46,5.61c1.75-.17,3.3.51,3.82,1.83s-.15,2.86-1.54,3.93a20.3,20.3,0,0,0,2.49,3.44c1.35-1.07,3-1.35,4.14-.55s1.5,2.72.75,4.49a18.79,18.79,0,0,0,4.36,1.81c.36-2,1.66-3.43,3.22-3.43s3.06,1.69,3.28,3.89a16.1,16.1,0,0,0,5.44-1.67l.15-.09C104.09,207.8,104.16,205.67,105.46,204.66Z"/><path class="cls-60" d="M95.6,183.87c.56,2.31.26,4.36-.68,4.59S92.76,187,92.2,184.7s-.25-4.37.69-4.59S95,181.56,95.6,183.87Z"/><path class="cls-60" d="M101.22,201.24c.49,2.33.13,4.37-.82,4.57s-2.11-1.52-2.6-3.84-.13-4.37.81-4.57S100.73,198.92,101.22,201.24Z"/><path class="cls-60" d="M100.81,184.8c-.81,2.23-2.2,3.77-3.11,3.44s-1-2.41-.18-4.64,2.21-3.77,3.12-3.44S101.63,182.56,100.81,184.8Z"/><path class="cls-60" d="M95.87,202.37c-.87,2.21-2.31,3.71-3.21,3.35s-.92-2.43,0-4.64,2.31-3.71,3.21-3.35S96.75,200.16,95.87,202.37Z"/><path class="cls-60" d="M104.73,188.63c-1.94,1.36-4,1.83-4.52,1s.56-2.54,2.51-3.9,4-1.84,4.52-1.05S106.67,187.26,104.73,188.63Z"/><path class="cls-60" d="M90.62,200.22c-2,1.31-4,1.72-4.55.91s.64-2.52,2.62-3.83,4-1.72,4.55-.91S92.6,198.91,90.62,200.22Z"/><path class="cls-60" d="M104.72,194.45c-2.37-.08-4.27-.93-4.24-1.89s2-1.69,4.36-1.61,4.27.93,4.24,1.89S107.1,194.53,104.72,194.45Z"/><path class="cls-60" d="M87.46,195.11c-2.37-.15-4.24-1.05-4.18-2s2-1.63,4.4-1.48,4.24,1,4.18,2S89.83,195.26,87.46,195.11Z"/><path class="cls-60" d="M102.54,198.91c-1.94-1.37-3.06-3.12-2.5-3.91s2.58-.32,4.52,1.05,3.06,3.12,2.51,3.91S104.48,200.28,102.54,198.91Z"/><path class="cls-60" d="M87.75,190c-1.9-1.42-3-3.2-2.39-4s2.59-.24,4.49,1.18,3,3.21,2.39,4S89.65,191.41,87.75,190Z"/><path class="cls-60" d="M100.72,190.61a5,5,0,1,1-6.86-2.51A5.17,5.17,0,0,1,100.72,190.61Z"/><path class="cls-59" d="M100,191a4.09,4.09,0,1,1-5.66-2.07A4.27,4.27,0,0,1,100,191Z"/><path class="cls-61" d="M97.29,190.9a1.82,1.82,0,1,1-2.52-.92A1.9,1.9,0,0,1,97.29,190.9Z"/><path class="cls-61" d="M79.35,203c-5.63-10.89-2.1-23.92,7.9-29.09,6.6-3.42,14.37-2.53,20.51,1.59-6.3-4.8-14.62-6-21.63-2.39-10,5.17-13.54,18.2-7.9,29.1A23.59,23.59,0,0,0,86,211,23.69,23.69,0,0,1,79.35,203Z"/><polygon class="cls-163" points="93.59 370.13 90.39 367.33 87.96 367.33 84.76 370.13 84.76 380.5 93.59 380.5 93.59 370.13"/><rect class="cls-12" x="86.55" y="365.03" width="4.94" height="2.57"/><polygon class="cls-164" points="90.08 380.5 93.59 380.5 93.59 370.13 90.08 370.35 90.08 380.5"/><polygon class="cls-164" points="90.39 367.33 87.96 367.33 86.56 368.56 91.8 368.56 90.39 367.33"/><rect class="cls-14" x="89.95" y="365.03" width="1.54" height="2.57"/><rect class="cls-14" x="86.55" y="366.95" width="4.94" height="0.65"/><polygon class="cls-165" points="84.76 370.13 87.62 370.44 87.62 380.5 84.72 380.5 84.76 370.13"/><path class="cls-76" d="M106,378.24s-.33,10-1.72,13.92a6.69,6.69,0,0,0,5.6,1.44s.77,1.79,5,1.79c0,0,3.22-.29,4.22-2,0,0,2.41.14,3.43-.89,0,0-.66-9.38-.44-13.93,0,0-10.07-2.25-10.57-1.65a5.47,5.47,0,0,1-1.07,1.11C109.08,378.06,107.58,378.13,106,378.24Z"/><path class="cls-77" d="M122.11,378.56s-2.45-.56-2.93-.63c-.48,3.86-.43,5.38-.53,14.26-.91,1.72-3.87,2-3.87,2-3.92,0-4.63-1.78-4.63-1.78A5.87,5.87,0,0,1,105,391c1-3.08,1.41-10,1.53-12.76l-.55,0s-.33,10-1.72,13.92a6.69,6.69,0,0,0,5.6,1.44s.77,1.79,5,1.79c0,0,3.22-.29,4.22-2,0,0,2.41.14,3.43-.89C122.55,392.49,121.89,383.11,122.11,378.56Z"/><path class="cls-77" d="M110.21,392.53s.63-5.24,0-5.73-1.18,5.95-1.18,5.95Z"/></g></g></g></svg>